<mxfile host="65bd71144e">
    <diagram id="NGdke7raGVr176VixPfn" name="第 1 页">
        <mxGraphModel dx="1572" dy="802" grid="1" gridSize="10" guides="1" tooltips="1" connect="1" arrows="1" fold="1" page="1" pageScale="1" pageWidth="1654" pageHeight="2336" math="0" shadow="0">
            <root>
                <mxCell id="0"/>
                <mxCell id="1" parent="0"/>
                <mxCell id="2" value="&lt;div style=&quot;color: rgb(212 , 212 , 212) ; background-color: rgb(30 , 30 , 30) ; font-family: &amp;quot;consolas&amp;quot; , &amp;quot;courier new&amp;quot; , monospace ; font-size: 16px ; line-height: 22px&quot;&gt;&lt;div&gt;&lt;span style=&quot;color: #9cdcfe&quot;&gt;这里其实就是&lt;/span&gt; &lt;span style=&quot;color: #9cdcfe&quot;&gt;在&lt;/span&gt; &lt;span style=&quot;color: #9cdcfe&quot;&gt;原对象&lt;/span&gt; &lt;span style=&quot;color: #9cdcfe&quot;&gt;设置了get&lt;/span&gt; &lt;span style=&quot;color: #9cdcfe&quot;&gt;和&lt;/span&gt; &lt;span style=&quot;color: #9cdcfe&quot;&gt;set方法&lt;/span&gt;， &lt;span style=&quot;color: #9cdcfe&quot;&gt;使得不使用&lt;/span&gt; &lt;span style=&quot;color: #9cdcfe&quot;&gt;原&lt;/span&gt; &lt;span style=&quot;color: #9cdcfe&quot;&gt;_name&lt;/span&gt; &lt;span style=&quot;color: #9cdcfe&quot;&gt;时&lt;/span&gt; &lt;span style=&quot;color: #9cdcfe&quot;&gt;使用&lt;/span&gt; &lt;span style=&quot;color: #9cdcfe&quot;&gt;原对象&lt;/span&gt; &lt;span style=&quot;color: #9cdcfe&quot;&gt;obj&lt;/span&gt;.&lt;span style=&quot;color: #9cdcfe&quot;&gt;name&lt;/span&gt; &lt;span style=&quot;color: #9cdcfe&quot;&gt;也能通过&lt;/span&gt; &lt;span style=&quot;color: #569cd6&quot;&gt;this&lt;/span&gt;.&lt;span style=&quot;color: #9cdcfe&quot;&gt;_name&lt;/span&gt; &lt;span style=&quot;color: #9cdcfe&quot;&gt;取得&lt;/span&gt; &lt;span style=&quot;color: #9cdcfe&quot;&gt;obj的值&lt;/span&gt; &lt;/div&gt;&lt;div&gt;&lt;span style=&quot;color: #9cdcfe&quot;&gt;如果&lt;/span&gt; &lt;span style=&quot;color: #9cdcfe&quot;&gt;在Proxy直接&lt;/span&gt; &lt;span style=&quot;color: #9cdcfe&quot;&gt;使用&lt;/span&gt; &lt;span style=&quot;color: #4ec9b0&quot;&gt;Reflect&lt;/span&gt;.&lt;span style=&quot;color: #dcdcaa&quot;&gt;get&lt;/span&gt;(&lt;span style=&quot;color: #9cdcfe&quot;&gt;target&lt;/span&gt;, &lt;span style=&quot;color: #9cdcfe&quot;&gt;key&lt;/span&gt;) &lt;span style=&quot;color: #9cdcfe&quot;&gt;就相当于&lt;/span&gt; &lt;span style=&quot;color: #9cdcfe&quot;&gt;在使用&lt;/span&gt; &lt;span style=&quot;color: #4fc1ff&quot;&gt;objProxy&lt;/span&gt;.&lt;span style=&quot;color: #9cdcfe&quot;&gt;name这条语句的时候&lt;/span&gt; ，&lt;span style=&quot;color: #9cdcfe&quot;&gt;未通过&lt;/span&gt; &lt;span style=&quot;color: #9cdcfe&quot;&gt;代理对象&lt;/span&gt;，&lt;span style=&quot;color: #9cdcfe&quot;&gt;直接&lt;/span&gt; &lt;span style=&quot;color: #9cdcfe&quot;&gt;拿到了&lt;/span&gt; &lt;span style=&quot;color: #9cdcfe&quot;&gt;obj&lt;/span&gt;.&lt;span style=&quot;color: #9cdcfe&quot;&gt;name的值&lt;/span&gt;，&lt;span style=&quot;color: #9cdcfe&quot;&gt;也就是_name的值&lt;/span&gt; ，&lt;span style=&quot;color: #9cdcfe&quot;&gt;那么&lt;/span&gt; &lt;/div&gt;&lt;div&gt;&lt;span style=&quot;color: #9cdcfe&quot;&gt;我们就没有&lt;/span&gt; &lt;span style=&quot;color: #9cdcfe&quot;&gt;通过&lt;/span&gt; &lt;span style=&quot;color: #9cdcfe&quot;&gt;代理对象取值&lt;/span&gt; &amp;nbsp;&lt;/div&gt;&lt;div&gt;&lt;span style=&quot;color: #9cdcfe&quot;&gt;在加入receiver&lt;/span&gt; &lt;span style=&quot;color: #9cdcfe&quot;&gt;后&lt;/span&gt;，&lt;span style=&quot;color: #9cdcfe&quot;&gt;会改变get&lt;/span&gt; &lt;span style=&quot;color: #dcdcaa&quot;&gt;name&lt;/span&gt;() &lt;span style=&quot;color: #9cdcfe&quot;&gt;里面的this指向&lt;/span&gt; ，&lt;span style=&quot;color: #4fc1ff&quot;&gt;objProxy&lt;/span&gt;.&lt;span style=&quot;color: #9cdcfe&quot;&gt;name会使得代理对象里的get&lt;/span&gt; &lt;span style=&quot;color: #9cdcfe&quot;&gt;被执行两次&lt;/span&gt;， &lt;span style=&quot;color: #9cdcfe&quot;&gt;第一次&lt;/span&gt; &lt;span style=&quot;color: #9cdcfe&quot;&gt;查找的是&lt;/span&gt; &lt;span style=&quot;color: #9cdcfe&quot;&gt;key&lt;/span&gt; &lt;span style=&quot;color: #9cdcfe&quot;&gt;name&lt;/span&gt; &lt;span style=&quot;color: #9cdcfe&quot;&gt;找到了&lt;/span&gt; &lt;span style=&quot;color: #9cdcfe&quot;&gt;obj的&lt;/span&gt; &lt;span style=&quot;color: #9cdcfe&quot;&gt;get&lt;/span&gt; &lt;span style=&quot;color: #dcdcaa&quot;&gt;name&lt;/span&gt;() &amp;nbsp;&lt;span style=&quot;color: #9cdcfe&quot;&gt;改变函数的this&lt;/span&gt;&lt;/div&gt;&lt;div&gt;&lt;span style=&quot;color: #9cdcfe&quot;&gt;为&lt;/span&gt;，&lt;span style=&quot;color: #4fc1ff&quot;&gt;objProxy&lt;/span&gt; &lt;span style=&quot;color: #9cdcfe&quot;&gt;就相当于&lt;/span&gt; &lt;span style=&quot;color: #9cdcfe&quot;&gt;调用了objProxy&lt;/span&gt;.&lt;span style=&quot;color: #9cdcfe&quot;&gt;_name&lt;/span&gt; &lt;span style=&quot;color: #9cdcfe&quot;&gt;这时&lt;/span&gt;，&lt;span style=&quot;color: #9cdcfe&quot;&gt;就会再次调用Proxy对象objProxy的get方法&lt;/span&gt;，&lt;span style=&quot;color: #9cdcfe&quot;&gt;这次查找的key就是_name了&lt;/span&gt;，&lt;span style=&quot;color: #9cdcfe&quot;&gt;这样就可以把obj的obj&lt;/span&gt;.&lt;span style=&quot;color: #9cdcfe&quot;&gt;name的操作也给代理掉&lt;/span&gt;&lt;/div&gt;&lt;/div&gt;" style="text;html=1;align=left;verticalAlign=middle;resizable=0;points=[];autosize=1;strokeColor=none;fillColor=none;" parent="1" vertex="1">
                    <mxGeometry x="75" y="30" width="1400" height="120" as="geometry"/>
                </mxCell>
                <mxCell id="3" value="加&lt;span style=&quot;color: rgb(156 , 220 , 254) ; background-color: rgb(30 , 30 , 30) ; font-family: &amp;#34;consolas&amp;#34; , &amp;#34;courier new&amp;#34; , monospace ; font-size: 16px&quot;&gt;receiver前&lt;/span&gt;" style="text;html=1;align=center;verticalAlign=middle;resizable=0;points=[];autosize=1;strokeColor=none;fillColor=none;" parent="1" vertex="1">
                    <mxGeometry x="75" y="200" width="110" height="20" as="geometry"/>
                </mxCell>
                <mxCell id="5" value="结果" style="text;html=1;align=center;verticalAlign=middle;resizable=0;points=[];autosize=1;strokeColor=none;fillColor=none;" parent="1" vertex="1">
                    <mxGeometry x="150" y="470" width="40" height="20" as="geometry"/>
                </mxCell>
                <mxCell id="6" value="" style="shape=image;verticalLabelPosition=bottom;labelBackgroundColor=#ffffff;verticalAlign=top;aspect=fixed;imageAspect=0;image=data:image/png,iVBORw0KGgoAAAANSUhEUgAAAZ0AAADMCAYAAACoen5EAAAgAElEQVR4nO29fVRU19n3/4km+kRhIBWQWI0gg71DbOpUiUqqUZDc6g29o6JEjebpvQT9UeW38lJZLCwuqCwX1qTrp4ZHIat9qg3Gl8Q8iTfYAKPVBpJogjFqn8oYoBrlTYURkmqq+f1x5uXMmTNvMC+A+7MWS+ecffa+Zhj291zXvs6+Hnjssce+RyAQCAQCPzAk0AYIBAKB4P5BiI5AMEjYWvIPviy4G2gzBAKnCNFxxooadHu/JPxp9y8J3tzs8TUCQV/JKOggPSaUyk1DPbousugs+fpqdO5ekFxOtr6J/NJij230iOBC3lt0lOpFR3nv3+b4diyBX3kw0Ab0ngyi8hfDkXk0fR5oW5wz7OUveUKnsT14q5bzWcu4ExiTBHY8y9iDKYQpjnYcyebKHwNikPusMbJxOtRu1bAh0LZ4hTkUTX8KLhQz9/8eC7QxAi8zgEWnf3Jr43jqVc8YMKxM4hYAGYSXbOSJvTWyY4L+QM/pnTQUX5RevPgSk1O283Ck7Fi/4y77kjrh0miW1fhhuKrlbK/y9SBaRgV3c/5rITiDERFeCwhltL9VSw9aQlYE2haBQ/74OwxNMPJH0xkWaFscsaaHhJAR1L4zPNCWCARu4aGnI4W0ImVHWmzCW3MYnZ1DdKj1/K1Pizl/1HTH8tM3mJ4CF968zrjVTxGs2of6OJZ+xhTyhOxaUo4SmWL6f+en1G/P57YH7ye8ZCNjg61Heuo3c/H1MlmbNv7JPibuTWCk6Uj70fFcecv04ul9TFxrPSdh5MquH9P+kavxjdxukv437OUveUJ7jvNZl4nYm064aj/O7Q3e3Ix2vMK+FTXo5mlN7WIZuzed8Ob91G+UBWJM7wG79+5j3P0+KH/n8t/zmEKeWD2Ky4W/xKjofvi8Q+gmXvDwO6HC9RZTGFQKwXEkm7bIzcRNNYVMm45w5lcfWtu/+BKTU6JlHTRiWPI7ugGYSNjv1zE22MiVHRvpOCG1GJYj9ddxJJsrSNcrQ3tSG2yuyxhzB7oeRu/Iy0kuJzs3AeufpJFTW56kUu6tdLVxLaua/DStahtdaROpWmwx7KcwM8fZpyYQqOK+6Jj/8L96h4//pDYxmQTnxjt8vL1Mdk0OT4BVeIghbjVcKJyHEdPEkPIGNz43TxpzGJ29mJGfFvPxURX3+mo+5wuh72s6pgn8xn7qs0wT8NP7mLh2IxNfRjb5atGujeDKrvFc/MgkDvNq6HrLFBb7aBkX5eLy9D4mrp3keuwVCYy8VUuT/NrgBJ7Ya+TKrvHUf2QSkRX76PpoGXfcsPfWxvGcl9v39D4mWgRHej9t9fMJ100hGCxhvWHTJjHyVi3n3Rac1eyoWESM2injKbY+v4njbvbk8vtg+t71HJnHedPvWfPCUXTZhZKYXL1MD3E8PAaMV217Hh4WBDcu915wXnwJbRR0HPnQ5nBYynbCmo5wZsmHMGsVsetTGPvih5JAvPgSk1NGcWVHtkUYgn67He3Bl0zCc5GO/8rmn7/djvZ/rsJ4Yg93XnzJKjh/BPhvrjyzjrGTnuUK5rEnovmRhp7TOy39AsSGfwMdwaj+5kyCc/NQFNtLpEORRWfJzD0LyIQnJIHMNAMfJEZRj0lkssqpr1pOC1CfGWUTMtaVNpHa28/UHcZMRksr9SLuPChxO7ymSXyK4M5PqVcVHOCnaUSHdtOol52/mo/h026CJ87B6vx30/im9a70dlurane21/iAFc9Ld5uVsjv+j5bRVG9kpDZRFk6x9TbuvF5Je6/CYlq0e5vR7W1Gt3cjjxg2U2+XSGA71q2/GSA4Qvoc3LT3zus/xtCsRbt5nyRszfttvBd7+zMI0Wpo/8iTpIY3Wb9gAQvUfjwSHHD1fdAkSjc68hsLo/5TboXGETrGfCSIhyNBumE5yhPzrNlOtzoMHlkzcuo6Jh/cLv2kgGGJSiKB3LM58TE3b8HDkROBiYQ9Ew1NJ2yEoftXR+ggmtAX5cd2coWpjM9ZxdiUaHpO75SNc5GOvzRC1BMEmQ/Nms4jwY1cs1lbuss4ZeaDDN2SBEK7aqkqsR5rydvBqS4NsbMzZC0NfJA41yIs9Qdr6QyZhC7Z6Uflfca8QfWio1SPO8Pcd3/Jbj8PL/APnoXXXN41tvLtVZXDoaMYDm7ecR6jdTuQnYMu/6h0yOOwmbu08U+1EJhponc2CY8YnQHq95cOMLiRNKCw560k6t9yct6Mwt5bG/fTvjedsbdqOb9Rmc+0gbb6+Tzx9D7a3lrGnRXPMzbYgOEt+i8TFjM9f7HiYDcdABj4thPCIubAmDmE0Q0T5zD8KDz8A+i54NlitE0igaM2HU2yV5LnItkyUeW8FUmYLlqv+9+neWT9VMlrUo75R8nbeTRnIg3FFwlKncrIpiOmEJ2ZoVzucPGG2i/TonI4NFwZL1OiISwW8HnSgIyrv2Tuu5jE5w0OCuEZlPgne63zuoeCcYzW7ceQ7nmlsJ0lnOIL+5TcanM5zjetflz7cIWNvRmEl6Qzon4zhh9s5InNW23Xb4A7n5yjRzeJkKfhn49L4TfPIhneDK+5gcOQLsAxvr0hrS0MfzKOnr++wbc/+yWhYy7zcGg336rNuAHi2xa5sDzL2PVT+fbITm4+s47YnCaF2F3E+HcjY380nWFEERpl5MqOD5Vd0tA+Ah7/FxkM9+gWqLPdlQdopKPBgw69ydUzGPh3HpPHgAWDBrfDa8YLl2DCYpvQhQ2fn6GFGOJekLntYwrRPhVEy1/7IhbH6LzYrXJcusONjMtQOecGb31GO1q0m7dajz29jyid81BT8OZ0wm/V0uZvz8BNe4M3b2QstTS9XiZ5POPTmfiy4jP6aBnXmjWMXfElj443cM3j5AFvhtecY/7eRf3UcZvbHd0Eh80hdGIrNz4/RutfWwl7chwOPW+fIQnFyKmrCJtlPRr02xTCbp2mzRI+m0jY71MIazrClT9KHg9T1zH2Rdve7hSfoCN4KuN/P4swRcjOTNnVYRDyLYlJ9ufqzxhAm87KLOuxyKL1xIcYOJnn6HeewfysBEINlbbJBm6yemcFFRUV7Ojln6Vg8OO+p/P5L/m4RUoMmP6UNWvFmmlURlMhkG8bCrHPTHOFfeYaXOJCoVK4jtF6aA5hq2XjeRSG28CVlcDedHR70y1HbTK/mtroQcvYtc2MXWs61ixbyPcrruw1Z7YZubLLLEIbuHJ0Crp5G9FtjrXxeG5V1tKzNgHqt/fvm8nPf8nHvMF0eZYi2Pyub7e1wlNPEfZpMecBPj9DT/5iIjs/5Zqfzb1TvJELOZuJW7+dsetNB2+d5sJ/7bHJgAujEcN/mdeF9tA8YyJxds8EfUjb6VlSxtr/tvdyANg9ktqkThIW34YaxSpoyVwKqSY/rYn8NPNB2/Wblq/bAC2pemtyQGddEYUORck5hvZumBBETFIBs8u87PEKBgUPiF2mvcyKGnTzItxMmQ4gpiy7m/3dzvucYTmbifvRRZloqbDGSPOiO9RuDfPDA6IZzD+cR3y7o5RpU+j1q3dZsO7NXo+xa9G/c70qjbx+fUck6A3i4dA+MuzlGtk+axmEP62FW+fo6tcT+VbGmrwcITj9mBdfMnk5TgQHYLeGzR9DwgYjW5216xXFrJTvs5aVTnwINJ5Rf0Zn9qZniQEufdFbwQEwcP1WENN6GzoX9GuEp9NnFA9s9uc91WQPsto/BCvoL5gfFAXbB0hdsbXkH8xv/yE/9nDTT5fYPDgKjYei2FuiaJNYwIFX4wmim1PblrJJ39dBM9i1aDFaoPtCMc+JPdgGDUJ0BAKBQOA3RHhNIBAIBH5DiI5AIBAI/IZbojNhwgRf2yEQCASC+wDh6QgEAoHAbwjREQgEAoHfEKIjEAgEAr8hREfgN+6taua7BeKBv/7G9wu+5PYq7z9WKhCo4Z9dpgcDzqpX9jvM+9dd4oJKRc1A8P2CL/kuxsBDe8QDqe4QWXSWzLhzlC5crlqawJs8UFHJgwXpfLeggYcq+v77ubeqme9iAAw8tClJ3NkKbBjA34e57NZvY3eW65Z9J4Oo1U/Bp8V8XDhP+gmQ4Ayfd4jp2YW+LXDnbabUcGcaPLRbbQLKYP7hJrKLBooHNNDsdYcNDN1dC9M2cndKH7uaUiPdXGwaz3AhOAIVhKfjDj+dLHkNauWz+yVlNBWWoV5KzN9kcG+WFi7tZ4hfywwIPOLqMoZeaua7WfsY8tkyHuhlN9+PjoBLlUJsBA4R3w2Bb5nyPN+FGnmoOhDlIASeMKS6liGhCdzrq7cjEDjB/55O8grez9VZa7+bMRwlMbPa9GIuu/XziLWcbOZA4g52qV2ftg29uVZIVz1FC99Cvru7rrSJVK2DTQqdIlUsjQ61Hokzl89GVifop28wPWU0jW+m0Wq+k//pG0xPwbKeMnzeIXQTL1D/11HoUsz1NrttrwHUagmZx9G8cJQ4yzO6T1lLecttUdrsaN3pp28wPUVe99N27cd9e13z/egI6DzHA3bXFbNSn060+eWMPPL1eaYXtjVfSC4nOzcB669C7fwkGrY8ScsS6fcNUl2Y7bK6MObvgi1GTm150lKwTNnG+r3xwF5fYNl003Ysx/aaShBQq1gXMr0Pg0ppgqt6hnYmcHd0BkM9qkMqELiPn0VnLrtzdVC3i8Q8A6Bly+G1TGu3F5xHLW0gqWgTefr1kLiDXVVv8fOqtyztOPQqazwSE3eRlcxWiEivCH0K3c8+pb7wl9zGJCJphXSaRcGcqOCgNLPxT/P4GJkgqK4pWW2W2qnYYRHJeRYB0bxwlLj8N2zfnyt73eT7MA1cv6wSrslhb2IO5skx9oKtQFgpZmUWHEiMMk2cUvvUw+Vcs5lMNcTnNkkFyDLLTJP0euYnl1FZJS3Mp2plE3ZWNflpEfaCE15LaaKp3+RysnObWEkUe0vctdf7SMJi5NSWKJtqns7tLaOyKp34tEnokrFelzWFaAx8oFoLpwyub+ReWKzKOXfI4PsfaRjy90DVuRYMBPwbXksezaPc4vxxc312A9UXbkH4aMzVdpOKnia2q57/L89aw70m7yMaGI+uF0kD9ZlRFCZ66uX4gktckE3YtztsS3BrEp8iuPNT6lUEx3vMYfTPYuCrP9t4LMY/vUMLMfzApiS0c3vdIwNG9d5aiRz22ohLGfUX1KXfxrMp+YxGNJjnz0fDNWD4zOqNKM6TXM5MrZFTJbKxqpZz0gDRk2X1ZPxJSAKZerOwPGlbPtode0v2c6pLQ+xsa9KDbrKWzrr9zr2yUePwbOv5DO691MztgmzYP94rGXCCwYt/PZ2qVq7l6nhithaqJE9nblwwtLfahMQI0ZGn15GnuHzQ3z/duOyXjLhbHQbV4yMj5gDeTJaQ7pz7impYrMu+3c2v5ZOd2TORuNZuhBlT0IHJ05lCNEZO2XypJG8pPlfRsfrH5Xu6ajnVnkC8VuGtWHBlr9nbSUdHGfUmoWo46EIUVD1TZ5Qx5HdlDDeJz3d/3yyER+CQgGSvBc1Yi95c5MlmLceEytqMwPf0tHk/O++BDiP8SLpz7k1GlF1YDPMzLL2xRkuqvolUQLmWg8NjgaU+M4qW0iZSc6tpqVKuG7lhb8lnNKalMykLrv1wEqGGSiftJc+09+GxMh74e3YfwnOC+wG/htfMobOixFdJNP8oBKfmuIHuEB3/b5Hdiq+CJm50QezkuU5b6UqbyNc3sdJXz/O0XOcWQTxsXv23W6R3D+OFSzBhMU/Mm+O03e22VgiNI3RML2zlGJ0Xuwl+6peMll2veWExkZ2fcu3z3vTpnAda2yB0Et87tLeMlnYIjZtjk0DhkORyls7QeGhFMckzNDQekkKt0o9isq46RkOXhvischd2uGlvxg4qKiqo2LnaQ1vtqc8s4lSXllR9NTqP7c2hqs5IdPJZls6AUwfVy0wDMCaRu6FGhp4RXorAd/jV06nJe4u5h9eqhM5k2WlVb/Fz4P1cmTekbAOAgdySet7PnYdeP086FAgP6Wo+hk8PoUs5SmQKwCUuvPkp41Z7uJjx+S/5uKWQJ1bnMP0p68RgzUyztrsQd5S41UctmVSWNspdEyxZbtbMs9tH06jnEDrZ9T7dXeGzt3lo1ka+m7uV4XvU06brM/czSZ9Opt78ZJHVs2nJq6RRny7zUAx8cMhAarInRuSw99AU8tOayE+zPWNdByqjciFwOE9mh4Qy89GZvRYu3aCbGIImPEtB4pt9LN9cRuVCLWH6dFL1Z4nc8iSVVe7ba/4Mow37nXpF30+exL3OczwonqcS+BC3ylVPmDCBr776qs+DrS3dxtJwpTCoZbAJBhVTarj98wge2v3jwDwgakq5vqlMm1fJYPMmq3dWsGjCJd5dsJ43vd+9B0hp0jh7bGDMPr5bk8CQ98cz9LPej/T9gi+5E1bp8AZDIAj8w6HJ03giBLrb+8fz8wIf8FkSwz6B79bUcC/QtsjQTdYCbbT4Yg0nsYBnJwBffRFgwclg/mHJy3GcwbmVu2sS4JPNfRIcMIVTY+Zzr1fhX8H9gF89HfuHPiUafPasjaA/cW9VM3c7ApPZFFl0lkzlWlCX8sFJbzCbgrc3EK+B7k+2srTguFd7dx/Zw6xqD4LK8LZ38v2CL7kzTYPY8FOghp9FRyAQCAT3M+ImRCAQCAR+Q4iOQCAQCPyGX0VnwoQJrhsJBAKBYNAiPB2BQCAQ+A0hOoL7lvdeWe7XvrzVprfXePP9CgS9RVQOFdy3PPdaOe+9spznXit3q70nbb0xnrvju9uvvJ07AtSX9yoQOEKIjsArZBR0sDE8mPFZwwNtis/oq2iY++gP47vqQ3hF9zN32XfgayJqHiNpt/d7F6LjFxRVJ108rNd7TFsKhZhe+msvujVGNk6H2q0KwXlyJu8lj6On/ggr9CG8/spMJjSf5LlDl31tkQ2uJlBn571xt6/Wv7lftXPyY47Gd3Wd2jjCc/EFGn6dkcIUzWX+z2snuZSYwss6+OxPR/hNq3dH0pU2kYqv5g45Q1lWE0rzog72GcJY5uUJRIiOX7DWdpG+OL7CQO7CVwFTtdVebf/vIUk9fLmoE8O7j9l/OVtv0MM4PxgBMI7XX5kJVeW8fNb2jNpk29uwmrtiIW+rHMdRO+VYzkREiEl/wciVmzDF043P+zu7NWwe08HGDUa21mjw5k56QnQEfWLr4utoukax3QdueH9BLaylJiTuTP7ebtdbnAmaQABQtimY5//cyvyCkWzYNNRr/QrREfSepB7mx4Dh3ZGo7qbWaqQVoEMqL33TCD03VEp+3oe4EhWl9+PoXF9wNobAfS7dMMIjN7gEnOjo4mXgipdDa4FhOG9/PIKN03vYive8nQEtOnZljBVrJc7Pm7d7L6IjOY/4EPU+7NZjkNdgMWHaOj/UcqB3FSiVm1LajeMtstajTxsvO6CsVaTWRqK7bhc/zzPVQ9beRUMolQ69nMu8bJnYjPymTGWyHP0Eb73wE0Yqj8vXfpRtjF/wetl5TqidS17Oe8kq7VRwNNE6yhAzX9OX7DO1PpR2mF+rhec8XcsR+J4T+iOcMNdLOnuS5846be41LPOFzca1yvlKXuvJdE45x5nmL1Tmm7ITD5M9/VvGJYHa4rBUvgMuHV7AejenqgEqOhnMP5xHfIhK8SwTutImUsNrKU20/WXkl2LzgUen5cGhKApLMH346azMyjFtAy9tC/9IXRGFjiZ/Wa2W7aadsiOLzpKZexZwX3ikL1AbHyQ+KfuC5JFdhHeFJ2s9+rQf8MmWV8k12ba2dBtL9evBLDzJK3g/bbxs929pd/BH5YIDZIy5A10P09vixjCO11/4CdQf4Tm9Ecui7E17wWmVrdX8Im05L2cAZec50XqeFa+dx9majiMcrfW4wlEbdxbylf+a27gSIme4WjMSDDbk89+TsvlPmuPk81Vk0Vky9dWQOJd6cqiqm0/mjCnowFr+ffYkQrtqKVWbZ2oepG3DN0RoURWd3jAwRScrnfgQI6e2qAsOyeXM1ELjIfm29ebqkbYfeGddkbXOSNVlbubadyeVJi5T3QJftySB0K5aDthUatzBqcN5xM7OoLLKHcEwl1OWf4FMXxAnY3uOli3J48Fw1CI4ALsyj6LTz0OXBZQAsT8giGbqLe+pmnrDPGLDowCr6MSGfwM83HtzRmsYjZH/e95oOmDkL5eMTInRMAs4Afxi5k8Y2XzSRkj+cPIL5r4QzTOjz3PCj2EMZ16Op+cGniciibrNRlZKT1LNa1VkK85KTOFlne2q+1eKG4VfpC3nP22cbKNdNpjrNv6z169o08nXI0VkFtpmsUUWzSdaIR7mqrGTsqC+xP41ZKCL09BY5bzER8SYu4D9us6b6xZ4XC9qYIoO4Lr4lpEO1VvwCCKTAbc8EJWSwGo1WNovq/7CQsO1KkcdE61SThkfLIE4Kpj36A+1gAEabtCNzipCzEWnhe462+sa2kdAWB8MaTXSioZ/e0IDrZKn80yMBm4abUNi42fy3ivKi43KAz7DnZRrd9dnnLVR84L6D/JQqQMsXqdjbEJRDvjDoXL+4MIa1238Z69fMdRyKjyBeK3tzbOFkAS78uUAjZb/mW5mk8uJLFlOS1a65DG5qGfWdlUkEvQBTytFllG5sIxKwOzWZh4ud6v4V2e7wUULW5S17f3Nta9t7Y1N24beJILditAaQNnVYWycfteuKJ+njNSl8J7O9ELtOR4vP9vj6aTuKk06EALhjXFFGG4gcpnKhUVwOI/Uw+VcU85DbhQmbDl+js4Zk9AlQ8tkLZ11ReoRI4CkfxHBCM55NpU5ZWDuvVbyGY1oST1cTqTa+apjNHRpiM+Sny9mZZqWzrr9jj9gl5RRf8H2Drv+jAG06azMsh6LLFpPfIiBk26vxeRwzgDRadXoXLZdzY6KCioqKtiR4YHpABiovnCLoBkr2JJsPbq2dB6xXfWWEOHaJTqCDEdJTHzV8qMUHKm7oRjpZMoaT+2QmJX4EyYYv+D118p5zvyjEJc/XLwM42fy+pOueuviphEmTPTXc0HqE39fJnJ3vRxveUTPyT53ge9ZvbO3f7dKyqhcuJ/GkAQyZXNgy/FzdIYksLTIxQBVyzlp0BCfdZaZWufzVMasb9F0PYzewXqO+T0d2DTbbesHqKeTw95Eg+R1yF1JS1aGSliM3mSD2WeuSdkgsjuJkrkUUk2+TWhMkeCQVU1+mjzUlk6+Pt2mXX1mFJQ2kaq3fXjUI5uTV/B+ro4gywEdeXodedziky0F5FZBTV4BFG0iL3cbevP6lWLnAvMaj14/z7Z/5Q4HNSOpXHyd9KQeMnY7SJt2wgn9CZ6JSeHlV37CyzZnpKe7/wBSNhAzeU+elQYqmWlGfvP+F7z1giwUp5K95i3PpK/7oKn14a6YeMP+gb/GNPAwtHfDhCBikgqYXbaJvhUyz2HvlnFk5yaQqa+W5pGq5WynnOzcPPL1efKR7RKu6g/WMjM3Aep2OLkJv0vi499g/NsjDv+23/ziEosmxBD0+Bxmc9yt9+TXctWi7PVAwLSVTvtREjOrZcfVM9hI6uHLDddpe9fzfZp+kbac/3xEKQwqGWxewtFk7u5k78lmmeB6JwRH/3dmq6Pzrt6Dp0LYP9eVBjqr2VGxiJiv3mXBOk+X371McjnZuZNocPJoR0ZBBxunD2P/vzt7Rsf0noyn2Pq8e0I6QD0dgd/JepxYoEGx7kPNSH6sveu9fZpGj+PfNNBzybsZFM4mUU92aXa3vSfJB46y2zwREG8JhRAc3zF707PEAJe+CLDgUMxK03M5Dh/psOyn6PyhUMt7qnHfcxOejsAeuzAdIAvRqdG7XaZV0loJcEqqQOBtEgs48Go8QXRzattSNgUqG072ELvzsL07u0ybPJxevCchOgKBQCDwGwMze00gEAgEAxIhOgKBQCDwG0J0BAKBQOA3hOgIBAKBwG8I0REIBAKB3xCiIxAIBAK/IURHIOg1t6n5cwf7kgJth8CWu+w78A9qerknoMC3iB0J7mdefInJKbKd5ZqOcOZXHwLPMvZgirVqgeW4wMpd9h1oRXtpNEleKm412NGVNpGKsjKvLxjKsppQ7+2SIfAq973oPP2zXawb38DOt17jo0Ab45SJhP1+HWODbY92HMnmyh970d2sVcSmRDu4/kOuLPmQK0DQb7fjWVUgT5He1yN/30lD8UWfjuQOSUWbyIsz2G5sqsLWkq9JYBSbVXdgMJdCD2ypCvcZaPa6wW4Nm8d0sHGDka01zrdyEfgXEV4bYPSc3smZJdmcWZLNhdNGwlI2EzbL836GzZjIyFunaeuNYN3vJPUwPwYMNZ7vrC3wH2WbgjHQyfyCu4E2RSBDiM4A5k7dRXrQ8D+iXbcVeI+ti6+j6RrF2x7uqi3wN8N5++MRaKb3sDXQpggsDMzwWvgrvLk4loZ31vL1tD38x1jpcM+5/8Xqv9ZZmj39s12smzTC8lp+/oUU63XwE9at3cM606umv6wi92/A479h3zPhnHlnLcXtppOP/4Z9z8B/7/o1fwJgGVvWzoe/rOLIKNl4VypZdmSf1Y7xDez8PJR1z5gLu39j228vCEqdykgauWbjrSjWY2jEsOR3dKuem0rcwamm/xu5smMjHTZ1op0zLGczcVOt9eN7TquEyGatInb9VFkdevM4ClumrmPyQTWb3SRrPfq08XaH5RVPk4o2kTcjWPXc2tJtLLXEEc11iCQaDr3KGkvY6S7jwsD4t/9h7+XINlQEQF5jSVnRUdlWUfMksugsmXHnKF14mWRLTScjp2y2opcq2caHKA2R96WsCSU754m9PiCy6CyZMzSKsZzYaz5nUKwLmd4HKptYlp14mOzp3zIuCdTipat3VrBoAlw6vID1wm31CwNTdAAYweTFe4g9979YdqTOJAYvkvP3OorbzYLTrhCH/6UcEXkAACAASURBVIc3gdV/reNPR1bxJ7y3phP1zB7WXalk2a59JlGcz5bH90niBRD8E9b99At27vo1H2ESvWdf4WkPxx0pn5xvnebCkj3csZyVJvKHT+/kjGnyH5azmbiDL5kmcetazbCczcT96CIX/kt+vftIgnMdw5KNMkFbR2yOTHhMiQo9MnusmG3xwppO8greTxsvEwf72j+S4NzgQGIBuzC3Wcv7RVKbXZmvsgt31nT+RUSIg5rxVcvZXgWu10iKWZkFBxKjTBOtJB525YdDEsjUGzm1JYq9VaaF+Kxy6qukNrrSPOKppdRUVFCaxNvsJulH6oooNE3GkUVnydRXg7nol1v2ehuzWBr4IPFJWRExF/aSQ1XdfDJnTEEHVoGePYnQrlpK1XZNrnmQtg3fEKFFVXQE/mdAh9dsPJu/XaCJEYSGASwjZdIImv5iFhyAfRw59w0jxyfwtC+MkXk2tNfScAvCR82QNWjmv2UC09j5Ta+GMa/pXDhttDs3LGcWYbdO0yybvO8Un6CDaEJf7NVwDniWiKkaOo7IvZEPaTttZOSPpjMMgImEPRMNTUd8nyAQ+wOCaKbeMmFWU2+AoPAo0+u5LJ0RTMOhHSbBkdocqLtFUNw0PMp4TvoXEX02OIe9Nl6EfRl0CVvPpv6MAUIieBSADCLDofPCMUs/LcfP0UkEkaYKq5FF84nuquWAbDJuyaukES2TZOXV/Yo2nXx9HvHt+ylUVLN0x157+zPQxWlorHLulUWMUV/XeXPdAhYsEF6OPxnAng60X6+TvdpH7q59NuejntnDvmcUF93yjS09nbKy2dRR/Fadw7be4E7xCToOphDx4h7b7LNgecjMSocPbAhL2U5YiuKg4vPt6WjC5zTcoBsduizA5OnotNBdZzt2bNo29GmKaz2tFVfzIG1eSIXSlTaRqkwLtLOljRZ5/aKSuRRahLWMlvY84uPmEEmZ5OnMnkSo8pqQBNuS7iYa+2h/rzHUcio8gXitrbdiwaW9Jm8nuZzIkuW0ZKVLHpMLD03VMxUEhAEtOq6wrM0MSj6k7fQs4iY9yxVkz9DcOt3rkJmn9Dpd20fIRaVbWVYb5dpMb3mQti6YNOYu0LuJLLLoLKlatTWcXnRmM0nb9gn4ZW3GMy5TubAI1MKJ4Ja9LcfP0TljErpkaJmspbOuyF68zCT9iwhGcM7gqIHA3wzo8Jpj9nH+CkQ98xtecNHyo+vtEBzLz8JVTnZ00mMJ2WFaN7JfrA4Ud+ou0hOVwtgXZa+DpzI+Z6KPR/6QziYIS3lJUV1UzkWMfzcycuo6i32O2v3zOrKwnDqzNx2goqKCircLmK04t3aJjiDDURITX7X82AqOFG6LTVvPWhfvrObrGxCiZW6yoxZDudwBmsf/SYbDXgx0dEH05GIXo5lILmfpDI3rdoprZmql9Z7CRPOPreC0HD9HZ0gCS4scW+qJvat3VlBRUcEOV925pIzKhftpDEkg83A5kZ7aW7WckwYN8Vlnmak1cNJhBUzImPUtmq6H0TtYzzG/pwOblN8qga8YtJ7On46sgpQ9/MfaPfyH7Lgyw42//Zr/jtnDfyzegzk4Z/GQ2l/jD+d2sc4Spmvmv9/5gtmLQ+kXnNjDtdSpaFNeovOPv6P7xB4agNj18kww8DgbTLlTASlMPphi00/3r7Ix/HY72oPbbS6VZ7DdKd7ImRdfYrJNGM4+S677V0foOJgiCwt6Zu+uzKPo9PPQ6+fZnuiqtyQE7Mp8FUq3sVS/jaWyJnYeUckODkzextLcbehzpUNKD2nDO6OYv+E6z68ZSZlq2nQZlSVziM1NJ1+fbrLFegffkldJoz6dVH0TqQAY+OCQgVSHQqdC1XIOzD5LZm4T8bm2pxrNCQFVy9lOOdm5eeTr82QtlB6Rc3stV7V3w4QgYpIKmF22ieMemGtPDnu3jCM7N4FMfbVkj9v2Qv3BWmbmJkDdDsdeDndJfPwbjH97xOHzVG9+cYlFE2IIenwOsznex/ckcAdRrlowwNGy5fBaprUfJTGzWnbcPoPNm2wt+QfpYaPYvDRAD4hmVZOfFqFIoVbLYPMmq9lRsYiYr95lwbo3vd67RySXk507iQbF+5eTUdDBxunD2P/vznYkML0n4ym2Pt9XIRW4wyANrwnue7IeJxa49rVvgvkbsn5ILdfZWHLbJ/33DimTi642rvmg99mbniUGuPRFgAWHYlaavBxHgsMaIxunQ+1W51vgWN5TjRAcfyE8HcHAJ3kF7+fqFOtLt/hkSwG5jiYlr3Cbmj/fom1rYDaVVM2AUz446Q0SCzjwajxBdHNq21I26b3bvdvIHmbtVHkQ1Mpd9h34moiax0hyuGuEycMJ9Hu6DxGiIxAIBAK/IcJrAoFAIPAbQnQEAoFA4Df8KjoitCYQCAT3N8LTEQgEAoHfEKIjEAgEAr8hREcgEAgEfkOIjqAfsZW7BV9yb0yg7RAI/EkG915q5u6UQNvhH/y+99q9Vc18FwNg4KFNSfef6v30DaanxFhff/UOH/+pnxbzGFPIE6ufIrjzU+q35+PbZ+8zuPdSOv+6tJ/hV3060KBBV9pEKj54GFQAyCqbAvZVW71JGUNOPM/tn3/JA9d+zJA+f/8zuPfSRr4LBTprGfa7ZTzgBSu9hd/n/CF7xjN802Ye6tTy3arAVy5PKtqE/vAKzwp59ZYxhTyREkPLkXl8XGj6CYjgZBCVf5SonwZgaAfcW7WR76hl2B61TUuKWalvYmWgCo95zECzd/CgK20iX7ZztZUM5h9uIr/UzZ2/gZa8J6Xdu7fU0ulNI9X4LIlhn8B3a2q418euvl+QLf0tbRrP8H4mOBCw8FoZQ04YYNQ4XG6HMIgY/mQcwZ2fcu3zQFviJlfzOV84j4997eWM2cfdGHjwRP/7AxEMLKTqqlKtHRuS5xAbAo1n+q9X+EBFJQ+i5e6CvtWO+D5Mw5C/6/vt39J9F90S9D/uzU3gXmctQz4LtCWCAU/JZzSiIXa27cQtVVU1cK7PRfx8yQaGfGLk3rTn++zt9GcGbj0dlU0elXVPkoo2kTcj2PJaXjtlbek2llo2S9SRp9eR56Afy0aDvarCmEFU/mKZu/8UuvyjZotofDON1qtzGJ2dQ/QN+fqOdCzsYjHnjx6z9MORYr79WQ7R5pI+KmtCw+cdQveU7JMxr8mY12jMx1OOEpmiaKNms4N1J80LR4mbIDtg085dezNgFOp3ZrINHgFIayLfXG5a+btQtkWtMuc5ShdeJlmfjlQtSBmnz2D+4TziQ5SGyPsqZqXlesU5T+z1AZY1CJuxnNhrPqfcJNT0PnC6qaanSGNxqIiOZNlnbLdBqavPN4KTKmUbrL/f5ZwzpJMqK+Nt2X3bUGlzne2ajZotLlArL5FVTX4atqUllN8LJ9+FB86cY8i0STAGGKRrm4ETnWttDAmdxPdj4AGPP9y57M7Vcc1J+WFJcG5wILGAXeZr9Gt5v0gSnl2Zr7LL3C7OYCn25X3KaCosowmTGEy80KdF+ciUHGlN6HNMC/2LifppGU2mkJ0kBN00vjmPVuXnejWf84VgFYR5lusc2ax54ShqVZQ1Lxwl7gefUl9oK1TTX8BGVFzZC7F8HwpDWlUmt6rlbK8C64RlKk5mRzErs+BAYpRlkpmvVg45JIFMvVRtc2+VaSE+q5z6KqmNrjSPeGopTZRe29emkex4pK6IQtNkHFl0lkx9NZiLkLllr7cxi6WBDxKflE2sLuwlh6q6+WTOmIIOrAI9e5J0g+U1wbESnZYHh6IoLME0GaezMivH9Dm5+nwvczN3EpHJgGJB/9FwDbRflorknTGQmiaF2CqrsIbWqmSCklXNUnZQmGh6jyZbsosMXhRaLIJz81AU203fBV1pE5mHy9WF5+plhpDA94/SS9HZyvcxMOR8P01OIpDhtavLeGjTdkhv5nZB7xbPYifPdXBmLktnBNNwaIdJcACqOVB3i6C4aZ4nDVQtZ3tiFIX9oNb8rU+LrRP21cv0yE+OKWTcBGg5kmYvON7EPM5f5eJZRtORSzBhMvLCy07tBRgzzguhhBz22vxuyqi/YFRpZ+vZSPH/CB4FIIPIcOi8cMzST8vxc3QSIU1yQGTRfKK7ajkgm5Ra8ippRMukQCUNaNPJ1+cR377frly1O/ba2y95BY1Vvvmud9YVWYW46jI3PbQXNITFSnbOP9xEtqy0dWe7qXaSIsRmFtEq+Q1AyVxbcak6RkOXd96jHN2SBEIN+21uPuoP1tKptu4k495oT9d1tnK3oJnbBVN4YNN4hvbjUHXgPJ0x+/huzSSG7h7fixTZatYkwm55iWKDsnIkxKZtQ5+muNQHX6z+RTff+kUZHY0zmofHgNHd3+nVy16581GtLWP3u26jRX6HXDJXuuMGoIyW9jziZWEZaR1AcU1IApn6JrvxG/tof68x1HIqPIF4ra23YsGlvSZvJ7mcyJLltGSlSx5ToNY+nNproKMLYn+YIXkvGCFuDpFAZDjcPGMWkRxZiA10cRqbmwkJZRhPwidZalpZGXALajdFVlQ9f6dsYOimDQw1ic/d9/uv8AROdB6N4F7nOR7s9R15NWsSzSIjlSbWl2IjPHZrMwI/0Mq3Hv1OG3igE+6OzmBoLws/RxadJVWrtobTi85sJj2DfdlnP6zNeMZlKhcWgVo4Edyyt+X4OTpnSHfeLZO1dNYV+aDUtZs4tVe6MYhFuiG4WbWDjuT16JIvExZipKPB2rL+jIHUtAgeTZ5DbIiRhuO264jzDyvXsqQQZawv3pMna0VjxnEPI0N7Xfp1Aw9cSu/T35Ov6b/Za4kFHKiooOLtAma7bFxNvcH+dWzaeta6uLLm6xsQomWuE1eX5HKy9Y7y/73BMb69AfxgHMMBcxJBdKjzq+y4eoyOziCiV79hE+Kyx8C3nRAZ18vUTPM4aYUmewEyiEqJ4danh1zcwykpg+tw70eJTtLnpTvc6MluPmORXM7SGc4/AbVrZmql9Z7CRPOPreC0HD9HZ0gCS4tcfW5u2puxg4qKCip2rvbMVjvKqFy4n8aQBDJl31G37a1azkmDhviss8zUGjjpYE1j9c4KKioq2NG3jF6HuGPvtXYjoeFz0MW1ca6kjMqqNmJnj8Pei/2MRrTMzJpEaNc56l081BlZtF4lgcQFDW10WsJ9mJIIbN3t+jMG0Ka7/czW95Mnca/zXC/WuQcO/Td7TX+Z1lfjCdLEszgDbG5U1MoTd9VTtNDq5ezKfBVKt7FUv42lsmbyDDYASnZwYPI2luZuQ58rHQqEh2T80zu05C+2ZLbd+rSYC2E5jPOol2O0bj/Gty8cJc6SIYciM83U7tAcwlYvZnr+Yvs2yl0TMLe7xIXCX2LkGK3bgewcWSaeZLOUaecZQ6prGbImgXtTcBASKKOyZA6xubIwheyOuCWvkkZ9Oqn6JlIBMPDBIQOpzm4klFQt58Dss2TmNhGfa3uq0ZwQULWc7ZSTnZtHvj5P1kLpETm318KlG3QTQ9CEZylIfLOPJZNz2LtlHNm5CWTqqyV73LZXWmeYmZsAdTscejmG9m6YEERMUgGzyzZxvC/mquGGvS1ft8GMBGLriqgEKPmMm/p0ortqFbkFphCbVkNnnTK0VkZlVTrxabLfj2E/HxjSmWlpY5/JGG/6blhKZZu/M5YsRQMfbKllZm6E9aKSuRRSTb48kxEceHQZfP+j/v2MjTfwa7lqG6bUcHtWm9MtGmZvOsCGaYga5vcB91Y1892oAG7ZoZb+iloGm3dZvbOCRRMu8e6C9bzpg/7dJrmc7NxJNDjd6mU1OyoWEfPVuyxYF1BrByXfL/iSO9Pa+rw92L1Vzdzt2MxDFSK8JiODe7O0cP2ykwlmNYunBYHxbxwTgjPoGbJnMw+RwJ1+sDWSFdPzHV1t9DrE7ozEAp6dAHz1RWAFh2JWmrwcZ3uLzd70LDHApS+E4HidKTXcmQYP7e77fpQPdPTvB0z97ulYNvx0shGddPcHiDuq+4yt3C2YzwO7vbHpoeeoZsB5+sCgW8ym4O0NxGug+5OtLC3weqDKPWQPLXY6exA0sYADr8YTRLeIOvgEaYPO7094L+PMnXk2UAQuvCYQCASC+47+m70mEAgEgkGHEB2BQCAQ+A2/is4/mk/7cziBQCAQ9DOEpyMQCAQCvyFER3Df8t4ry/3al7fa9PYab75fgaC39N8dCQQCH/Pca+W898pynnut3K32nrT1xnjuju9uv/J27ghQX96rQOAIIToCr5BR0MHG8GDGZw133XiA0lfRMPfRH8Z31Yfwiu5n7rLvwNdE1DxG0m7v9y5Exy8otlH3yQOHAFq2HF7LNPN+UV31PixOJ2ONkY3ToXarQnCenMl7yePoqT/CCn0Ir78ykwnNJ3nu0GVfW2SDqwnU2Xlv3O2r9W/uV+2c/Jij8V1dpzaO8Fx8gYZfZ6QwRXOZ//PaSS4lpvCyDj770xF+0+rdkXSlTaTiq7lDzlCW1YTSvKiDfYYwlnl5AhGi4xdy2JsofVGkL46vMJC78FXAXBHVZwNZSerhy0WdGN59zP7L2XqDHg+3LO0943j9lZlQVc7LZ23PqE22vQ2ruSsW8rbKcRy1U47lTESEmPQXjFy5CVM83NS837Nbw+YxHWzcYGRrjYYNXuxaiI6gT2xdfB1N1yi2+8AN7y+ohbXUhMSdyd/b7XqLM0ETCADKNgXz/J9bmV8wkg2bhnqtXyE6gt6T1MP8GDC8O1K9XFSrkVaADqnCzk0j9NwY9KVb3cKVqCi9H0fn+oKzMQTuc+mGER65wSXgREcXLwNXvBxaCwzDefvjEWyc3sNWvOftDGjRsdugUbFW4vy8tM7CoSI6kmV1M+zWW+zL2tptjijbOFHCaLdFvjtI2+hb/XSnmzD2haz16NPGyw40cyBxB7uctpGwqUekvYuGUCodejmXedkysRn5TZnaZCmFxSbIjkhrQLJScKOf4K0XfsJI82vjF7xedp4TaueSl/Nesko7FRxNtI4yxMzX9CX7TK0PpR3m12rhOU/XcgS+54T+CCfMm6CePclzZ5029xqW+cKmNo9yvpLXTjKdU85xpvkLlfmm7MTDZE//lnFJ4K3F4QEqOuYCSyrlhE3oSptIDa+lNNH2l5Ffis0HHp2WB4eiKCzB9OGnszIrRyraZSpr+0hdEYWOJn/TL+zmoSi2mwq/RRadJTP3LOC+8Fjrtjwp+4LkkV2Ed4Unaz36tB/wyZZXyTXZtrZ0G0v168EsPMkreD9tvKyYnVQO/FFFAbyMMXeg62EaVIZxDw2/zpjJ6PojPKd3UG/UJCqtsrWaX6Qt5+UMoOw8J1rPs+K18zhb03GEo7UeVzhq485CvvJfcxtXQuQMV2tGgsGGfP57Ujb/SXOcfL6KLDpLpr4aEudSTw5VdfPJnDEFHVhLu8+eRGhXLaVq80zNg7Rt+IYILfe56GSlEx9i5NQWB4W1ksuZqYXGQ/LKfDnsPTSF/DTbD7yzrsgkMEDVZW7mKjuD0Lg5RFKmWrddtySB0K5aDsgqjbbk7eDU4TxiZ2dQWeWOYBSTPEND4yH5F8j0BXEytudo2ZI8HgxHLYIDsCvzKDr9PHRZQAkQ+wOCaKbe8p6qqTfMIzY8CrCKTmz4N8DDfbZqZMw4ZunVPZJfzPwJI5tP2gjJH05+wdwXonlm9HlO+DGM4czL8fTcwPNE7D1SO09S6XUCKLIVZyWm8LLOdtX9K8WNwi/SlvOfNk620S4bzHUb/9nrV7Tp5OuRIjILbbPYIovmE60QD3NV3UlZUF9i/9pcM6qxSlnF1JaIMXcB76zrDEzRAexqotthpEP1FjyCyGTALQ+kjMqFwOE8MvVN0iG1MrPtl1V/YaHhyuIszolWlrQF8MESSHd7k+rxR3+oBQzQcINudFYRYi46LXTX2V7X0D4CwvpiiZHflB3h1xkpvPzKT3gZ1ENi42fy3iv21/oLd1Ku3V2fcdZGzQvqP8hDpQ6weJ2OsQlFOeAPh8r5gwtrXLfxn71+xVDLqfAE4rW2N88WQhKsc5WMRsv/TDezyeVEliynJStd8phK7C6xoe2qSCToA67ESkkZlQvLpHrsJrc283C5Sn1zezrbDS5a2NJ4KMrqdQWAa1/b2hubtg29SQS7FaE1gLKrw9g4/S6xfRpVvtYjPfNgCZ2Zm3j52R5PJ3VXadKBEAhvjCvCcAORy1QuLILDeaQeLueach5SuylW0HL8HJ0zJqFLhpbJWjrrihyXYk/6FxGM4JxnU5lTBubeayWf0YiW1MPlRKqdrzpGQ5eG+Cz5+WJWpmnprNvfh1r3ZdRfsL3Drj9jAG06K7OsxyKL1hMfYuCk22sxOZwzQHRaNTqXbVezo6KCiooKdmR4YDoABqov3CJoxgq2JFuPri2dR2xXvSVEuHaJjiDDURITX7X8KAVH6m4oRjqZssZTOxxh5C+XbD/fP1y8DONn8vqTrq7t4qYRJkz013NB6hN/XyZyd70cb3lEz71WbvkR+J7VO3v7d6ukjMqF+2kMSSBTNge2HD9HZ0gCS4tcDFC1nJMGDfFZZ5mpdT5PZcz6Fk3Xw+i9+IDoAPV0ctibaJC8DrkracnKUAmL0ZtsMPvMNSkbRHYnUTKXQqrJtwmNKRIcsqrJT5OH2tLJ16fbtKvPjILSJlL1tg+PemRz8grez9URZDmgI0+vI49bfLKlgNwqqMkrgKJN5OVuQ29ev1LsXGBe49Hr59n2r9zhoGYklYuvk57UQ8ZuB2nTTlGJu3OZ//OazMs5e5LnmMl78qw0UAnDGfnN+1/w1guyUJxKqM5bnklf90FT68NdMfGG/QN/jWngYWjvhglBxCQVMLtsE30rUp7D3i3jyM5NIFNfLc0jVcvZTjnZuXnk6/PkI9slXNUfrGVmbgLU7XByE36XxMe/wfi3R3rxt+0Yv5ar/kfzaR4bP7XP/Qh8iWkrnfajJGZWy46rZ7CR1MOXG67T9q5v9mnyJo4mc3cne082ywTXOyE4+r8zWx2dd/UePBXC/rmuNNBZzY6KRcR89S4L1r0ZWFOSy8nOnUSDk0c7Mgo62Dh9GPv/XexIIAgEWY8TCzQo1n2oGcmPtXd9tk+Tt3A2iXqyS7O77T1JPnCU3eaJgHhLKITg+I7Zm54lBrj0RYAFh2JWmp7LcfhIh2U/Re8KDghPR6CGXZgOkIXo1LgfdpkWCHpFYgEHXo0niG5ObVvKpkBlw8keYncetvftLtNCdAQCgUDgNwZm9ppAIBAIBiRCdAQCgUDgN9xOJBgxYoRXBvRWPwKBQCAYeAhPRyAQCAR+w6OU6W+++abPA3qjD4FAIBAMTISnIxAIBAK/IURH4BUyCjpoLrkdaDMEAv+yxkjzgR76vJ3afYTYkQCAiYT9fh1jg82vjVzZsZGOE4rjt05z4b/2cCdAVvZbLE8viwdD3cKNLUgEfUCx16FPd2/fPZLapK/ZWPIgZeLBaLcYmJ7Oiy8x+eB225/fr2JYL7sL+u06xnKaC0uyObMkmzNLNtJxAuAiHf8lHbtw2g/1W158ickHX1LsBBAo5rJbv43dWS6aJfXw5aJODO+qb4ETWXSWfEe7gfdDBpq9g4bkcrL1TTa7tVvIqiZff5b5ySrn1CiZS2FiFIWJ+2V1ZHzFUJYtHY0hppUvC+76fLTBwMAUHQAaMVhE4ggdwVOJ++2zvejnWUKjoOMvwoPpDVsXX0fTNYq3+/lmn4J+TtUxGrogenKx3SndZC10naO+33qFw3n74xFopvewNdCmDAAGsOjI+ZDOJmBUZK+9HUEvSOphfgwYanpT1kAgkGOqVWWqiGmlmEla6LxwzEsl231D2aZgDHQyX3g7LhkcazqzVvFoFPSc/tjGWxmWs5m4qdb65j2nd9JQfFH1HCnbCUsx/b/pCGd+9aEHBjzL2IMpssrNjRiW/I5uRaug325HGyU7YBpHaYv24HZVm91DKkEgr+ZpV/VTuaGnvE6O8pyseqhdPR3tXTSEUqni5ehKm0i1hNVtS+jaxtiVNYuMnJKvdcjWP1qWWPu027DQrmaRfbvIorNkztConnPfXl9g/QzkYzmzVzqH7WdleR/29VN6j1QtN/ZCESfD86yfkUqFSlef78x2tU0mpffOoSj2Hj9H54wEJmVBvfnzzppCNEZOHZddJ9u4UsLT9yu9p/h2c/0t2/cpt9H2e+HsuzCczy5Bevi/AO+Vdh6MDGDRibaZnDuOZHPlj9az0kR+HcOSjabJ/1nGHlxHbI40id8p3sgZy/EUUFzvPtL1D5/eyRm5oB18SSY85oQEdTGy2PLiS0xOQbWNe2jZcliqeZOoVukTLKJy7dCrrDFXCi3dRt5hYOFb1FS9xc+r3sIsXsjaKckYcwe6HqZB5Vx9ZhT1mCaiuHMOSuhmMP/wFM4lRrHXdERX2kRqbjUtVfJJREN8bhOddUUUZpaZBGY985PLpAk3uZzsNK1sQpAmskfsJuk2Pkh80tRvMSv1eWQXwfa8Mjft9QEmseysK6JQNtm5srclr5JGfTqxszOorDJfJ3kFjYe8JThWQmfkMdP8+Zs+36VFGW5/vtfajYSG298UkDyORzDS0IAUYstKIH5yMSCJgRRaq5WF1opZmQUHEqNMvx9JLFRLN/cRXWkTqeG1lJqLNiaXk53bxErUhaehfQQ8/i8yGC48fycM4PCaeU3nCB12554lYqqGjiPyyftD2k4bGfmj6V4NwQ3LmUXYrdM0y7yRO8Un6CCa0BdNB178D8YGG7myo7di4hlBcdNIcnDOXIpaLiS7DtbTHaJlrrsLtSZiw/v6oG8ZlQsVFQ3PqIuljWdT8hmNaAgzu3OxEYRi4JzlPUnlv62TXDHJMzSKyTiHqjojoXFzApQ0IAlpfloEp7ZEKTwAd+xVsT9rCtFdtVT5wisz7JfZaKCjDhRx0QAACHRJREFUS37Szc83fJz0/6xq8vXy0uxttFSBfYjNJKJVcjHJYa+NuNiXkPcKyeXM1Bo5VSIbq2o5Jw3q604WQu7aRBkE9gxgT8fMh7SdnkXcM6to+6NtMkCYPGRm5pYPTAieStxB+5INtmJ4nX+esGviZQzkLtzFlsNrTWWqsQ+JAWhVSlH34oNpaB+BLKbYK5QhGQl74bn5tXxSzmFvYo71ZUMbncjDMqZ1gDrbfqJtSoqb6CJAGDlV10b8DK3CW7Hiyl6zt5OcBXtLMpifrKXzwv6ArX04s7fl6zaYEcGjwKOTI+js0ki/LyII7Wrjmql5izzExhSiMfCBQkSVIS/5ON5FujGIz1UcdhBEkOwYqur5C6wMAtExeRYHZ6GZhSnVWUIZcvMZ/er5HQO5C181/V8qPW0JnVmaKEtR946yq8PYOL0Pd3ZZ1aZ1iSjrukRWtf3E5SbySU+tSJXv12Y85PhcCr+uJj8tj5VZZXa2ubY3h3OGdFInF0PyOGJDDJx0WJjL9zi1t6GNTiKAYiaFn+NAVQSZk4uJbI+A9s9k3oQUYov9YQa6cC0Y9tt4wpFFZ+3WrKSQqC/ekdFuzcwZseHfQEewCK25YACH1+R8SGeThrH/0/ysjpTNFpbi+2de7tRdpCd4KuNzJjpu9MfzdBCN1tWzRI3X6ZGH5VRZzY6KCioqKtjh8jFoA9UXbD2YXWeaQTvP9fM3NHGjC2Inz3XS/VCMdDJljeMmLV+3QcgkdG6F7opZqZIM4ArdkgRCDftNz2ZIP7aCI4XbotOqFZlRvbQ3sYADFRVUvF3AbI+tVVAyl9I6I9Fp8mdU3Le3/mAtndr5ZGclQN1+9bUcb9qrihv2Vl3mJhFEFk3hkQvHaCnZz6lwKYzW2S53HaRwWWjcemZqofFMjqMeJZLLWWrnKbuijJZ2rOE+c2JBiNzeYzR0aYjPcveZrdtMiQHDF+IBUVcMCk8HoPuD0/Ssn8r4nI9pKL5I96+yMfx2u02yAXiYDTZrFbHrpzLScsAcRjPvWACc2EMDELt+HZMPyi+WJw18yJUlTfzz9+tsw3DKLLkTe2ieMZE4WVjQs+w1+8w1aOZAoszLKdlBIuvRy7PSQCUMZyC3pJ73c2WhOGWbmpFULr5OelIPGbsdpE2XzOWDyU2kysIUljvikv2cSs6ThTCMnDpUyyNpEW6+X4n6zP1M0qeTr0+3PSHLsKrPjILSJlL1TaTKmth5RM7sNaO/TOur8QRp4lmcAcf7eGvbkvckH5Q2kZrWRPYPiyyJDW7ZW7Wck0tMGWuOvBwv26uGa3sNdHRpiJ/RxgeJkgH1F9aTOUND4yFbg8whtlAMnFR4TuaQonUcAx8cMpAqu0mwC7+ZPWCDNVvN/J0xZyl21hXxQXgeMy0XlVG5EDicZ5PJCA48ujW30RLKfvG8mkvcLlfd0tLS5x2iRbnqQUhSD19uuE7bu76pp+4atfRXUMtg8yazNx1gwzQCW/PehK60iVSU79+W/mTv4OM2NX9uJeLjH/LjTSJd2hWDJLwmCBg1I/nxu6FoF3Wwz1HKXCDImkI0ygQEb7GaxdOCwPg3jgV4ArescTgRnP5k7+DjLvsOtKK9NFoIjpsMmvCaIIDs1rB5TAcbF9+GGn/HtMuoLJlDbK4yvGa0TVDwEqt3VrBoAvDVuyxY96Z3O/cAawjJ+YOR/cXeQcuaHhIYxWax2afbiPCaQCAQCPyGR57OiBEj+jygN/oQCAQCwcBErOkIBAKBwG+47en0NbQG8Nj4qfS9F4FAIBAMVISnIxAIBAK/IURHIBAIBH5DiI5AIBAI/IYQHYFAIBD4Db8/HHpvVTPfxQAYeGhTklA9gUAguI/w+5w/ZM94hm/azEOdWr5btdXfwwsEAoEggATI0ShjyAkDjBqHy+0QBAKBQDBoENEtgUAgEPgNIToCgUAg8BuBE51rbQwJncT3YwJmgUAgEAj8TOBE5+oyHtq0HdKbuV1Qw72AGSIQCAQCfxG4ejpj9vHdmkkM3T2e4VcDZoVAIBAI/EjgPJ1HI7jXeY4HhOAIBALBfYNIJBAIBAKB3xCiIxAIBAK/IURHIBAIBH4jQKKTwb1ZWrh+mQcCY4BAIBAIAkDgNvzsrGXYng3+Hl4gEAgEAcTvojNkz3iG+3tQgUAgEPQLxJqOQCAQCPyGEB2BQCAQ+I0HHnvsMVFdQCAQCAR+QXg6AoFAIPAbQnQEAoFA4DeE6AgEAoHAb3hZdG5T8+cO9iV5t1eBQCAQDA7cF53gQt5bdJTqRUd579/mOGg0nLc/hoQNRrZ6xz6BQCAQDCI8z14b8wbV00fzSVUaebfUm2wt+QfpYaPYvHQkZV4wUiAQCASDA8/Da1cP8cmtIEYFO26y4Z1RGEOu8/yaPlgmEAgEgkGHbxIJakZSeQm0ST1k+GQAgUAgEAxEfJa9tuGLUAi5S6yvBhAIBALBgKMXonOMfxhBO86FD2MYipE7jBOZbAKBQCAw0StPZ/cn85h7ebKLTDaAb4jQ9tIygUAgEAw6elXaYM20oyzhHea++0sXLUfQZujNCAKBQCAYjPTC05nDYxowXHaRDK29i4ZhXK7pnWECgUAgGHz4LJFg60864dJwRG1QgUAgEJjxkejcZkoMGL4QNUIFAoFAYMUnorO1pBVt1yje3u2L3gUCgUAwUPFcdMakMS24m+sOtsDJKOggPSaU/WILHIFAIBAocD97LbiQ95KfIggwfDzPwb5rt3l+OtRu1Yi1HIFAIBDYIcpVCwQCgcBviCJuAoFAIPAbQnQEAoFA4DeE6AgEAoHAbwjREQgEAoHfEKIjEAgEAr8hREcgEAgEfkOIjkAgEAj8hhAdgUAgEPgNIToCgUAg8BtCdAQCgUDgN/5/fquUUkySKLMAAAAASUVORK5CYII=;" parent="1" vertex="1">
                    <mxGeometry x="75" y="250" width="413" height="204" as="geometry"/>
                </mxCell>
                <mxCell id="7" value="这里就在&lt;span style=&quot;font-family: &amp;#34;consolas&amp;#34; , &amp;#34;courier new&amp;#34; , monospace ; font-size: 16px ; text-align: left ; color: rgb(86 , 156 , 214)&quot;&gt;get&lt;/span&gt;&lt;span style=&quot;color: rgb(212 , 212 , 212) ; font-family: &amp;#34;consolas&amp;#34; , &amp;#34;courier new&amp;#34; , monospace ; font-size: 16px ; text-align: left&quot;&gt;&amp;nbsp;&lt;/span&gt;&lt;span style=&quot;font-family: &amp;#34;consolas&amp;#34; , &amp;#34;courier new&amp;#34; , monospace ; font-size: 16px ; text-align: left ; color: rgb(156 , 220 , 254)&quot;&gt;name&lt;/span&gt;&lt;span style=&quot;color: rgb(212 , 212 , 212) ; font-family: &amp;#34;consolas&amp;#34; , &amp;#34;courier new&amp;#34; , monospace ; font-size: 16px ; text-align: left&quot;&gt;() {&lt;/span&gt;&lt;div style=&quot;color: rgb(212 , 212 , 212) ; font-family: &amp;#34;consolas&amp;#34; , &amp;#34;courier new&amp;#34; , monospace ; font-size: 16px ; text-align: left&quot;&gt;&amp;nbsp; &amp;nbsp;&amp;nbsp;&lt;span style=&quot;color: rgb(156 , 220 , 254)&quot;&gt;console&lt;/span&gt;.&lt;span style=&quot;color: rgb(220 , 220 , 170)&quot;&gt;log&lt;/span&gt;(&lt;span style=&quot;color: rgb(206 , 145 , 120)&quot;&gt;&quot;目前的this 指向&quot;&lt;/span&gt;,&lt;span style=&quot;color: rgb(86 , 156 , 214)&quot;&gt;this&lt;/span&gt;);&lt;/div&gt;&lt;div style=&quot;color: rgb(212 , 212 , 212) ; font-family: &amp;#34;consolas&amp;#34; , &amp;#34;courier new&amp;#34; , monospace ; font-size: 16px ; text-align: left&quot;&gt;&amp;nbsp; &amp;nbsp;&amp;nbsp;&lt;span style=&quot;color: rgb(197 , 134 , 192)&quot;&gt;return&lt;/span&gt;&amp;nbsp;&lt;span style=&quot;color: rgb(86 , 156 , 214)&quot;&gt;this&lt;/span&gt;.&lt;span style=&quot;color: rgb(156 , 220 , 254)&quot;&gt;_name&lt;/span&gt;&lt;/div&gt;&lt;span style=&quot;color: rgb(212 , 212 , 212) ; font-family: &amp;#34;consolas&amp;#34; , &amp;#34;courier new&amp;#34; , monospace ; font-size: 16px ; text-align: left&quot;&gt;&amp;nbsp; },这段函数里&lt;/span&gt;绕过了&amp;nbsp;objProxy&amp;nbsp;取值，使得代理不生效" style="text;html=1;align=center;verticalAlign=middle;resizable=0;points=[];autosize=1;strokeColor=none;fillColor=none;" parent="1" vertex="1">
                    <mxGeometry x="109" y="740" width="360" height="60" as="geometry"/>
                </mxCell>
                <mxCell id="8" value="加&lt;span style=&quot;color: rgb(156 , 220 , 254) ; background-color: rgb(30 , 30 , 30) ; font-family: &amp;#34;consolas&amp;#34; , &amp;#34;courier new&amp;#34; , monospace ; font-size: 16px&quot;&gt;receiver前&lt;/span&gt;" style="text;html=1;align=center;verticalAlign=middle;resizable=0;points=[];autosize=1;strokeColor=none;fillColor=none;" parent="1" vertex="1">
                    <mxGeometry x="75" y="200" width="110" height="20" as="geometry"/>
                </mxCell>
                <mxCell id="9" value="加&lt;span style=&quot;color: rgb(156 , 220 , 254) ; background-color: rgb(30 , 30 , 30) ; font-family: &amp;#34;consolas&amp;#34; , &amp;#34;courier new&amp;#34; , monospace ; font-size: 16px&quot;&gt;receiver后&lt;/span&gt;" style="text;html=1;align=center;verticalAlign=middle;resizable=0;points=[];autosize=1;strokeColor=none;fillColor=none;" parent="1" vertex="1">
                    <mxGeometry x="760" y="200" width="110" height="20" as="geometry"/>
                </mxCell>
                <mxCell id="12" value="" style="shape=image;verticalLabelPosition=bottom;labelBackgroundColor=#ffffff;verticalAlign=top;aspect=fixed;imageAspect=0;image=data:image/png,iVBORw0KGgoAAAANSUhEUgAAAfcAAAD5CAYAAAA6CHzjAAAgAElEQVR4nOyde1RU5733P+eNK5M3yEwGZTQ5M16Y8VIHvEB76tAEUUBJoiWeZKRGQ04wXmO6Yk0jTjWUpB2HNF7OqVETKzmh0hyhqRJjiqABTMvYk4KiYr0wIEKtzkQJg+aVrp513j/2XGEGBhUv5PmsxVrs57Z/+zL7+/x+z7P380+Pz3zqfxEIBAKBQNBv+KcRI3VC3AUCgUAg6Ef8nzttgEAgEAgEgluLEHeBQCAQCPoZQtwFAoFAIOhnCHEXCAQCgaCfIcRdIBAIBIJ+xj0p7vd/r5qYZ/O5/04bIhAIBHeSafkkvZ2P6k7bIbjrGNCnrX+rhJgELZcPjeLCXwDMPLI4Fue7qVzt0x2Hzv3fq0bDFmx/3NHH9W/hsY/eyOS5cDxnBdcCZIfN3UcM+Rz+cFennNeIeTuaS69mYL9ZGzqhermSIXVTOP5ZT7a+RszbT6LiKrb3nuTcGXfBdEZkL0MbLm3ZP3W35S7vS+e6gfBtL5Ty3uOIGd7Zhh4YvZHJi2IJo4njIZ1b/2P129e0fJKeGO7NaK/hsOfcdXNModjQ+Vr47st3P51sCOk8ePbvJtRzcXvwva69uR9A+j1NjhsobTTt4+Avm3yuw606zlB+m7f699t3z4OenlFBnxfB8Lknr1VvCfBsE3Smb8UdoN3J/40yw19Mt6zJv/8xjuN/vGXNCW6W0RuJiqgJ+ENVzYjl2udTpB/46I1MXjSIhlf3wdtT/AtOe5KhZ7Zw8MNdrh9yPqrPMrDzFsdffcunoPRA+rqHB7Pq5WXe9kZvZPKifL7u4SEmdYr2cfDVt1z72ceIlh5EYFo+SY9d5vB7NcQsGtS9UX50IzBN+zj4y7e6JAc9phBt8LsWpDPiMTj+6hTsrk5DzNx06aH5WQYH3dfStR/pWvSATwdB9XIlMS+/FvA47hTuTkrY3H1MnrsRRxDh8ec1ouIuc/zVJ/2O/1zOLs657sXbRdjcKYRV5/tfB99r1Z9xHaf0GxWEQt+Le9t+LjGDQZEmLjt80iPz0f6rgQddm1+fsEjeb2Q+2n9VccnHwx345FnkDaO48Bczjyw2Mgig3crp32Twd0+DCxj0bBaP+HhDtBRxfJ+JgU+eZaTanWij8d1UrvrtP4uY6CzAyYXfxbns9G/PG33AE5Fw8/WJ7k+B7/4HLT7rZ1vn/XjOQwhEvlzJ5OHg8R78vKdlJMUtwy0iX8/wei6qtyulf1wiEjZ3H1GcISzOVbezuLjavRbEg/MXDfzq+Yn+mRUcfhXgNYZ0LvtZBoc9/5/A/kTgh2bAB1wXXmPI8CYafunq3asHEcZwhkwDe9AHYTqRo8H2oeu4Rz9MGAMJi0vn3JluvAT3w3X0xsD5PZy70OnumHqwwWWHfwdsF+dydnn+d5zJYGigeupBhLVfDkEE/bHXNcFjD0v309x9xHCGa3GxUgQmaJTA7QW7IhRX3PehFL0Jq97CcTKYPLjSe396Ooyhe5/Xqs9wLW4QYeDT6XT/bjp54qMf7v3xB4uI0CkK4MoLezn4b9OL1MloeNV9zdKDRw9Gb2TyDLgYERsgv3PUqIlLvvW6nIfg1yIU77nLM8r33AyvJOkJbx4vVzKEJlTDh3Otuka6XzqdP0Ho9L24A1cbHAwZvcBf3B0Z2N51byxg0LPLGHRmB5cdGVxqOYv8W3DVFcqXq2049wGYuPCuiQuR+WhT/Pdx//eW8UhbEcd/Y/J2EPZJ0YKr+0Zx3F3wWyXEPGnm+D5p/8HC6gOfzEJ2ZBTHPcMJ1Qz6Mo7L5KNNgMZ3R3EVd/0ejn/fKI4HCcsPfDKLh5osHP/jDjxCf2WHtyMRjPBYyYv75S5UL1cSNTcd+4eSeAYMy5+ZwsFuwnCquEH+Xty0t0IUI0l0Lv2ya05Y3Gg4k9/7H+a0aFTtl2kIsC//B1wQfB7IYXP3MXn0GWxNwwnvttJwwsMvc+kMrocz2KqvBha8W8JAtIsq0UIXAWD4kyS9/STgExK/oWPy0v21SCdy9ECufe49r14RuortvYxeX0OVfjjXzuyT7AXC4gbR8OoUjiN59VHT4HjLRiY/4Y4eIJ337I0czlnBuRwgO4MRo9/CETfFR0yGY387GhVgdx9Xj529rucirKnSVec1YhZJtvnb8DeifIaDJr9dSUjh/NEbmfzYZQ6/muG9Vu4IxrR8Jo8+w+FX/cXq2i+7/20C0m+i6YT3OebqnAWNHgyPJfzTKRz8DJ/nwy7/6I9f3WDnobtr0QMBn1EZHps6h+VVgCriMoc/hclPjObie/tgUbS3EyboFbdF3PlLEV89a2TgH2t8En28cACcXHD9d7XBxsgoMxf+YoJvxTKopcaTdyPc/71qxkTLvQktNcELu2yTq2GQ+iyDEvztu3+0Hk5suUVzBhYgUzj56r/dHYsdtDct46GIBUAP3nt7DcddP7BrX968Ndeq97keKi4vbkg64PoBezzurgT3pEMU4s6M3sjkJwYFFJSwuVNQNVX6POC6J2zuPmIGV3Iw5y1UL1eGJoTuEPerK2DuvpsX94Dnzv1gllC9XOkVgC4hcdfQwM0cUw/XQvWyyzPzedBe+/BJDn7otYFQxqjDY10iiOR5+giA9/4C+y/dAjKIsKYT3nvHFbGRHua7OPfhZCYvqkTbXsNhT5ThLS41VboiFulEjr5MQ453P35j6506TaonXJ5iew2Hc1xe8bRoVAz3eswA7ZfBPRzUw9hxZ8LiRhMWPtB7HgCaXPvXD8f+ee87StIQyiBvVCkU2mtocF1P7/OhU/THl6DnAQh6LXq2obfPKPvnK7hGPjRVcu4MIgR/E9wecXeJ1uBveVMGPmlkkF9oepk38y9FXJhkZCBAVCQX/rvn8fq/X3FAtJGYxUZACqNfBYjMRxMNF343SoocfKuEmKhQbHaF7zul3j86lLr3NmGDB8KXoZQMLhqhhc874RPC7iokrxEVB7b3QnjAnfkb18KfJGawO5SYzoMRPVVqor39SWIe8xk3Dvk83Bz2uibQB8g4c5iL7a4b7oaOSaK7a6F6uZKYCB+xC2hDLOFqoCdx74sQalMT9k7Had9fQ9SM16DlYcLP7PN0fEDqOBwM0pQUBZHCyp75BRB0jsONcssnfE17Eu2VSg6GOAHwhunpPAS4FoK7l9v2Ktzf/7gfomL90r7+yib98y2j/1g5O2hvikT+LTNyRR3tDnpkYJQ0K//4u9Kff1jbQYd7HH2StkvdBx/qnGbC2aJlyPcWdD2OKw4eHD5Feg0vMh+Nb0SgRyKRRfpu76CjTc5Do937MTM4Ws7/u3JjM/d9CRs8PEjOIB7stoPyGkOGX+Vitc/DafRGJr9dScy0TkVdocKuoiGNX/u10SOvEdPN2LTbaw/kPaperuz0OtBbXGoCe53bO3sSbXgTl3zaDZu7j6S39zHCcy524ThzlWtnDnvGYaOCnIfJc9NDP6xg585DOiMeG861L5u6Zk17Em34ZdfkwZ6PKVj7wa5F2Nx9LmHvRpBHT2ZoSPu5AVouc214tOe6hc2dgsozvv0aMYtGc3F/Bg1nRjP55de89c4c5mJENCPiBtHeq3sM4C0aqq8SFucKuX92AvvwKT73wc1xrfoMxHV+u8OV9+VVVI9t9HmjoDOBf5sq/XDvdb8pmmhvl+ZpAKhe9rGz2/PQzbUg0G8pNMKG9OJ3JOg1t8lzBzDh5CwjseEErv63lSH/6prI1mLlQruf6vH3M3X83381wgmLd9Jcp0l4Yxaf9UxMu9pgY2SCbxjdPQlOGsMfufgs4OTCCRs85LOfP+7n8mK3x++dUHd1XxHyxe6Jdngn8P2liAuTsqR9t1tpPOHsOjksyPF/eWIGY/71LI+A1+5O+/n6hAVbT+PtPXDtw0rsb7vHbX3HCd+ioXqKFF4Dv556WJx7Ap7k4fT8mlA3ocKgnob/a20qT5hvBWHuB407dIqvB9QLr92F/Zf7GPK2uy3pHPQURbj2YT4Xs5eR9HYvzkOnV8Bi3q4MwRP0Pw++np7fhKtOE6WCHlN3NgS7FqM3EhM3EPAJpbv2d60bG24pZ1ZwvHpfp/2v4BrpjMh2TaA7A5zJx5a9jKSXcZ1Xaeho8ugzHP6w97u99mE+ttHLXKH9tzj+aTRJ7t8EoXjene7jtyu9UYsux+SdN3Htwyc5/nKlN88v0hHktxn0TZRubAhq9y7Off4kSa7fmP3TfdiHu8fcg50HergWN4Z9fw1Ri9zPHNeEum7w/11I9UJ+VfUbSj9Z8tUV1i+L80zau/971Yx5aL8r7C/ojuDvxXfDtHyS9CcC/MDTGZGdAR+G/h6xoK/ov9ei1+9J36N8U45TcOvpJ+IeYNJcl1fl+gdK7URil/77LWvv4KtT/MQ9yXdCjUBwF3Hw1SmeCXNu71rcr99s/vjzdK63XrzTZtyV9BtxFwgEAoFAIHFPflteIBAIBAJBcIS4CwQCgUDQzxjwyMNiPSGBQCAQCPoTAy787W5Zt0kgEAgEAsGtQITlBQKBQCDoZwhxFwgEAoGgnyHEXSAQCASCfsY9Lu5GLMWFWB4Nlq8m3jCuU9osLIWFWGYHrrF8a4C82WY+2rosQOlxpD+T2CltOjkFhVie6VpasyibnHnqrhkCgUAgENxC7nFxL8Lxj3HE/8AQOHvSfFZuLeRQ3jKfRbdUaEZr0SgDV2keoCY+qVN7SjU6XQBRTprPi2+up2CRb14pLWiZNmNWl+JymZrH1xTzUVYiOcUnOHW869+h7fN7OGaBQCAQCLrnrv1CnaXsLHE1o0hZ5ZOYW0Kjseuqbl1wWjFPzGA7wPBZbHp3HfoLpTgfGYccGaooNfzVhr0DwEZx6ktsBnKKT5A+Wobsvg6aKy1UjcjmqaEdMEBK6+gAZDKad3vt0izK55MVCqqscqZ+x7X4jW95wH7YQsLCneiTZqEZb8Q0o4X1v7BCpwXl9PN/Svr1LUyYd/OrwgkEAoHgm8ttXBXuFrAqlZFusc8toVZd1I0QGrDkL8X5QQavLD6CBg362MHI0JORbYT975B/GqCdeleN7LRosjFgKdvMqJMVMGI+e2JSycrMp3ZuCxNSbBRUz8ex17uX5vdMvP43HcV7KwAzZUfVFMa4OhadeC5rA3E1o0hYbCA1djAyT0479bsrUD3z05s9Q4JbzMy02QwfMYJPivfQdK4xxFpRpK9+gYmeZYyvcjQvl1313dW5E0xhqTmZYXetfb0nIXkmK2Od7HnrEO/3VHhCAsVjGkkrbO79jiYkUDxDTnX+J7zh+bS597qfL13L1oreNysQ3Cr6Xty7eNtOqn4Wx7w8yTtPd2U5rRZJqH3La8/SaASwsSsqlSyfVtIi5PBAJGmz/cPfzvq9lB8HaONIiwLT5iriPjDxtKWC5iYAFXOyAfteind3NVezJovH2c8rv4MZT8hQzJ5FmuoBGKAg7QcdVLyzgao/AGTzyXEjOqB+TzTFHsF/gMjZs0hzbXVcPEKJtcV/J0lLyc2KReby7GVhLezaXYEt1HPaD7GUVaOxO4g3SNfecz+wgIKjWcS7oxyeqIyZsoZYsGnRaZ1UWaW6nnqZ+dSuMbiCI13vn1AZP3ESADPTnuLY0aN8XlnecyVdHNrwZkpN71EOaI2reNFo5M/riu6iaxxF+upkKF3L6n4kQtoIBZyr7VnYgYRIOdeuOG9oPwmRcmg7R4XfmiUN7Fq3ll2Ji1g3dgpUiEVtBHeOPhZ3M2XGSKp+Nsoj5o/btzAvDxYWVPO43cLIFO8DvCx3Byku7zxgWN4H1YMyZA8nsnyxd0Kb4p+1tH26l/JVACfZZUqjqu4dts6YR15JFhoAZKgelMNzJZTNcVVs/JiUpVsgyUzevHHYrXZyP8zmxDU18eYNpNJBxz8gN3s6MmcFr+TtpY4cZsbksLCgmjn3u9oZ/gAy+SQy3nBN4pPJ6PjCQok1QHSh6WPGpphcx268+VN9zyMnXl+HOSqV7Zn51K4xYmEHWexg3kTv+VtYUM3yggVsnwegRWW3sIss0vV1mIvAFKsFzJStUfH7qFGSoOeW0Hg0H9vEwBGVUFA8pOSxxKmMnziRnR+8T9tXXwUvrFYS3t7KedemzdEKOun/qUveZOypAzA9mWEA7cf4lVv0ExexbrrGVcvbOZi65E0Ml9/HXNSAx9s+f4DVB1SYMpVYXeXQGf23u0VDRHgzp0ISdi0//+0cONCA/ukJDASwlZG8xL2XqWwrS3EfInCeopQyhv02BU4q+a4hnHprLUMNExjoqafl579dwHcVUo2r1h089bq366M1ruJFXYP33ISEAo0SGg43e7ZfX/wYFPt61xo2vjaSY28dgggFl65o+M1rMwkDrtV8wrMH2iTvP6LW49F33gapE3HN1syhAFZMHavh/Kn3QrZaIOgL7tCEugUk6uXIDVk0NpylscHHMwsJA7EaGXVFqaSkev8+uwj8j3/J5j/sxPyLUurqTlJXd5J65Mi/PEJ5zUlPWl2DA4YvoOCt76P6ugNdYixn/7MU5DaqrA4c1hzGxkSTbXXgqCulOJhZSYNRtJSSGRPN2Jho1n/hxN5y4+PnlrKzrvNzlsaj+Sz05Jgpa/Dm1RYs8OQsLKj21mkowRJKe5n51Pq0V5bbdzZ0R/1+l/jmteD73URfG0wG3xvFxu9dwzKeugC5sejQku62IZR5GiGieEjJ/Odf6LaMNlJJe321S5SmsHS6hvPWImxEoVLCsOljOGVay2rTAc6HKyWRT1zEuulQalrLatNafnVEicEYBUD5tgO06uLQ+nrb2yqh3k4rSlRuVVUrCT9/OgRhBxLHMMynA9Iz4Xz3aSW/TzGRnFvL1cEqpgFuYecjE8nuvLZWzjKMQYphfFd1GLO1HZ1Bye9za7kqnSGps7DNW4dx33a1JzFs0MCQLfPSxhvvFrCi1jfNSfNFeGHOPDZOcBe7gs3VEYjSwra3Ckjb30xYhHRvHXI4QakgwVVcG6Gg4bR/6P79wgKePdAWwIYoVMqrXGkJkCUQ3Eb62HO3YXfKiV9zlsY1SCFVl6fuG57vNY8a0UfaKNnYOcOJvdO4oWZZNnn6CsbO/BEMX8FHn0DVxjlYx5fz4oAcUpa7XJeYZTgqNrJ56DKeo4ZRC5ZxXdZBVc5+7MULsCRpiY518tnyooAmxScl0qxTIXOepMqVJn9AFrCslKlj0/oNQDiq+yDQqF9WyqggoWQTKVGmgDnb58UF9U6DtpeXwYQg1+FW29BrcktI13rD6gsLqlkeSj1bESNTAtvX1wwbNJDwYS+wToro+4y/aogIv8rRPLdnXclWUyUQRbpBydG8XI8w2xythI/VAA1AJaX1RqYveQFl/fuYPd52JafOJzNWDdS72ijqIRSsM2LKHE/4+QOsXhdq2HgYgxRQ/9E23gXQKRn45Wk+A1gyBp2tjORtUslpCVEM/PIwnwFzaOdPvy1n1DMp1H+0jrMJq3nc/mdYksJ3FeGwysyBVQDt/Cl3ndSei/Jta0PrpHSLHCVXqEBDorKNIZEKmDCSqNZGDg3VsETRRnX+CQ7hCrO7qW2kYcZItMChodGkKGvZVhtsH51pYFdRA6bMNzEdcUdbBILbT9967plTiMaKOWoUI6NGMdITFt1BRR3EzzV3W12lXhAgVc3KFVNQfPEx/rXno4noXNbAyn9RU3dQ8h0Xvjkf3ZmdZOXBrr1WSMpma5Kr6PEtvLJS8gI7Whby9C/qecBp4+OmHNYflPHU1vnID1rI+kNXi2Qj89m6fhmW8Wqa63Z60iPlQcS9tYX6Vjl6/Tj0eg381Ybo6HeD0+7ygs3MMYQQ4llVQ712BgWZt96Utq9a2flBdyO6kud2NE/ywFebfCZW6VQo2xv4c5eJaxoiwlv9OqZSaLfS0+a3deNRKpuxHfEXi/OXr6KMjILEZLT1RT1Piqsvwmx6n6PKyaTreijrJlnF0LZaCt0C/oiSq/bzXf4HLUnjwqk/Wi7VsR3mJwemMkl7niPbYJQqnIsXbFId6w7Ja08xkZyyjp8cCNGWG0CbPBIOn4MIOS+M0Uhe+JAIws7VesL1/t65k9Y2OZqh8ELCCE4VnwgYfg+IzojJCLtMa4WwC+4ofSvueZWcwICpoWtod/u8LVRFGoOGb7M+tIInbO/OU5Ox+dcsHFHH5rX+4W79M7Fowp04DvokPpNJ/OCTlG9Uk7amkOXf6aC+WcPK9RvYNE+HrENNapaZ+ACmp86O5XrNTppnZbH80UjsDQ5USVlset73ozhqIgfK0IxWsOe/rhOttVG+xSXTMcsYFenEfjpA47tNPJ3qO6QgvYonCMCqIqo891AsdmsoE6BMpBQ5pIhRgGGDG+XzinLe+feN3Y+3BxBqD2ol4a32IGPIPuH1xEVMH+YdD5+65AW09e9jXneaCKMR30EGm6OV8EHJLB17uu/ERKdk4Jd2j2ftFunOLN7mHUOflhAF9vOujkErZ9EybHA7l13nZaBqWNDdaY2rWGdexNSbtXuogiGtEYyPaOSN2jYuKSeQMqKZY7WdJ9Mp0CjbaL3krthGc6sCZUIC40/7jtf3jHZSFHiGZASCO0ffhuVzjcQ7ihg50R0eNVPWMIPETNie5z9RqgsBQsXpWwvJMTjIX5nB9iYpTZNdzKHnx9FxzYm9cgvrm9yl1eT8m4HrlcvZTAvLo+TYm5zIx6qR17XgbG2h5tMWnE/M4KWlJqq2+uwobAPP6R04WjZzaIaT8i1zePqXJ9E/v4FNK4o5ZdzJszNzqKEFq3Unjh/aMBRmY/94OeYmSM+rwmKQ43RUsjmUYYcfF1KbOQn5fQ7KLd/Md9yzUkb5bJlIiXL/H/w+8ZTx1E1lpDvT97XJm+DY0SO9exXONZZdGiBLG6mk/XKgAZhKtpaOYV3mm0wEvJPpfCbPuYT7CsmkG6u9Qt7SSvt0JadMvZiZrYtDS0PIr74tnjiMq/Yy91H4ifRnhxr44aoFHCiDq9Yy/jR4MtTDqInhXDxqA12KK4Q/jDmKVo4cgM8OFJL02wUcKEtxtXmeohRXyP9WM0JOa34zoAGFgkv7P+F94IUIBZdOu8fM5SgVTo75iLjtShtPRTSSFnI4XmLYoIG0nhIeu+DO08cfsTFT1mDEN/pXXxR8BnzPjEMfc5K64yEWHz4OPSepawpeJD4pkeaDFZ4xb41hOrqrpdgZh2KElra9e6nzq6FGHwN1xzsF0oer0TS1BBw779nOm6gr+EYjzb7v5TvViYtYN/a0NClPEADvjPpQXqnzMoWl5jGcCultBYGgb7lrv1AnEAiCcbMfS/H/eI0jYzUmQ3iActJEt74cD7+rGBrNbzImEEZzaB/B8SA+XiO4+xDiLhAIBAJBP+MeXzhGIBAIBAJBZ4S4CwQCgUDQzxDiLhAIBAJBP2PAIw+r7rQNAoFAIBAIbiEDLvzN3nMpgUAgEAgE9wwiLC8QCAQCQT9DiLtAIBAIBP0MIe4CgUAgEPQz7k5xn5TFRyXvkO6TtDC/nEObjAGLLy8o56OsST5lqyjbNL2PjbwJXn6Hsq3LAFi+tRDL7FArGthUcuLuPjaBQCAQ3HH6eD13CPR9eT+cVsyupWA1hunEDpUBTtoenMJLm+ZzvbIN5Kk8N7mDmtevkzZ7FtBO/e4K1zffF2DQR8LhI64GjRjGQLMl0NIdN8oCCo5mEV1nYcK8W7Cwi1qLTictWqHWadF8AfqkZcyZPZn4WD2aB21snziH9QAxiaTpXJ8GlX+f+NFOThTKXOfBhdNG8cGTN2+XQCAQCPoFt0HcAWzsikolq3NyZj61P/Ruxs56keWxrvW6v26hY+x8lo+VNjsaQP9vL6F3tVe8u4K6N4s59ZQWWZiMjkUnOGW0Yi5SEB8ZCW+c4NQbAA6q3p5K5gdSOwsLqlnOlk4ibaasIZbqQDbeYtJ/vAGDTg5yHZvWr0COnPgfn+A3DhsnjtVQvNbCZmUiK2epYW8LzM9i02w1HR2uBq5B/Ip13mVqB8iQtRRRfNAUZI8CgUAg+KZxm8RdhmL2LNI6J6seAK57NotNc6hPmoVO7i3ScfEIJVb3CmzL2Jov59cZFqoA7pfRcWYnq3bWAamszI5kxvfH0VyUQcoqK5LHvQzZfTdrfw/L094UHdR9kMpMi3eVualbf0VGmJP1e3dKCU0fMzYliHjnltAYe+N7n5k2u3dLmoK0qth0jXf7/IG7coUxrXEVL04aeNfa12smJFA8Q051fihrjCt4ffFjUNy79ci9dWcS13qItELvWoVTl7zJ9GHQfuT9vls7XiAQ3BJuk7irmfrGOqZ22bsMWYfVL+m5rA08PsCGvQOQq1E1bqTkW1OondvChBTQjVejB0ncAa47KN69FzCwPFuNs76UZpsWDVb/JVQz86ldY0DqN2TR2JAFOKn6WRzzXGuuawqqaTTI/dNzS2g0agFwWjuH5f2HHLrmd2XXL37ErtwS0uT1vLJyI/FrDGz6QQmn5vkU+nsLJe/s7FRzGVtLvu+/fO6+VJZ2u7eeGT9RmqswM+0pjh09yueVPS9WOXWsxucBL60wtjSx8u5aDStxES/qGviVqQjbnbblFpEQKYe2c1SEJNZd1ygPHTlKBTQc9l+EuHzbWsp1RkxGaT34/nJeBYL+yG0Ly++J6TksL+Gkfv875J8Gkn7EG8re7KeNGksdib9bwaawCp7e6JOVl8GEvGBheQAt8aoiRkaZWFhQjWmuGfJMsCqVkavc9fxZWDADldXCyF6Ow+sHyGBoIv99KJ/8nF/z87pOBTq+pObTzrXU6IY6Kc/5NXWAfv5Pmaru1W67RfGQkscSpzJ+4kR2fvA+bV99FaRkFColtJ5ye27NXGmHCACdEZMRrPVRTJ80EPBdAtO9zCj+6TojpkwlVtca2JK3DUfzDhOROZkrebnsqnfX993uHm2kkvb6A6EJ0JIlHJh4miJSkPpxvkudarMsd4EAACAASURBVPn5bxfwXYW7sCtPt4Q9j7Ry0TABXVstf/pyAt/V+tRbsoQDT3uOlqKUbbzrbkJnxJQZhS3EY/EcU4SCa7ZmDrkTJiRQPKbRz7tOSJ7JEj7n2RMKhrRdQTNnHsUjAPcypkOj+U1GBGXuJU07bwMMVTCEZspqA9gwKQrq+0+HSSDor9wmcZczav0GNnVOVqqQ0fkLeXJ0M15ieSIgj4QeIsXy76zg1PEVAMj+pwaadpC1cwZlz5tZuLES6KCjNRQbbexyhb63tzgwhfBV3u0tDkzGLBrLtIwMFjb3I5uPjhvRy2TQamX7KhPaN8pZ6I5USEeEZmg96z+1sr1L/es4du+lGFA989NQDqrXKB5SMv/5F3jn3zcGKaEhIryZUy4vXWs0MpFj/KoCSFQSHq7BwPusNjWgNa4iPTIK0LDUnAyla1ntFnSjEW1FEbb6InYdWcX0RCjH19uOIr09mQg1UA/oVCjbGygNSQyj+LZuIK3WXoSOtSk8bt1B8hIbi7eZmaQDDkjCrj+5g+TXbcBUtpWN4fwBmJagZKBByeXcMliVgv7kDoqYI3VeXJ2F5JRtAFJ7S4Btrn2plQRaPb0n3i8s6LLG+LUrTkmg02DbuycAuORogyETCFNoUB4uIK1QCtFrhgIX27jECNf/wJAIws41+rd78QTPvhXYhmGDBvp07AQCwd3KbRN3jX4c8s7JssgA4t47z935xUaXF26m7KjkyjZv3MieR7PQz5Las+++FccQAJdXT24JjQ1nwVbUg8jv4PVnd1A3/1c0xraw3dqCxfd4AWnuQLBH/wNEuuYuRD5wKw+kF+hUKNEw3fwm0wHaj/GrdZInp41UwvkDnvFYW1EuZqQOgPLI+5jdYft6O63hYxgG2ABb0WGuLFmEaRiUesLoDfy5/qqrc9DA1OTxtFrX9ugxSuPCVzmat5atIXrF0x5RQlst//G6DdAybHA7l+uB5G+jx50OLBmDrq2VQndF22F+goo9bbX8x+vDmFPWypEDWn6+ZBgohnGgLMVVrozkbT47rHhP6uTcJAmRci452kiIngCAFgUaLbSegBcSNHDuECtqwR1ml/q4zRw7l8D4IcBFBa9PllNd3Bx0H50p33aAseY3WTe2n8xjEAj6KbdJ3Fv4LDXUsLwM+eipTI0EHpb5zrfrBVaynk4DFlDwZtdcuUp7I40GZ1UqI0/nU/tDNQshgMftpoW6412s8UYqXNsqAqlSBx33jSPjjXWelPqTwP03ZXkX2r5qZecHnf1DH9RKwoNMUBs2aCDnTwVO9/P2Escw7PxptvpsTxympP3IYXxH/G2OVsLHakAXh4ED3s5BN5RvW0t54iLWJU9hV31o4jNKFU79gV18JlnLIEUrRw4AS5QM/PK0Kx0WTxzG1ZNlfAYsVsGfflvOtITVcLKQz5K/zQ/bWjnLMCYpOoXh+xQNsyMaKWudgGaChrGcY9tFBYnKNq9oD1UwpO0cu13j77YrbaREKmDCBMbaPufZkMflp7DUPIZTprXeaycQCO5KbtuEumklJZR1TpZFIqfLgDP2P/yIV1yT2WrVeMbLwdy16QciXe98K5B1zhuuRyPHb2Ld9nn7mdNgpLHBSOcJdYFYWFCNyeCOOUgT8eqLRpGyCixlZ0n36SfUF43qRtiDEarnnsPMmJwuqZr1XY76hvm8orzHCXXaSCXtlwN5elGolFe50hIgC1C6PHCYwtLpGs6Xvidl6IyYpkOpKZfzxlX+E/NaWmk3jGFpciu7+sxL9PHUAZJVDG1r5WynUtPeWI1RC1ftAFOZpJU6AKOeCefiURvoUjwdgTkoGZYMHAiwO50RU+Z4Wj1zEW7C8gggYiSthw5hix5JyuQJYPuEQ8iZ7TuZbkgEYa2NnrH6Qw4nK8dMYGNEI88WtoW+w86dMoFAcNdym8TdSXPdSbpIgnIcmiBh9/St5eQkqbGXusL2Py6kNnMSckepN5D/9w5ko+eT+4Zru9WKNHStJueTcjJGd+A8+TEf+7VsIiWqc+jcREqUz+aqVEa6/t0+Ly6oYGeljOr1e/EL86pY+WgkzQfdk/BC9dy77J1PzixA/z9O6j++8Q/2HDt6pBevwnU3lq0hIryVUwFMl0K5L7DO9RFB92Q67+S5XMljd7QybPoiplZIk+uk8H0UV4re69UErqljNZw/9V5ohZO/jV7Ryu/dQqzz8da3naa+LEUKr9vKKLKlMOmCDZK/7eoAaElydQymJSi5aj8P2Fjy0RgOrDJzYJXU5FXrDp56vS+moCmIopa0i5AQLSeMWtYfaIOhGoa0XfGcs4RIuTQ27+bSFa7NiODYW6GH46G7jp1AILjb+KcRI3X/27e7GMfU2Srsni/K+TDcQKoe6j61dhX+bwj6pOko6kupanKnjGPqEwrqv8HnxI3WuIp0inr5TnUU6auNUNS7mejfJF6YM4/xpwtc4/GhIs6rQHAvcRvEXSDoHTf7sRS/j9fUD2XPqgkMDFCu7zzquxHXh2kU0LC/d8IuPl4jENx7CHEXCAQCgaCfcXeuCicQCAQCgeCGEeIuEAgEAkE/Q4i7QCAQCAT9jAGPPBzCd1YFAoFAIBDcMwy48LfOn38VCAQCgUBwLyPC8gKBQCAQ9DOEuAsEAoFA0M8Q4i4QCAQCQT/jHhd3I5biQiyPBstXE28Y1yltFpbCQiyzA9dYvjVA3mwzH21dFqD0ONKfSeyUNp2cgkIsz3QtrVmUTc48dTBjBQKBQCC4Jdzj4l6E4x/jiP+BIXD2pPms3FrIobxl6D2JKjSjtUEXrGkeoCY+qVN7SjU6XQBRTprPi2+up2CRb14pLWiZNmNWl+JymZrH1xTzUVYiOcUnOHW869+h7fN7OGaBQCAQCLrnrv38rKXsLHE10tKqHnJLaDSGsBa704p5Yoa0mtvwWWx6dx36C6U4HxmHHBmqKDX81Ya9A8BGcepLbAZyik+QPlqG7L4OmistVI3I5qmhHTBASuvoAGQymnd77dIsyueTFQqqrHKmfidSSvQtD9gPW0hYuBN90iw0442YZrSw/hdWkPubrZ//U9Kvb2HCvB0IBAKBQHCj3KYlX28Rq1IZ6Rb73BJq1UXdCKEBS/5SnB9k8MriI2jQoI8djAw9GdlG8Kyh3u5ZYDU7LZpsDFjKNjPqZAWMmM+emFSyMvOpndvChBQbBdXzcez17qX5PROv/01H8d4KwEzZUTWFMRkBl4l9LmsDcTWjSFhsIDV2sM/68+3U765A9cxPb/YMCW4jM9Nm92K5XBeJi1g3XePdPn+A1X22Vv1N4Laz/Ri/WlfUqyV37040bHwtgSE1n/DsgZ7XsL+xlfMkEpJnsjLWyZ63DvG+O7HfnU/B3U7fi3sXb9tJ1c/imJcneefpriyn1SIJtW957VkajQA2dkWl+q2dnhYhhwciSZvtH/521u+l/DhAG0daFJg2VxH3gYmnLRU0NwGomJMN2PdSvLuruZo1WTzOfl75Hcx4QoZi9izSVA/AAAVpP+ig4p0NVP0BIJtPjhvRAfV7oin2CP4DRM6eRZprq+PiEUqsLf47SVpKblYsMpdnLwtrYdfuCvGDD0RmPrVz4USkgXg5+N0LmfnUrjF4AiDue2hhQTXLVQ7QapHbrFRFGoiX+9Tzvcd8ozy9ZPxEaYH6mWlPcezoUT6vLO+xztSxGp/V1aaw1JzM0sRKtlbcgAF9hc6IaTqUmtbS8xHdIwxVMIQ2Tp3oWdhBgUbZRuulG9uVNkIB52q9wg5Q8R6rK6Rlc7+tA5tYNlfQx/SxuJspM0ZS9bNRHjF/3L6FeXmwsKCax+0WRqbsABZQcDSLstwdpLi884BheR9UD8qQPZzI8sXeCW2Kf9bS9uleylcBnGSXKY2qunfYOmMeeSVZSP6SDNWDcniuhLI5roqNH5OydAskmcmbNw671U7uh9mcuKYm3ryBVDro+AfkZk9H5qzglby91JHDzJgcFhZUM+d+VzvDH0Amn0TGG65JfDIZHV9YKLEGiC40fczYFJPr2I03f6r7M1oDqqJRnvvi8YIFZM3bAXkZTMhzF1pAwdFlFGTuoAKQa2HXz6w8vsaAqshC1YxlaDIB8qmdYccclcp2pPvQVGZme4rphs1TPKTkscSpjJ84kZ0fvE/bV18FKRmFSgmtp9zLpjZzpR0iAEnox3CqFKa7PHtvJyCK9NUvMDGcgOkR1rVS50BnxJQ5Ho68j3XQCxgue5donbrkTb/tblErCT9/OkRhn8q2sjEc+QiMTw8D/JfSnfbGakyGcE/pq9YdPHUhhT2PtHLRMAFdWy1/+nIC39W286fcdfzkAJCc7rNMr0+65zwlQ+na3nWIhkQQ1naOiouu7QkJFI9pJK2w2VMkIXkmS/icZw/IUSqctEbPpDhDAbRRnf8Jb1zUsPG1CbTmf8IbF0GKBvhug9QxgIbDzXRBF4eWBnYJYRfcBu7QhLoFJOrlyA1ZNDacpbEhy+WVhYqBWI2MuqJUUlK9f59dBP7Hv2TzH3Zi/kUpdXUnqas7ST1y5F8eobzmpCetrsEBwxdQ8Nb3UX3dgS4xlrP/WQpyG1VWBw5rDmNjosm2OnDUlVIczKykwShaSsmMiWZsTDTrv3Bib7nx8XNL2VnX+TlL49F8FnpyzJQ1ePNqCxZ4chYWVHvrNJRgCaW9zHxqfdory+07G24Ip5VCVyfPZnf6ZPja4H8POa1FkpfuUxdgYZIeudyAyVXPZOjVjdctioeUzH/+hW5KaIgIb+aUS5S0RiMTOUZpBaBToUTD9LGnWW1ay+rSZsIHaXALuLb+fSnddIDWSclMBaCBXUXHUI6dAkxhaWYUtry1mIsaOH/5qqs+SJ2Kq9iOhLYW+9SxGtovBxCnoAzDmNyKOcVE8kfnGaiSRH7aG6sxjWuQ0lNMFNng4gUb0x5RMtAQxeXcMuoVE9Dbd1DkDlslp7NnCfyHq47ZCvoEn8ifTkWQubDdU3uItHdPcMgn6doVJwyN5jeLo0lwpV1ytLm8fA1j+Zy0twrYc06BcgiAk9Y29/9I5Xw7DAC08ca7QcL5aiXhrXYRoRPcFvrYc7dhd8qJX3OWxjVIIVCXp+4bnu81jxrRR9oo2dg5w4m9U69YsyybPH0FY2f+CIav4KNPoGrjHKzjy3lxQA4py11P2phlOCo2snnoMp6jhlELlnFd1kFVzn7sxQuwJGmJjnXy2fKigCbFJyXSrFMhc56kypUmf0AWsKyUqWPT+g1AOKr7INCjNCtllN9QhBcTKVGBPc3t8+KChpiDtufnAfetDbcSS5kRna2IkZ4ISKDXFbviGQK63bgF3Pwm08F//FWtJLz9GL9yj79XvMfqCiBxERNbD7C6yNfbn4xKB9QD9UVYJy1i6WoNlK71eIW2Iw20G1VoAVtiMhNbD7O6B49Ra1zFi5MGcr50LeZQveJkFUNp50/bdvEZMO0RJVft5wEtSePwpMNUJmnbufxb4BHAdpifoGJPWy3/8fow5pS1cuQALN42gYEKMJVNwATQVov5GR85rC/CbAr8G+wNCZFyLjnaSIieIB07CjRaaD0BCdEjCGurZf2BNtyeuEQbFbY2lkRK3vwLCRO4dLjAr8PQLRXvUTr2TdaZx1Bqeq//DHkI7kr61nPPnEI0VsxRoxgZNYqRnrHNHVTUQfxcc7fVVeoFAVLVrFwxBcUXH+Nfez6aiM5lDaz8FzV1ByXfceGb89Gd2UlWHuzaa4WkbLYmuYoe38IrK6UHfkfLQp7+RT0POG183JTD+oMynto6H/lBC1l/6GqRbGQ+W9cvwzJeTXPdTk96pDyIuLe2UN8qR68fh16vgb/aaAlcUtADTrvrwZ9rDCn6s/1gHRiMNx9NCEDbV63s/OD94AXUSsLPH3B54GtZ7TOxShuppL2+uotXp41U+nvRrtDunz1CPYWxkzQoOeaJCABQb6c1XMkwokg3QGkIk/ZsRbmszjuG0mAkhHdSXPYoGWg77Ambj1KFc/GCDRjGIEUr593h9CVj0LU1cPAAjFLBn35bzrSEKDj5Zz5LVjG0rZWzaBk2uJ0/5Upee3KKieRn3J2DvkDD7IhGylrlaCZoGIvkhWsjFDQcdnv5cpSKZo65PPFDDidhEXIYGk0Kh3o14W7qkjcZe2otq4WwC24DfSvueZWcwBsC9Q3tbp+3hapIY9DwbdaHVvCE7d15ajI2/5qFI+rYvNbf89I/E4sm3InjoE/iM5nEDz5J+UY1aWsKWf6dDuqbNaxcv4FN83TIOtSkZpmJD2B66uxYrtfspHlWFssfjcTe4ECVlMWm530/iqMmcqAMzWgFe/7rOtFaG+VbXDIds4xRkU7spwM0vtvE06m+QwrSq3iC3uF3j8TaqXL2XIe8DDZbI0kPMgxxo3xeUc47/76xm/H2AELtw7BBA2l1BA6b+4bX043jwdMJiCJ9tTT+bC4Cw5IpPrWaudKuZOySZCjqOzHxeuqAS5wvd44QJKezxzUeL3nwkuh7OgI6JQO/tLtEPJxBumB7m8JS85uYjFE3bbc2AhgzktZDzdiuOBk7eQLYmjnUeTLdUAVD2q54O12XrnBNOZKNCbCtsDdDF1MYO6zZvwMmEPQhfRuWzzUS7yhi5ER3+NZMWcMMEjNhe94O5k3sJjQaIFScvrWQHIOD/JUZbG+S0jTZxRx6fhwd15zYK7ewvsldWk3Ovxm4XrmczbSwPEqOvcmJfKwaeV0LztYWaj5twfnEDF5aaqJqq8+OwjbwnN6Bo2Uzh2Y4Kd8yh6d/eRL98xvYtKKYU8adPDszhxpasFp34vihDUNhNvaPl2NugvS8KiwGOU5HJZtDGXb4cSG1mZOQ3+eg3CLecfej033gF/IPNpyQF+eJELnzt/vca7dq2ODY0SO9eBUuim/rBtJqDSTg0pj4lQDhG1tREUdXv8A6czLgM5nOZ/KcFEK305rpO/O+AXvrQLSXi9jaiwlc2klRUB/qq1paksaFc/GAu7TkrR85AFDOEVsKxjIzRs5T9NF5jBPtfJas4ocuLz3J1RGYluDuINj4ybZa9qwyc+Bp9wkoI3lJX3RNFERRS9pFSIiWE4Y7DK9BqXByzD2OPiSCsNZGb+j9YhuXFCNoLT4UejgepCGZ9lbO91xSILgl9PFHbMyUNUivi7mpLwo+A75nxqGPOUnd8RCLDx+HnpPUNQUvEp+USPPBCs+Yt8YwHd3VUuyMQzFCS9vevdT51VCjj4G6452exMPVaJpaAo6d92znTdTtB/i+EulP11cgBSGiM2Iywq5evlPtDh3fVa/m3UV4Z9SH8kqdF61xFekUhfa2gkBwC7hrv1AnEAhugJv9WIpf/S/5cVkKAaPkfeZR3528MGceT42AayF+BMeD+HiN4A4hxF0gEAgEgn7GPb5wjEAgEAgEgs4IcRcIBAKBoJ8hxF0gEAgEgn7GgEceVt1pGwQCgUAgENxCBlz4m/1O2yAQCAQCgeAWIsLyAoFAIBD0M4S4CwQCgUDQzxDiLhAIBAJBP0OIu0AgEAgE/Qwh7gKBQCAQ9DPumLgvLKimtiDQeu0CgUAgEAhuBuG5CwQCgUDQz+hTcbeUnaUst7u0KZQ1nKWx4SyNZWYpKTOf2oYSLJ4aCyg42rUdgUAgEAgEgelTcbfZndI/mfnUHs1nIQvQRDqxn5aS5QY99p+NYmRUEfXaGRRkAnkZ/N6mJc4t5plTiMZK4Q2vAS8QCAQCwTeLPg/Lq9QLWJikAlRoAXDQnCflOa1bmJcHYMPdDwDIqrGhi5U8+YVJeuz7M9je14YKBAKBQNBP6FNx397iQK7SolXB7/dDXK4WFXZsPVVcVURVZCwWFpCoqhNeu0AgEAgEvaBvPffTdpyRscTZa8g6bUc1YwahLVOzg4q6SOIKpqCyVwqvXSAQCASCXtC34p7Xgl2uRYUN8io5gRy5oyUksd5+sA6VQY/94I4+NVEgEAgEgv7GP40YqfvfO21EQHJLaIytYWSK6U5bIhAIBALBPcWAO21AF3JLaDRqwWnFPFEIu0AgEAgEveXu9dwFAoFAIBDcEOILdQKBQCAQ9DOEuAsEAoFA0M8Q4i4QCAQCQT9jwCMPh/bmuUAgEAgEgnuDARf+Zr/TNggEAoFAILiFiLC8QCAQCAT9DCHuAoFAIBD0M4S4CwQCgUDQz7jHxd2IpbgQy6PB8tXEG8Z1SpuFpbAQy+zANZZvDZA328xHW5cFKD2O9GcSO6VNJ6egEMszXUtrFmWTM08dzFiBQCAQCG4J97i4F+H4xzjif2AInD1pPiu3FnIobxl6T6IKzWgtGmXgKs0D1MQndWpPqUanCyDKSfN58c31FCzyzSulBS3TZszqUlwuU/P4mmI+ykokp/gEp453/Tu0fX4PxywQCAQCQffctZ+ftZSdJa5mFCm+a7m7vzvfE04r5okZ0upzw2ex6d116C+U4nxkHHJkqKLU8Fcb9g4AG8WpL7EZyCk+QfpoGbL7OmiutFA1IpunhnbAACmtowOQyWje7bVLsyifT1YoqLLKmfqdSCnRtzxgP2whYeFO9Emz0Iw3YprRwvpfWEHub7Z+/k9Jv76FCfPESngCgUAguHHuvoVjumNVKiPdYp9bQq26qBshNGDJX4rzgwxeWXwEDRr0sYORoScj2wj73yH/NEA79a4a2WnRZGPAUraZUScrYMR89sSkkpWZT+3cFiak2Ciono9jr3cvze+ZeP1vOor3VgBmyo6qKYzJCLis7XNZG4irGUXCYgOpsYOReXLaqd9dgeqZn97sGRIIBAKB4DaIu5+37aTqZ3HMy5O2LGVnSXdlOa0WSah9y2vP0mgEsLErKpUsn2bTIuTwQCRps/3D3876vZQfB2jjSIsC0+Yq4j4w8bSlguYmABVzsgH7Xop3dzVXsyaLx9nPK7+DGU/IUMyeRZrqARigIO0HHVS8s4GqPwBk88lxIzqgfk80xR7Bf4DI2bNIc211XDxCibXFfydJS8nNikXm8uxlYS3s2l2BLdRz2g+xlFWjsTuIN0jX3nM/sICCo1nEu6McnqiMmbKGWLBp0WmdVFmlup56mfnUrjG4giNd7x+BQCDoz/RxWH4BBUeXwX94Bd3NwoJqlrPF7wGu2u8NdwcMy3eqv3Kkg2anN03xz1raPvWvo5n3Dltn3I9dpUED0CUsDzR+TMrSLZBkpmyzEawVKMbCiWuJxKtBRgcd/0AKtzsreOW7Cyn2sWNOS5y0z+EbOFQ+C9U1t2rL6PjC4okueI7ptDsSYHIdu5HmianY/M7JNwtL2VnSI13CnZlP7RoVvw8gyN77RktZgxGV1cLvVVlS3f0qTLE1jEyBsoZYqt31c0tonGH3DtUIBAJBP6ePJ9TtoNkhJ37NWcpyfdMXkKiXIzdk0dhwlsYGH88sJAzEamTUFaWSkur9++wi8D/+JZv/sBPzL0qpqztJXd1J6pEj//II5TUnPWl1DQ4YvoCCt76P6usOdImxnP3PUpDbqLI6cFhzGBsTTbbVgaOu1CPsXUgajKKllMyYaMbGRLP+Cyf2lhsXakvZWdf5OUvj0XwWenLMlDV482oLFnhyFhZUe+s0lGAJpb3MfGp92vO9Vrfahu6o3+8S37wWfL+b6GuDyeB7o9j4vasj5KkLkBuLDi3pbhtCmachEAgE/Yg+D8tnpYwiC/cDGuqL3J61f4i+VzxqRB9po2Rj5wwn9nr/FM2ybPL0FYyd+SMYvoKPPoGqjXOwji/nxQE5pCyvkArGLMNRsZHNQ5fxHDWMWrCM67IOqnL2Yy9egCVJS3Ssk8+WFwU0KT4pkWadCpnzJFWuNPkDsoBlpUwdm9ZvAMJR3QfNAYq4z11XTKREmQLmbJ8XF9Q7DdpeXgYTglyHW21Dr8ktIV3rDatLnnsI2IoYmRLYPoFAIOjv3LZX4bJSRmG2OlGpFwA7qKiD+LnmbutIZTujZuWKKSi++Bj/2vPRRHQua2Dlv6ipOyj5jgvfnI/uzE6y8mDXXiskZbM1yVX0+BZeWSl5gR0tC3n6F/U84LTxcVMO6w/KeGrrfOQHLWT9oatFspH5bF2/DMt4Nc11Oz3pkfIg4t7aQn2rHL1+HHq9Bv5qoyVwSQGA0+6aj2BmjiGEEM+qGuq1MyjI7GO7BAKB4C6lj8XdP3RrMjg8YdTt87ZQFWkMGr7N+tAKnrC9O09NxuZfs3BEHZvX+oe79c/Eogl34jjok/hMJvGDT1K+UU3amkKWf6eD+mYNK9dvYNM8HbIONalZZuIDWJ46O5brNTtpnpXF8kcjsTc4UCVlsel534/iqIkcKEMzWsGe/7pOtNZG+RaXTMcsY1SkE/vpAI3vNvF0qu+QgvQqniAAq4qowoCp4SyNDbHYrc6e62AipchB/JrAwwYCgUDQ37lr33MPRPrWKiwGB/kr08h2ibgmu5hDz4+j45oT++EtzFu4wxXiVpPzSQlTzy0nYXkFy/NKSHsEwElzXQtOgA7QPTGFtnfjmLdVam9hQTVzWiuRPToOR0sksVon5VteIvOXJ9E/v4FNK2ahadnJszNzqAGmZmWh+9CGoTAbTcVyUlZVkJ5XhcUgx+moZHPCS54QddBJgj8upDZzEvL7HJRb4sm8kaEKgUAgEAhc3FPiDuPQx5yk7niIxYePQ89J6pqCF4lPSqT5YIVnzFtjmI7uail2xqEYoaVt717q/Gqo0cdA3fFOgfThajRNLQHHznu28ybqCgQCgUDQiXtM3AUCgUAgEPTEPf5teYFAIBAIBJ0R4i4QCAQCQT9jwCMPq+60DQKBQCAQCG4hAy78zd5zKYFAIBAIBPcMIiwvEAgEAkE/Q4i7QCAQCAT9DCHuAoFAIBD0M+5OcZ+UxUcl75Duk7Qwv5xDm4wBiy8vKOejrEk+Zaso2zS9j428CV5+h7KtywBYvrUQy+xQKxrYVHLi7j42gUAgENxx+nxV9Q7d5AAAIABJREFUOOn78kZ0wbKdVs862xrDdGKHygAnbQ9O4aVN87le2QbyVJ6b3EHN69dJmz0LaKd+d4Xry3ELMOgj4fARV4NGDGOg2VJ6C49BWm8+us5ya9ZaV2vR6dqkf3VaNF+APmkZc2ZPJj5Wj+ZBG9snzmE9QEwiabpwqZ78+8SPdnKiUOY6Dy6cNooPnrx5uwQCgUDQL7gN4g7gXbLTj8x8an/o3Yyd9SLLY12rfn3dQsfY+SwfK212NID+315C72qveHcFdW8Wc+opLbIwGR2LTnDKaMVcpCA+MhLeOMGpNwAcVL09lcwPpHakJUO3dBJpM2UNsVQHsvEWk/7jDRh0cteSryuQIyf+xyf4jcPGiWM1FK+1sFmZyMpZatjbAvOz2DRbTUeHq4FrEL9inXexmwEyZC1FFB8Uy5sKBAKBQOI2ibsMxexZpHVOVj0AXPdsFpvmUJ80C53Pqp4dF49QYnV/x30ZW/Pl/DrDIq2Zfr+MjjM7WbWzDkhlZXYkM74/juaiDFJWWZE87mXI7rtZ+3cwb+It8NgD0kHdB6nMtHi/VT9166/ICHOyfq9r+dimjxkbbG3y3BIaY2987zPTZjN8xAg+Kd5D07nG0ColLmLddI13+/wBVm+rvHEj+gitcRUvThp419rXayYkUDxDTnX+J7xxsafCCl5f/BgUh1I2UN2ZxLUeIq3Qu+LB1CVvMn0YtB95H3NRQ28bFQgEt5HbJO5qpr6xjqld9i5D1mH1S3ouawOPD7Bh7wDkalSNGyn51hRq57YwIQV049XoQRJ3gOsOinfvBQwsz1bjrC+l2aZFg9V/IZbMfGrXGJD6DVk0NmQBTqp+Fsc81ypsmoJqGg1y//TcEhqNWgCc1s5hef8hh675Xdn1/9s7++i2rirR/1iEcSmJPE4r1RQrrS2blCjNl5lH5cXLRx3ng9AJLVVCcCYs7HFJ3bwsSodloUkaQjOqDPRjOk1SMDYPU70+R0Pb0EI+lGAnsKzyeE7tNA7NxLLb2i1BbmushICnw+P9ce+VrmR92rLjuPu3VtaK77nn3H3PObr77L3Pvfs7X6Ol/jDrDT189YHHKNth4/EvHObVSt1J/znA4b1Px9SsZf/hv48Kb/T8bA33Jr1aahYsUvYqfHb95zjd2ckvT7SmrLPiFrPuAb+Me10ruXf5Cfa3jVOYbLL8Hv6xuJcfOL1qLvirn6VGAwy/RltaytpAXm6I0xkrdq0u9L4Uncqo9amdtBbbcdpLsdA7bfpVEKYjk+aWf/7W1G55hRA9R/bSfA4o/xrfysvkOsOccnez/Nn7efwjbXz+MV1R0xYWNiVyywNYKDN5KSxyUuPpwLnJBU1OqFtDYZ1WL5oaz2pMfjeFGcbhrTNyIH85/+dkM827f8y/dMecMPI2p34eW6uA4vwQrbt/TDdg3fxNVhRkdNmk5P5tHv99+QoWLFrE0z/6IcN/+EOCM4sw5cHQq5rl1s+7F2E2QLEdpx38PUWsWjwTgDeO7lSVvrIImKPWCh8vtuOsysPv/D6taNY2dDa9xOyq23i3qZ6WHq2+/u/kWIx5XOw5lp4C2rqVY4vO4aUCZR13kV/XP8w/HwOw8C//Xs2ncrWT1bLirTx/4xAXbAspHu7i128v5FMWXb2tWzn2+fDd4q14iu9pTRTbcVYVEUjzXsL3NDuXPwb6OakdWLiUg3P7oqzrpSs/y1Z+yRfP5HLD8LuYN1Ry8GaAfp7/9kl+mD+f/7VlNr5vn+SHALF/A+TncgP9+LriyLC4CHqmz4JJEKYrk6TcDZQ88iiPxx7OM5FD7BfyDBSvvo9tywGDEVJ4ig1/dz+vvnI/ADl/OQWvN+J4ejW+L7moeewEMMLIUDoyBmhRXd8NA4M40/gqb8PAIE67gz6fhcJEbvModvGTV+xYc3JgyE9DnRPLt1qp0TwVyh1hzu/hkZ/7w3ngI/yZwede4CBguvub6dxUxuT+bR6bv/Rl9v7rYwnOMDN7Vj+vqla6xW5nEaf5QRuwPI9Zs8zY+CHfcPZisdex0VgEmLnXtRKO7uQbmkK327G0eQn0eGl5uY5Vy6EVvbVdxMaLK5ldAPQAxSbyLvZyNC1lWMQni2cy5M/AdWypYK2/kZVbA3zlKReLi4FjimK3nm1k5YMBYAVP+ebyxjG4fWkeM215vFPvg7oKrGcb8bJBWbyoi4WVFU8BKO1tBZ5Sr1WQx6z0JQvzwwOeiAJW+eO7IUVBr4envncGgN8PDsMNC/lIrpm8lzysP6C46M35wIVhfs/N6v+BG2bzkdf6otu9cIYvfju+DHOum6lb2AmCMFWZNOVuts7DEHs4xxhHuWdmuYd+85hqhbvwdSqmbP9jj/H8px1Y71DaCz6XjXuIg2rVU3+Yvt7zEPCmUPKNPPjFRro3/4C+JQM0+Adw6+8XUPYOJHr0X4NR3btgvCabN5IBxSbyMLPK9RCrAC6e5gcPK5acxZgHbxwLx2MD3npcKAuAvJd/iEtz2/cEGZo1lzlAAAh4X+LdrffgnANHw270Xv5vzyV1cdDLipULGPLvTGkxKnHhS3Q27WR/mlbx7TfmwXAXTzwYACzMuf4i7/QAKz+JFe04sHUuxcNDHNAqBl7inzHx/HAXTzw4hw2+IV4+ZuFfts6B3Dkc81Wo5/lY+ZTugm3fVxY542Sp0cDvB4dZOn8hABZyMVtg6Ax8eakZXjvJ/V2gudmVNW4/p19byoIbgAu5PHibgY6D/QmvEUvrU8e4xfUQD98yTfYxCMI0ZZKU+wC/WJOuWz4Hw8dXsMIIfDRHv98uA/w4Pr8eqMbz0OhSg8kylkYTU7eGwnPNdG0voAbiWNwaA3S/MkqaiKdC/dtEPK00wsgH57HlWw+Hj/ScBf5mXJKPYvgPQzz9o1j7UEdBHrMSbFCbc91M3ng1/vEoa2/5XOa8cY79ur8Xzcnj4ssvoY/4BwaHmHWLGYpLsXEssjhIQutTO2ldfg8Pr1xGS096yqfENIueYy38QpGW63KHePkYsDWPmW+fU4/DVxbN4dJZH78AvmKCX/97K7cv/QacPcAvVn6S7cNDnGcOi3Nj3PATipk7Z/fhG1qIeaGZW3iNpy7ksjxvOKK083O5Yfg1nlPj74F3h6kw5sLChdwS+CVfTDsuv4x7XXN51bkzMnaCIExJJm1D3e2HD+OLPZxjxMCogDPBX32Nr6qb2boKCMfLwTW66WuM6jvfueTElt1kxWwgamNdQ+URNvTa6eu1E7uhLh41ng6cNs3noGzE6/GWUFEHbt95NurWCT3ekiSKPRHpWu67+eytu0cdNT8y6q7HzC/bWlNuqLMY87j4TjxLrwhT3iXeHYhTBOSpFjgs495VZt44+n2loNiOcxUcddbzhr0uemPewBAXbXO5d+UQLRNmJeosdYCVJvKHhzgfc9bt3/oGdgtcCgKsYLFFWQCU3D2LC50BKK4ILwQ2kMeclcCxOJcrtuOsWsBQeC/COCSfDcwuZOjkSQLzC6m4bSEEXuQkBu7Ub6a7YTYfGeoLx+pPDoZ4YO5CHpvdxxcPDKd/wdhFmSAIU5ZJUu4h+rvPMkol5M3DnMDtvnF/K7vLCwgeVd32Xz9AV9ViDINHI478/xwh5+Obqf+W+veQHyV0XcDuF1vZ8vERQmd/yk+jWnZSURTrOndSUaT7s24Nhep/GypLEypsR0VJxu/F1zS188CnjfQf1zbhpWu5j7o6L/5HNda/hOj56dg/2HO68+UMXoVLFss2M3vWEK/GEV1x5X6Zh9WPCGqb6SKb5+oVi31wiDmr7mFFm7K5TnHfF/Gu9/sZbeBacYuZN179fnonr/wk1twhDmmKuFhnrT91jh5fheJeD/jwBipY/FYAVn5SXQBYKFcXBrcvzeNS8A0gwNafzOVYnYtjdUqTl/yNfO7BidiClksRXay/AEvnG/gIXTxybBjyzdww/G64z5YaDUpsXuP37/LH1bM5/e303fGQbGEnCMJU4wM3Fxb/dWIvMY8Vd5oIhr8op+MmG2us0P1z/2jF/z7BWr6K3J6jtL+uHZnHis/k0vM+7hMNi72OjXgzfKe6iI3fsIM3s53o7ye+vKGSBec8ajw+XaRfBeFqYhKUuyBkxng/lhL18ZqefJ6vW8jMOOdNnEU9FVE/TJMLvUcyU+zy8RpBuPoQ5S4IgiAI04ypmRVOEARBEIQxI8pdEARBEKYZotwFQRAEYZox48aPpvGdVUEQBEEQrhpmvPW72M+/CoIgCIJwNSNueUEQBEGYZohyFwRBEIRphih3QRAEQZhmXOXK3Y774AHcn05UXkCZbV7MsTtwHziA+874Nbbtj1N2p4uf7K+Nc/Y8Nt69PObYKnZ7DuC+e/TZ5nt2sbuyIJGwgiAIgpAVrnLl7mXwv+ZR9gVb/OLFm3lg/wFONtViDR80Yf64JWHCmv4ZBZSVx7SXV0BxcRylXL6Zf3zoETz36MuOMoCF21ffMep0Q04Ba3cc5CeO5ew+eIZXXxn972TD5hT3LAiCIAjJmbKfn3X7zlN6SkmtGqb+MH32NHKxh/y4Fm1RsrnddAePf+9hrG8dJXTjPAzkYCoqgDcDBEcAAhxccx9PArsPnmHjx3PI+eAI/SfctN+8i8/lj8AM5djICJCTQ/9zEbnM9zTz4v25tPsNrPg7o3JQfz4QfMnN0pqnsZbfgXmBHefqAR75jh8M0WJbN3+TjX/ex8LKRgRBEARhrExSytcsUbeGQk3Z1x+mq8CbRBHacDffS+hHW/jqV17GjBnrkuvJwcqWXXYI51C/GE6wumv9fHZhw+17kpKzbXDzZp6/dQ2Oqma6Ng2wsCKAp2Mzgy9ErtL/fScP/q6Ygy+0AS58nQUcuHVL3DSx/+B4lNJTJSz9io01S67X5Z+/SM9zbZju/uZ4e0gQBEEQJkG5R1nbIdr3lFLZpPzl9p1no1oU8rsVRa0/33KePjtAgJaiNVG509fPNsA1RtbfGe3+DvW8QOsrAMO8PJCL88l2Sn/k5PPuNvpfBzCxYRcQfIGDz40W17zDwVqO8NVnYfVncsi98w7Wm66BGbms/8IIbXsfpf1XALt48RU7xUDP8/M5GFb412C88w7Wq3+NXHiZw/6B6IuU30u9Ywk5qmWf85EBWp5ryyhn+fuGqma6NsEZo40yA0TNhapmunbYwg4QbQ7VeDrYZhoEiwVDwE+70UaZQVdPP8f0Xh5BEIRpwgS75avxdNbCExGFrlHj6WAbmgu6Gk+nA9ORiLs7rls+pv4DhYP0hyLHcj9mYfjn0XXMlXvZv/pvCJrMmAFGueWBvp9Sce8+KHfhe9IO/jZyb4Ezf1xOWQHkMMLIf6G420NtfPVTNRzUybFhoFS55k2PcrL1Dkx/1LR2DiO/cYe9C+F7Oqd5ApzqvdvpX7SGQFSfCEBYgQe9yri6fedZG3TH6aPIXGsr78BpG6RlT5C1O2wEvW6Cq9V5SDNd2+FJVaHXeDpwmo5QWOG8EncnCIIwIUzwhrpG+gcNlO04j69ef7ya5VYDBpuDvt7z9PU6VKssXWwsMefQ7V1DxZrIv19cAP4SfWb/r57G9Z2jdHefpbv7LD0YMLz9Mq2nzoaPdfcOwk3VeL7995guj1C8fAnn/+dRMARo9w8y6N/NLbfOZ5d/kMHuo2HFPory68kdOErVrfO55db5PPKbEMGBsStqt++82j/n6etspiZc4sLXGynr8lSHS2o8HZE6vYdxp9NeVTNduvb0Y5VtGcZEyM8BdcEWCOpWc1EyRM+hkN+rWOm6ugA15VYMBhtOtZ7TltHEEwRBuCqYcLe8o6IEB5qSgB6vZllHu+gz4tN2rMYAhx+LLQgR7Ik+Yq7dRZO1jVs++zW46X5+8iK0P7YB/4JW/nHGbiq2tSkn3lrLYNtjPJlfyz9wipLqWv6cM0L77iMED1bjLrcwf0mIX2zzxhWprHw5/cUmckJnaVePGa7JiXuuUljM4488CszC9EHoj3OK1nejcVJRFN/SbKgsTehiTthe0xYWJhiHbMuQTdw+O8UBr2p1q5Z7GoRDQIIgCNOUSXsVzlFRgssfwlRQDTTS1g1lm1xJ6yjnxlLAA/cvI/c3PyW69mbMs2PPtfHAfyug+7hiO9Y8tJni/3gaRxO0vOCH8l3sL1dPfWUfX31AeeCPDNTw+e/0cE0owE9f380jx3P43P7NGI67cfxqtEQ5hc3sf6QW94IC+rufDh83GhIo96EBeoYMWK3zsFrN8GaAgfhnCikIBdWdCvX2tLw/Dce7wWYfvzdBEARhCjPByj3adeu0DXJItZgaKvfRbrQndN86nvFD2G2vlRWw5ckfU3NzN0/ujLa8rHcvwTwrxOBx3cG7qyi7/iytjxWwfscBtv3dCD39Zh545FEerywmZ6SANQ4XZXEkX3PnEv586mn673Cw7dNGgr2DmModPP4l/UdxCjDOzMH88Vye/99/Zr4lQOs+VU3fWkuJMUTwXJzGn3Py+TX6kILyKp6QGVFzZEmQ9lDqOjRt4Um/kY0JwhCCIAjTgSn7nns8Nu5vx20bpPmB9exSlbh510FOfmkeI38MEXxpH5U1jaqLu4DdLx5mxWvbWLqtjW1Nh1l/I0CI/u4BQgAjUPyZZQx/r5TK/Up7NZ4ONgydIOfT8xgcMLLEEqJ1331U/dtZrF96lMfvvwPzwNN88bO7OQWscDgofiaA7cAuzG3bqKhrY2NTO26bgdDgCZ5cel/YRZ1wk+DXD9BVtRjDBwdpdZdRNZZQhSAIgiCoXFXKHeZhvfUs3a+kefpN87Bylu7XE59SVr6c/uNt4Zi32baK4ktHCTKP3JstDL/wAt1RNQqw3grdr8Q40m8qwPz6QNzYeWo5x1F3GqB/JTKa0a9ACoIgCKm5ypS7IAiCIAipuMq/LS8IgiAIQiyi3AVBEARhmiHKXRAEQRCmGTNu/KjpSssgCIIgCEIWmfHW74JXWgZBEARBELKIuOUFQRAEYZohyl0QBEEQphmi3AVBEARhmiHKXRAEQRCmGaLchfRQc76/v5OsKImQplUf1B8elbRJEISrn0lQ7vrMcJGHSI2ngy5PvJSuYyPb7SWlqpmuzmZqsi5DNZ7ODjxV2t/x+y4Vbl9mGc8mte9w4ctQmdR4OnTZA8/TF6fvs8Wk9UX94cj9+JKnPo5PZv2onxMTcn/q4i9RlsepgNs3zRZmgpCEGZNzGUkAMjacVBQ5UR7kSzKq2eONk31uPDRtYeEVzFYX8rtZWNmY+sQJRRuPLFC3hsI6FCWf2dBmTlUza41+XEVbwhkKR8mRDUJ+XIuUa7h959noc+GoyFJ/CYKQEVfYLb8sYplGWS/ReeD1q+0oKy6RBadaRclX6Yrl4/Odp6+3A4/ncIxVU42nM1YG9dgOGwaDDWdcSyjBPekttRirJmJVOSgzpNNvYySJDInk1lt8o/pU317MWMQbJ6UtO8VYIvnUx2S1qsR4UPRWt9sXGdPRYxQ9tl2e6rDl6bQZMGg54nsjXhT9/cTOq0RzMrkMY0Evt51ifVGSsWCuCcPgQIxi17cVPRdqPB34PDpLXD9GURZ6YuvccSoAxgJq0MalOTK/9PIlmJNjk0H5TXtix0q9xkYLFNuj69V4OuK0PfW8DoKQKVdUuRtsVoJ7Sigs8tJjWa0+SKvxdNrBW0JhkVKGXX3I1h/Gae3GVaSUubqtOGOVQ1UzXXYj7XvSsVwtmIJuWgIGyqxBXN4ABpOSe9Ttc2A6EitDI5WLSijc4ycU8ofl0FuUce+pqpkuO7So5xd6YaP6gKvxdLARr3odN+2hrHVvnH6JL4Mit4kOTQajPazAHBVaH5TQEohpb3Uw/ljEjFOhas0pbXnpIRCRI03LLqJw010QqGNapIwXNnv4ge32OZjf7Q7f18LKRsUzUVSCyx8i5NfKSqlUvRUNlaWj+yDOvUbPycQyjIVoub30aAWJxkJTgnYLWOwxylCdy/p2dBTbTBwqiv1tuvDt0I6PnkNRsi6xEOo+EV5QROZXCS2DNjbUk3JORmTQz8lUMliYzz6lbI8f0+pmaurWhMeuJ/xcUTyJDZVH6LEsiSwqyq3g94qXUbjquaLKPeTfpz48AwTDSs2CyRCgI6yYnXQEDJjmQk2BMeqB0XC8m5BqHYCqAHZYObMn8lBOToBDqmLuOaJ3WboojVrlx1hJmd7TXBOGwKnIA6PuFD0GExaqWW6F9mcmwXWZUAZNbu2B1khbdwhTQXIrs6bcGuW9cNoiLgf3EktMf46fiMJNf0EQlqFpgMh3GF2UWiLjPl5Szcn4MoyFxHInHAt1wVLoDUDAG6XUUhGZD7p5XL8k2utit0RX0smwEW/UojekU5iOCnXhPZY5mUoG3W+api0sXJRqHjrpCFgoVT1zy62DWZsbgnAlmaSY++QQ8vsJ2myY5majtffvPgGLyUDwVOoH3NSIgwswiWMR8CZeXOli7tnGYjIQXh0lk2EMOJ7x07XJBVUFmLq9VGatZUG4ckzBV+ECBEPaShplM5AlRPAcNAwMYrAui8Q0N9liYoknqCjygn28u2KV1fzaZDFSnYWRknNBQnrXn2c1xaEgARrpHzQwv7xaPV47cTH3hDLE4qJU7e9kNBzvTuhmDgRDFK9OtqPdiLkqYWFmaONQ1cw2Wzqdp8yvZGOrhWbSIfWczBbRvwu3L+JNSjYWWaXulM5FnwUynJNnjjeOW4a4HqmmE5wxLsFTbiJ4XBarwvRgCir3Riqf8GPSXOI7bAS9qpu9bg0tgzrXn9GPa9QK3knFHqX+eDYwOSq8BPVxXn1cr2kLhwIR12DK6zRt4Um/MXy+0zZIixaHfsYP6nW2cWTiYu5JZAB9TNsO3jTCGjHt6TeaNVSWRo1T9AYvJwf8ULYjCxvq9OOww8QZfzqd10jlouix1Y+fEoPV4tORDXXaxsLIpiy1LK05mQ0aqTwSCIeKSk/pYuVJxiIx2qZV3QbHlK8YOqnwDkbGbrybBMc0J8cug/63Fr0Rr5G2biNl1iBtV/CNEEHIJh+4ubD4rxN7CeU1ro73qYs7O2TWh27feUpPZflVOKrxdNbCE+nuZxDSov4wfUtOZdXNPB2o8XSwjX2TFvaZmN+MIFw5Jsly16xcecUkM/TWVWZoFt74whP6VxIdzO/eJ4o9W2ivgI3aECZMJppHZm3QLYpdmFZMguUuCIIgCMJkMgVj7oIgCIIgjAdR7oIgCIIwzZhx40dNV1oGQRAEQRCyyIy3fje+72YJgiAIgjC1ELe8IAiCIEwzRLkLgiAIwjRDlLsgCIIgTDNEuQuCIAjCNEOUu5Aeam7w8X3x7mpH+WLftOqD+sPy5UiQfhCmHZOg3PWfMD2sywDVMb6kEzFku72kVDXTFSfJxvhlqMbT2aHLeBW/71KhfVIz3c/PTmrf4cKX4UO0xtMRSeCTVoKTsTNpfaF9fnbMyXMy60f9nJiQ+1MXf31jmK+Thds3zRZmgpCEScrn/v7NjT4+nFQUOdESx2RCjzfLSTCatrDwCn5XfmrkjtfGIwvUraGwDjVxTHaaTEhVM2uNflxFcXKta3JkA10+d7fvPBt9LhxXS0KcbPaDIEwBrrBbflnEMo2yXvQWa/RqO8qKS2TBqVZR8lW6Yvn4fGr6Ts/hGKumGk9nrAzqsR02DIZIms9oSyjBPekttRirJmJVOSYun3sKGRLJrbf4RvWpvr2YsYg3TkpbuhSj4035GuNB0Vvdbl9kTEePUfTYdnmqw5an02bQpRqNeFH09xM7rxLNyeQyjAW93DHJhJKMBXNNcXLM69uKngs1ng58Hp0lrh+jKAs9sXXuOBUAYwE1aOPSHJlfevkSzMmxyaD8pj2xY6VeI5KuV18vcT9AEo9HlNwd2ctxLwhZ4ooqd4PNSnBPCYVFXnosq9UfSDWeTjt4SygsUsqwqz+e+sM4rd24ipQyV7cVZ6xyqGqmy26kfU86lqsFU9BNS8BAmTWIyxvAYFKydLl9DkxHYmVopHJRCYV7/IRC/rAceosy7j1VNdNlhxb1/EIvbFQfcDWeDjbiVa/jnrh87klkUOQ20aHJYLSHFZijQuuDEloCMe2tDsYfi5hxKtRy11eo/UIgIkealp1Bl389vQWBOqZFynhhs4cf3G6fg/nd7vB9LaxsVDwTRSW4/CFCfq0skt62obJ0dB/EudfoOZlYhrEQLbcun3uisdCUoN0C4Rz1mgJT57K+HR3FNhOHimJ/my58O7Tjo+dQlKxLLIS6T+hys2vzq4SWQRsb6kk5JyMy6OdkKhkszGefUrbHj2l1MzV1a8Jj1xN+rmiexMT9UOPpYG3QHf5tnrE6Iov81cozJnaeCMJU4Yoq95BfSyEaIBhWahZMhgAdYcXspCNgwDQXagqMUQ+MhuPdhFTrAFQFsMPKmT3p/tgCHFIVc88RvcvSRWnUKj/9lKtx72muCUPgVCQsUXeKHoMJC9Ust0L7M5Pgukwogya3N/ywa+sOYSpIbmXWlFujvBdOW8Tl4F5iienP8RNRuOkvCMIyNA0Q+Q6ji1JLZNzHS6o5GV+GsZBY7oRjoS5YCr0BCHhjlFpyIvNBN4/rl0R7XWLT1epk2Ig3atEbaU9Z5FXUMbY5mUoG3W+api0sXDTWeVjNcqvei6P3qjXSP2igbIfE8IWpyyTF3CeHkN9P0GbDNDcbrb1/9wlYTAaCp1Irv6kRBxdgEsci4E28uNLF3LONxWQgvDpKJkNWCdGewFBwVJTgQHPbT8AeF0EYJ1PwVbgAwZCFUm1FXNXMWkuI4DloGBjEYF0WiWlussXEEk9QUeQF+3hX1E46AhbWJouR6iyMlJwLErIs0cUTV1McChJQLYD55dXq8dqJi7knlCEWF6Vqfyej4Xh3QjdzIBiieHWyHe1GzNmKUWrjUNXMNls6nafMr2Rjq4Vm0iH1nMwW0b8Lty/iTUo2Flk4tE4yAAAJmklEQVSl7pTORZ8FMpyTZ443jluGVB6pCI20dUPZpuQhIEeFEspJv11BmBymoHJvpPIJPybNJb7DRtCrrp7r1tAyqHP9Gf24Rq3gnVTsUeqPZwOTo8JLUB/n1cf1mrZwKBBxDaa8TtMWnvQbw+c7bYO0aHHoZ/ygXmcbRyYu5p5EBtDHtO3gTSOsEdOefqNZQ2Vp1DhFb/BycsAPZTuysKFOPw47TJzxp9N5jVQuih5b/fg1VB6hJxyfjmyU0jZWRTZlqWVpzcls0EjlkUA4VFR6ShcjTjIWidE2reo2OKZ8xdBJhXcwMnbj3SQ4pjk5dhn0v7XI3oPE/dBQuY92oz18ndF1InJnK8wjCNniAzcXFv91Yi+hvMbV8T51cWeHzPrQ7TtP6alsuwmr8XTWwhOyeSir1B+mb8mpSXIzXz3UeDrYxj4J+wjCGJkky12zcqfehy2mNnqrIjM0C2984Qm9heJgfvc+UezZQnuVatSGMEEQhPEzCZa7IAiCIAiTyRSMuQuCIAiCMB5EuQuCIAjCNGPGjR81XWkZBEEQBEHIIjPe+t34vpslCIIgCMLUQtzygiAIgjDNEOUuCIIgCNOMCf22/Nf/bdVENi9MQb7zP45eaREEQRDe94jlLgiCIAjTDFHugjChKF/5y+xLgdV4Osf53XZBEN7XXLGUr4tu+y6lHKLxpeNxy8qu+3DkwKV29p3wJG9wwU5qzfkAjLzzbNx2hStNkm/k1x+O/hSrLn2o26ckbIkUaelNXfi0T/NOYLrRqcTE5A0QBGG6MWXzuWesoE8/xL7T2qJBuCpJkqc7nC+7qpmuHbV4qhqpbHJSUeRUjm2fXFHTR5UxIxqpXCQJUwRBGDtXWLlb2bTuLvIgPeu8cDvVc+DtnLl87EMAF/jtzx6iNcVVVizbyydman9pdSrZtG4xl8/+Ewf7IucVjWiLinLWr7pLvQ4M9d/HM6cBKtm0rojL7+TyMdW7ECmLz6LbvktpzjDMzCfn0jnezJnLxz4UkV0vX/SippJN68qU/okpi/Zu6PqhcDvV8+aSE6eO3ruh8CfeVO8/sQyRNi+nuM90MXs66LMZgBDtezLMMtd0gjPbbZjmpjivqpmuHTa0DO+atV/j6cBpOhJZRFQ107XDxCHVm6D3EkQ8BFqWsm6CNlvanoIaTwdONcd8eHECgAtfZwHBQRtlFqL7QefB0F8/yrNhOU+fHSBAi2RbFAQhDlc05p5z3Rwun72PfT9rZ2jmYtYX6svuonbdXmrXfTfqODPncu2F+9j3s/tofyeXTyyrTHmd1hPK+ft+dh/7+lHrePjtO3D9DeXqWZXkz7xAr6rUViy7K3ydfT9rB7Nejnyu55BSdvYc1+ZvZ1Gqe50JvWfPMTJzLtdeeJY338vFUKgo6aKRZ9XrPMvbhrvYtECps+i2xVz7zrNh2fVK/xPXDfNb7Z70C5y+J2gMH3+Wtw1rVbkr2WTO5c2zStlvL8HIO4c42Jdchuxjocx0hMKiElx+KNuky+dusafOR161jPmGAB2p3NJNW1hYVEJhUQmFRW7OWGvxVGn52peEsxPWlFvB78WBoozXBt26Oo4oOQw2Ex1qmy2DNjakiKM3VJYq5wbiFBpszFevFdUPdWvUYzG56dXjLQFloaDIKIpdEIT4XFHLXVMucIHL70WOd770T3RqfyzYSe28nazoUxXYe+f4rWo9dv7+DUpLrmMRRM6Pw+gYfq+uvpVFHKdzQRHXvtOuKslK8mdC3sy91Jq1Sn/icriByCKAvido7EvnXttpxUqRKv9N+QDl3GT4MDkfuovadXeFzx3S+uHyMGXmu6hdlh/j1bjA5ffK+MS672LQeR5QZddb+/An3kwqWXIZMrnH9AjQolrNDQODOLWvH9etoVBT2FXNdO3owHMuYtUX2zVrVbFyUys1XTwetR4ATjoC5ymtB+qqWW4d5NCiRqCa5VYDBoODvt5I6z26FkPqIgDAUVGS4X3HEuCQapVH9YMgCEIWmLIx9zCnexkyF8Uvm5VLDsPJ6xdup/Q6ePPsfYoSXLCTWk3z9T1B75zvclMh5OVB7wl9jD89l//4ibjGR6HuI2DBTmrX7dWFLo5z8KgWOthL7Ty9e72MvPB55axftTZ8P5ff+zAfm7eX2nnAe+doP6G0kVSGK0HTCc5st0YdinZrp8bts1McjuFX4+msDZc5nvHTtckFVQWYur1EfD9jCBMIgiBMQab8q3CLbltM3nvD0Zakyoq8fEZC3UmtdoVhQn0A5azPz48qaR0a5vobtpNPr06Re7hwKZ+i28qZWI7zegg+NidFaOH0Q+w7e46RnOti3P/HOXj0Pn576cNcOytydGTkgvKfBWXhPQMUWrmec7RrLvujT6j9loYMhdupXrd3Al31MdTbKTMM0j9OJRsKBnTt6QqaTnDGuARPuYngcW3jWiNt3TFhgimKqUBekRMEITlT0nKP2gD33jnaw4oI+NBcytbtpQwUSzbuBjPFxaxsdHuC3jl7+cS6vXyCP/HmOxcI7zYDON3L5XVl0H9flAytJ9rJX6dzVcfKkSU6XzrETavuonZdmXok/kY7UDbudcKoTXO8d452NVTR+sY5iuapcl86x5vv5SoFfd28XXJXpO/095REhslCv/ks7Y1iMZvmnL3ncarWuuMZP2t3qC72gJ/2kFFXsZG27lqc1m5cujVNQ+U+lnc66Ou1ZyZHAqJe4bOcp8+e2jMQ3Q+K/HqvRdR9yYY6QRAS8IGbC4v/OlGNZ/3zs4XbqS6Bjmwq2YlocyqyYCe1eb262P3otwWywdXy+Vl5X1wQhOnMlLTcJ4Ww9atYqdNasYOyd2Fdmc46VzwBUybOPklo1nTI72ahKHZBEKYpV5flLkx5rhbLXRAEYTozocpdEARBEITJZ8rvlhcEQRAEITNm3PhR+XqGIAiCIEwnZrz1u+CVlkEQBEEQhCwibnlBEARBmGaIchcEQRCEaYYod0EQBEGYZkyYcu/rPT9RTQuCIAiCkISMlfvlAht/mGfnLzm5EyGPIAiCIAjjZEyW+//LMXDRskoUvCAIgiBMQTJW7tcO+Llm8KwoeEEQBEGYoozJctcr+MsFt2VbJkEQBEEQxsGYN9R9KNTPX3Jy+UuOIfXJgiAIgiBMGmNS7u8ZCvjDvA18KNTP3571ZlsmQRAEQRDGQcbKXRS7IAiCIExtMlbufzZaRbELgiAIwhRmRqYVZgWOTIQcgiAIgiBkCfn8rCAIgiBMM0S5C4IgCMI0Q5S7IAiCIEwz/j8yVbSSECWUAgAAAABJRU5ErkJggg==;" parent="1" vertex="1">
                    <mxGeometry x="660" y="520" width="503" height="249" as="geometry"/>
                </mxCell>
                <mxCell id="13" value="&lt;div style=&quot;color: rgb(212, 212, 212); background-color: rgb(30, 30, 30); font-family: consolas, &amp;quot;courier new&amp;quot;, monospace; font-weight: normal; font-size: 16px; line-height: 22px;&quot;&gt;&lt;div&gt;&lt;span style=&quot;color: #569cd6&quot;&gt;const&lt;/span&gt;&lt;span style=&quot;color: #d4d4d4&quot;&gt; &lt;/span&gt;&lt;span style=&quot;color: #9cdcfe&quot;&gt;obj&lt;/span&gt;&lt;span style=&quot;color: #d4d4d4&quot;&gt; = {&lt;/span&gt;&lt;/div&gt;&lt;div&gt;&lt;span style=&quot;color: #d4d4d4&quot;&gt;&amp;nbsp; &lt;/span&gt;&lt;span style=&quot;color: #9cdcfe&quot;&gt;_name&lt;/span&gt;&lt;span style=&quot;color: #9cdcfe&quot;&gt;:&lt;/span&gt;&lt;span style=&quot;color: #d4d4d4&quot;&gt; &lt;/span&gt;&lt;span style=&quot;color: #ce9178&quot;&gt;&quot;why&quot;&lt;/span&gt;&lt;span style=&quot;color: #d4d4d4&quot;&gt;,&lt;/span&gt;&lt;/div&gt;&lt;div&gt;&lt;span style=&quot;color: #d4d4d4&quot;&gt;&amp;nbsp; &lt;/span&gt;&lt;span style=&quot;color: #569cd6&quot;&gt;get&lt;/span&gt;&lt;span style=&quot;color: #d4d4d4&quot;&gt; &lt;/span&gt;&lt;span style=&quot;color: #9cdcfe&quot;&gt;name&lt;/span&gt;&lt;span style=&quot;color: #d4d4d4&quot;&gt;() {&lt;/span&gt;&lt;/div&gt;&lt;div&gt;&lt;span style=&quot;color: #d4d4d4&quot;&gt;&amp;nbsp; &amp;nbsp; &lt;/span&gt;&lt;span style=&quot;color: #9cdcfe&quot;&gt;console&lt;/span&gt;&lt;span style=&quot;color: #d4d4d4&quot;&gt;.&lt;/span&gt;&lt;span style=&quot;color: #dcdcaa&quot;&gt;log&lt;/span&gt;&lt;span style=&quot;color: #d4d4d4&quot;&gt;(&lt;/span&gt;&lt;span style=&quot;color: #ce9178&quot;&gt;&quot;目前的this 指向&quot;&lt;/span&gt;&lt;span style=&quot;color: #d4d4d4&quot;&gt;,&lt;/span&gt;&lt;span style=&quot;color: #569cd6&quot;&gt;this&lt;/span&gt;&lt;span style=&quot;color: #d4d4d4&quot;&gt;);&lt;/span&gt;&lt;/div&gt;&lt;div&gt;&lt;span style=&quot;color: #d4d4d4&quot;&gt;&amp;nbsp; &amp;nbsp; &lt;/span&gt;&lt;span style=&quot;color: #c586c0&quot;&gt;return&lt;/span&gt;&lt;span style=&quot;color: #d4d4d4&quot;&gt; &lt;/span&gt;&lt;span style=&quot;color: #569cd6&quot;&gt;this&lt;/span&gt;&lt;span style=&quot;color: #d4d4d4&quot;&gt;.&lt;/span&gt;&lt;span style=&quot;color: #9cdcfe&quot;&gt;_name&lt;/span&gt;&lt;/div&gt;&lt;div&gt;&lt;span style=&quot;color: #d4d4d4&quot;&gt;&amp;nbsp; },&lt;/span&gt;&lt;/div&gt;&lt;div&gt;&lt;span style=&quot;color: #d4d4d4&quot;&gt;&amp;nbsp; &lt;/span&gt;&lt;span style=&quot;color: #569cd6&quot;&gt;set&lt;/span&gt;&lt;span style=&quot;color: #d4d4d4&quot;&gt; &lt;/span&gt;&lt;span style=&quot;color: #9cdcfe&quot;&gt;name&lt;/span&gt;&lt;span style=&quot;color: #d4d4d4&quot;&gt;(&lt;/span&gt;&lt;span style=&quot;color: #9cdcfe&quot;&gt;newValue&lt;/span&gt;&lt;span style=&quot;color: #d4d4d4&quot;&gt;) {&lt;/span&gt;&lt;/div&gt;&lt;div&gt;&lt;span style=&quot;color: #d4d4d4&quot;&gt;&amp;nbsp; &amp;nbsp; &lt;/span&gt;&lt;span style=&quot;color: #9cdcfe&quot;&gt;console&lt;/span&gt;&lt;span style=&quot;color: #d4d4d4&quot;&gt;.&lt;/span&gt;&lt;span style=&quot;color: #dcdcaa&quot;&gt;log&lt;/span&gt;&lt;span style=&quot;color: #d4d4d4&quot;&gt;(&lt;/span&gt;&lt;span style=&quot;color: #ce9178&quot;&gt;&quot;目前的this 指向&quot;&lt;/span&gt;&lt;span style=&quot;color: #d4d4d4&quot;&gt;, &lt;/span&gt;&lt;span style=&quot;color: #569cd6&quot;&gt;this&lt;/span&gt;&lt;span style=&quot;color: #d4d4d4&quot;&gt;);&lt;/span&gt;&lt;/div&gt;&lt;div&gt;&lt;span style=&quot;color: #d4d4d4&quot;&gt;&amp;nbsp; &amp;nbsp; &lt;/span&gt;&lt;span style=&quot;color: #569cd6&quot;&gt;this&lt;/span&gt;&lt;span style=&quot;color: #d4d4d4&quot;&gt;.&lt;/span&gt;&lt;span style=&quot;color: #9cdcfe&quot;&gt;_name&lt;/span&gt;&lt;span style=&quot;color: #d4d4d4&quot;&gt; = &lt;/span&gt;&lt;span style=&quot;color: #9cdcfe&quot;&gt;newValue&lt;/span&gt;&lt;/div&gt;&lt;div&gt;&lt;span style=&quot;color: #d4d4d4&quot;&gt;&amp;nbsp; }&lt;/span&gt;&lt;/div&gt;&lt;div&gt;&lt;span style=&quot;color: #d4d4d4&quot;&gt;}&lt;/span&gt;&lt;/div&gt;&lt;/div&gt;" style="text;whiteSpace=wrap;html=1;" parent="1" vertex="1">
                    <mxGeometry x="1200" y="210" width="380" height="260" as="geometry"/>
                </mxCell>
                <mxCell id="14" value="&lt;div style=&quot;color: rgb(212, 212, 212); background-color: rgb(30, 30, 30); font-family: consolas, &amp;quot;courier new&amp;quot;, monospace; font-weight: normal; font-size: 16px; line-height: 22px;&quot;&gt;&lt;div&gt;&lt;span style=&quot;color: #569cd6&quot;&gt;const&lt;/span&gt;&lt;span style=&quot;color: #d4d4d4&quot;&gt; &lt;/span&gt;&lt;span style=&quot;color: #4fc1ff&quot;&gt;objProxy&lt;/span&gt;&lt;span style=&quot;color: #d4d4d4&quot;&gt; = &lt;/span&gt;&lt;span style=&quot;color: #569cd6&quot;&gt;new&lt;/span&gt;&lt;span style=&quot;color: #d4d4d4&quot;&gt; &lt;/span&gt;&lt;span style=&quot;color: #4ec9b0&quot;&gt;Proxy&lt;/span&gt;&lt;span style=&quot;color: #d4d4d4&quot;&gt;(&lt;/span&gt;&lt;span style=&quot;color: #9cdcfe&quot;&gt;obj&lt;/span&gt;&lt;span style=&quot;color: #d4d4d4&quot;&gt;, {&lt;/span&gt;&lt;/div&gt;&lt;div&gt;&lt;span style=&quot;color: #d4d4d4&quot;&gt;&amp;nbsp; &lt;/span&gt;&lt;span style=&quot;color: #dcdcaa&quot;&gt;get&lt;/span&gt;&lt;span style=&quot;color: #9cdcfe&quot;&gt;:&lt;/span&gt;&lt;span style=&quot;color: #d4d4d4&quot;&gt; &lt;/span&gt;&lt;span style=&quot;color: #569cd6&quot;&gt;function&lt;/span&gt;&lt;span style=&quot;color: #d4d4d4&quot;&gt; (&lt;/span&gt;&lt;span style=&quot;color: #9cdcfe&quot;&gt;target&lt;/span&gt;&lt;span style=&quot;color: #d4d4d4&quot;&gt;, &lt;/span&gt;&lt;span style=&quot;color: #9cdcfe&quot;&gt;key&lt;/span&gt;&lt;span style=&quot;color: #d4d4d4&quot;&gt;,&lt;/span&gt;&lt;span style=&quot;color: #9cdcfe&quot;&gt;receiver&lt;/span&gt;&lt;span style=&quot;color: #d4d4d4&quot;&gt;) { &lt;/span&gt;&lt;/div&gt;&lt;div&gt;&lt;span style=&quot;color: #d4d4d4&quot;&gt;&amp;nbsp; &amp;nbsp; &lt;/span&gt;&lt;span style=&quot;color: #9cdcfe&quot;&gt;console&lt;/span&gt;&lt;span style=&quot;color: #d4d4d4&quot;&gt;.&lt;/span&gt;&lt;span style=&quot;color: #dcdcaa&quot;&gt;log&lt;/span&gt;&lt;span style=&quot;color: #d4d4d4&quot;&gt;(&lt;/span&gt;&lt;span style=&quot;color: #ce9178&quot;&gt;&quot;get方法被访问--------&quot;&lt;/span&gt;&lt;span style=&quot;color: #d4d4d4&quot;&gt;, &lt;/span&gt;&lt;span style=&quot;color: #9cdcfe&quot;&gt;key&lt;/span&gt;&lt;span style=&quot;color: #d4d4d4&quot;&gt;, &lt;/span&gt;&lt;span style=&quot;color: #9cdcfe&quot;&gt;receiver&lt;/span&gt;&lt;span style=&quot;color: #d4d4d4&quot;&gt;);&lt;/span&gt;&lt;/div&gt;&lt;div&gt;&lt;span style=&quot;color: #d4d4d4&quot;&gt;&amp;nbsp; &amp;nbsp; &lt;/span&gt;&lt;span style=&quot;color: #c586c0&quot;&gt;return&lt;/span&gt;&lt;span style=&quot;color: #d4d4d4&quot;&gt; &lt;/span&gt;&lt;span style=&quot;color: #4ec9b0&quot;&gt;Reflect&lt;/span&gt;&lt;span style=&quot;color: #d4d4d4&quot;&gt;.&lt;/span&gt;&lt;span style=&quot;color: #dcdcaa&quot;&gt;get&lt;/span&gt;&lt;span style=&quot;color: #d4d4d4&quot;&gt;(&lt;/span&gt;&lt;span style=&quot;color: #9cdcfe&quot;&gt;target&lt;/span&gt;&lt;span style=&quot;color: #d4d4d4&quot;&gt;, &lt;/span&gt;&lt;span style=&quot;color: #9cdcfe&quot;&gt;key&lt;/span&gt;&lt;span style=&quot;color: #d4d4d4&quot;&gt;, &lt;/span&gt;&lt;span style=&quot;color: #9cdcfe&quot;&gt;receiver&lt;/span&gt;&lt;span style=&quot;color: #d4d4d4&quot;&gt;);&lt;/span&gt;&lt;/div&gt;&lt;div&gt;&lt;span style=&quot;color: #d4d4d4&quot;&gt;&amp;nbsp; },&lt;/span&gt;&lt;span style=&quot;color: #dcdcaa&quot;&gt;set&lt;/span&gt;&lt;span style=&quot;color: #9cdcfe&quot;&gt;:&lt;/span&gt;&lt;span style=&quot;color: #d4d4d4&quot;&gt; &lt;/span&gt;&lt;span style=&quot;color: #569cd6&quot;&gt;function&lt;/span&gt;&lt;span style=&quot;color: #d4d4d4&quot;&gt;(&lt;/span&gt;&lt;span style=&quot;color: #9cdcfe&quot;&gt;target&lt;/span&gt;&lt;span style=&quot;color: #d4d4d4&quot;&gt;, &lt;/span&gt;&lt;span style=&quot;color: #9cdcfe&quot;&gt;key&lt;/span&gt;&lt;span style=&quot;color: #d4d4d4&quot;&gt;, &lt;/span&gt;&lt;span style=&quot;color: #9cdcfe&quot;&gt;newValue&lt;/span&gt;&lt;span style=&quot;color: #d4d4d4&quot;&gt;, &lt;/span&gt;&lt;span style=&quot;color: #9cdcfe&quot;&gt;receiver&lt;/span&gt;&lt;span style=&quot;color: #d4d4d4&quot;&gt;) {&lt;/span&gt;&lt;/div&gt;&lt;div&gt;&lt;span style=&quot;color: #d4d4d4&quot;&gt;&amp;nbsp; &amp;nbsp; &lt;/span&gt;&lt;span style=&quot;color: #9cdcfe&quot;&gt;console&lt;/span&gt;&lt;span style=&quot;color: #d4d4d4&quot;&gt;.&lt;/span&gt;&lt;span style=&quot;color: #dcdcaa&quot;&gt;log&lt;/span&gt;&lt;span style=&quot;color: #d4d4d4&quot;&gt;(&lt;/span&gt;&lt;span style=&quot;color: #ce9178&quot;&gt;&quot;set方法被访问--------&quot;&lt;/span&gt;&lt;span style=&quot;color: #d4d4d4&quot;&gt;, &lt;/span&gt;&lt;span style=&quot;color: #9cdcfe&quot;&gt;key&lt;/span&gt;&lt;span style=&quot;color: #d4d4d4&quot;&gt;)&lt;/span&gt;&lt;/div&gt;&lt;div&gt;&lt;span style=&quot;color: #d4d4d4&quot;&gt;&amp;nbsp; &amp;nbsp; &lt;/span&gt;&lt;span style=&quot;color: #4ec9b0&quot;&gt;Reflect&lt;/span&gt;&lt;span style=&quot;color: #d4d4d4&quot;&gt;.&lt;/span&gt;&lt;span style=&quot;color: #dcdcaa&quot;&gt;set&lt;/span&gt;&lt;span style=&quot;color: #d4d4d4&quot;&gt;(&lt;/span&gt;&lt;span style=&quot;color: #9cdcfe&quot;&gt;target&lt;/span&gt;&lt;span style=&quot;color: #d4d4d4&quot;&gt;, &lt;/span&gt;&lt;span style=&quot;color: #9cdcfe&quot;&gt;key&lt;/span&gt;&lt;span style=&quot;color: #d4d4d4&quot;&gt;, &lt;/span&gt;&lt;span style=&quot;color: #9cdcfe&quot;&gt;newValue&lt;/span&gt;&lt;span style=&quot;color: #d4d4d4&quot;&gt;, &lt;/span&gt;&lt;span style=&quot;color: #9cdcfe&quot;&gt;receiver&lt;/span&gt;&lt;span style=&quot;color: #d4d4d4&quot;&gt;)&lt;/span&gt;&lt;/div&gt;&lt;div&gt;&lt;span style=&quot;color: #d4d4d4&quot;&gt;&amp;nbsp; }&lt;/span&gt;&lt;/div&gt;&lt;div&gt;&lt;span style=&quot;color: #d4d4d4&quot;&gt;})&lt;/span&gt;&lt;/div&gt;&lt;br&gt;&lt;div&gt;&lt;span style=&quot;color: #9cdcfe&quot;&gt;console&lt;/span&gt;&lt;span style=&quot;color: #d4d4d4&quot;&gt;.&lt;/span&gt;&lt;span style=&quot;color: #dcdcaa&quot;&gt;log&lt;/span&gt;&lt;span style=&quot;color: #d4d4d4&quot;&gt;(&lt;/span&gt;&lt;span style=&quot;color: #4fc1ff&quot;&gt;objProxy&lt;/span&gt;&lt;span style=&quot;color: #d4d4d4&quot;&gt;.&lt;/span&gt;&lt;span style=&quot;color: #9cdcfe&quot;&gt;name&lt;/span&gt;&lt;span style=&quot;color: #d4d4d4&quot;&gt;);&lt;/span&gt;&lt;/div&gt;&lt;div&gt;&lt;span style=&quot;color: #4fc1ff&quot;&gt;objProxy&lt;/span&gt;&lt;span style=&quot;color: #d4d4d4&quot;&gt;.&lt;/span&gt;&lt;span style=&quot;color: #9cdcfe&quot;&gt;name&lt;/span&gt;&lt;span style=&quot;color: #d4d4d4&quot;&gt; = &lt;/span&gt;&lt;span style=&quot;color: #ce9178&quot;&gt;&quot;kobe&quot;&lt;/span&gt;&lt;span style=&quot;color: #d4d4d4&quot;&gt;;&lt;/span&gt;&lt;/div&gt;&lt;/div&gt;" style="text;whiteSpace=wrap;html=1;" parent="1" vertex="1">
                    <mxGeometry x="670" y="230" width="510" height="280" as="geometry"/>
                </mxCell>
                <mxCell id="15" value="" style="shape=image;verticalLabelPosition=bottom;labelBackgroundColor=#ffffff;verticalAlign=top;aspect=fixed;imageAspect=0;image=data:image/png,iVBORw0KGgoAAAANSUhEUgAAAawAAADNCAYAAADkF0TnAAAgAElEQVR4nO29f3hU1bno/+m31PEITAyYEW0GSCYBZPhl0l6ZHMuvEIkiRdSQYii9TRrFiD5SrIlzUYp64mBFuK38sDT0mpJyQ+qPqGggIAltM7R9EokkKCSTiImIE5FmAI9pT+/5/rH3zOyZzGQmyQQIvJ/n4XmYtfda+91rrb3e9b5rZb3fGBuX8N9EgpsqmBxfRyvz0P01mdMdhdz4QBKul9M5F1OM6W4L16i3ftVgw/HnIogpxnS3gc9fTuecem3Y/Cb0LYmc/LCQGx/IYCTAWTvHfr+Mf3gelsPI+wq4cbjm+e1lHNltZdj8JuJi3YkOWgM8X8HFydeSOd3RvbzTBxM5+aHmvWaYPLk8sgfB9/m+svk/J1RZAIzbwPQlcOrLJExjAE5w5LFlOMdtYPr9SQz1ufkcjl/P56t51Uwe41fOid3s/9XzDF2ym3iOMzRZzaum+zzv/iTOvzOTI+91F8fwcDXXNwa4psp5ZO1KzvtceJzJL8zk7K/n8/HxQC/4OJNfmMTnjy3D6Xdl6JLdTKaYQztLg1ROgPxzikm9YwzOIPIrZDJ2zTLYqcqkvjO1m0M8S/Ou94+kxV/mgHXn9ywtc4pJNTf41n+47xRMBve1gG2hELRe5xST+r3THAqSL2j5mnws2c1kjnM+OQkDwNk6b3nqeyio/ZhMxq7Jw/Slux8+zuQX5jO0djNHWMb066q99dPTO2vw6aP+eXy+G7cM4dRbkH6qfSftu6r1PD15mM+1oQ8H/zaDP0uto+FBZJ4Hp0YkBbiuzed3LWA9BG+LHr+LYGOUT3v7ysDD1VzPCQxjxnC+tk7pLwHqz7+fDgkuRd8419LB9eNyVEWg0rEMx8vuHzmMvC+PkceLON2xjM/bm9DfBOc+BChEH+vAtRvAysmXrZyMKcaU5vuMq/49jxs7yzjye6tX6e22Ks/fncgR9403VTB5fiFHdivPv+rfazGyuZuSGDa/AN37iRxRZbjxgVpGfpHMaYoxzYDWlxM5hzt/iPffncgRNMra7znXnrBx5M9FeJTXl0Ve5RiM4UmMOr6Z/b8qxfBwNfFLMnHuXMmhx4IMPsdnsr8HRWBIHsmRx2Z6OujkOc/3MLhreZzrx5zg8191vzI0eRwcL+55oAvEnEkYzp6mJcCz4pNP0/JYCAUy7gaGnj3NedQBYtxxHCfGMLzHTGMYPvw0nx9HHXDAUXuOUb2VPWyGYbq/GhN0G9QYM5/UF+YDeBVSn97JS89tkUnMuGGc/6O3Xr0D6zkcv17W6zY0mMdw/vhuRV5gaPJIWh6byREU5RE/B460b2D6Haj9DqXe12zg0NqVfLwWWLOMseOepyN5pmaAHIPzhUkYAKf7vWqLe1RWgepi6IlqNc/jTL5fkc1Xhs+If2G+omCB6S9U4578BZ5kqYzbwPTvnebQY8u8bfXw48pgP6eY6eOOc+gxX+V3/lc9f5uA8k2caPCOY5Ty8dpSPlbzdWNMEsPfmcn+99CMD6UYHs5Txo2dpeCTN1g99NQWIQg4Ri3zyOQ/yTUAhhGnOfQOTL9jHKd+vRvun8RQ6LH/RVxh8WEZf78vg2F/rtMkaqwlAFycVP93rsVBXHwhJz+0wk1JjGyv81zrC1f9ey3jJ+m9Ce11wW9WZdPHwsjYJkbO8JXvqnFmaNjso3T6Tg66KBd//6tbWRZx9kQe147IAUJYWWfrOKJ2mvNf9F+a87W71Q+llI7jyxh1fSagdsrjiiIMxNAlMxkacMAIU7n4M24D0+8YGXCQHLpkJoYT1ZqPtmeGLtnN5Ouq2b/2eQwPV4c3uLstg8cUy6DfCitg3bkHGwXDw9XeQe095YMG1Bnvbsa2z/fc26d3CtEWhofVGbRm8Di/cz77d3plINRADTA8SR3YUSwEzaDm7V/g/JV7UBzJ0BMN3r7zXgPOO9wDVCkf75zO9PurMZ2t49Bad1nP8/mJaq6fA873MokZd5qWtd7nGLTWit9EwHBHNal3uNNV62XOJAyMweCWG+DsaeB5jjz2fEjL1J+hyeMYOnyYtx4ATqjPN4/B+cfeK3/IZOz3RuLY6W9198DZOlrU9vSOD8rksuVXAfpB0HoAgrZFaBl6O0Y5/7iS8xTDiWo+Pg6Tw8gTeYWlDsTX3eRNGTY/g5E+brE878UPyzh5cwbDAOJjOPlXa8gn/OPLDpiUweQHMgDFhXcOIKYY4yQ4+VqiYuHdVMHk+HBkVl2HfqlXjQsn7+Bm6HXD4Itw7gw+EAZXZD2gcZ91HxwfJz4ZHL8O46M9/hnnh89n8nVuN0Ym14wIlekEZ8/OZ/L3vIOcIex66B/OxhNgDnDh+CFOnVU7XJ/eSaGntjA8XM3kEZoBPKAMSQyPBUIpLH9LMRKcOIHT7z2de+qIn/c4tN/A8OO7PcocFGW4P0hRirWquLQmL8n0Wgnd3G/943y4Fki4zJmP6ctq9oeq//4Sqh4CtMWlwP83EIX+4897ID7JJ+2rvzuU/9yU4bv2RBFnT8Sgv6kQfVQjZzsIybB4E6cPJnLkZeWfr0utgy73utTNpm55r7nWP82Kq93E9f+e0/09vuzgmjEzuQpUZajvdk9wYtDFaH8X0dWp59px7ucUct0kPf/5ZQjrKgyGXufvJ3Yzkmt6VLqPc/2Yc5yq1Xxw4zYw/YVqJs/xu1V1U3QfCDOJGYdvGSF5nMk9rJO5ratAs3zDw9WkvlDscd8os3BwNrpn0fMxDT/B55pyhy7ZTeoLuxnrqYtSOo6f4/zxQ8qAO24D8UHqYfqSzPBfK1jdechk7PfGcP6LE90vzZmPafhpvjoe3jsFKz9YWwxdsltVVj0omXHTGRXWc/pA+2nOj5nkabehS2ZiUN2eSn8Yx6k9y2g5Po7pDz/uzXf8EKdGTGJs8kjO9qqPATxPS+05hiar7r73GnCOmanpB/3jfO1xSJ6v6Yuaa1+cw/C9DX5rzFoCf5sG8xhvu/eLE5w9O4br1b5oeFgjZ4/10ENbEOhbCo+h1/fiO+qBAbCwAKy4aCIOBy7g3F/tXH93AZMnFUC7nZNnfUZy/nG8kX+7OwMabN6NFX4bJcY/0OTZvHCuxUHcDK0Lz71RQlkTi3ugCXBxssEB12qe8+c9nH7AbZl5N12c212G/gFVPvBu8viwjJM3FyjPPmuntcHF9WG+/xcN8xh/dxM3glduv+d81WDDEWr9KgTnd1bjfMG9DqL1uz9PS+1MxbQHnxnV0OQ8UpMVK9cZ0MLxpwc3RdAZoTK7dX8kBo+LYSVD3R+P222DdqbaC+tKxfmr3Vz/grsspQ5CWXvndxZzak0eqS/0oh78NrpMfqE6jBm7bz1oZ+Q+i/J+i+lB36knGYK1xbgNTE4eBmjceOrzzvcgQ0Q5vpIjtbv9nr+S82Qydo26yeI4cLwYx5o8Uh9GrVfFbT193HEO7ez9Y8/vLMYxLk91Kz7PkXcmker+JgjHQvLrxy9Ue63Lbu/kXYc8v3M+Rx6u9l7zsUiDfJvjNhA/oi7AJK4HGYLKXcrHf5xPqvqNOd/ZjXOMew0rWD0Qoi36hnNPHfH3u8ccddNFD/h+F0o+d71+I2K7BC8YqkuxMtmzseOqf69l/LV7VJej0BPh7bzzI+huth52wAkXmMu3LYLuTL3MuFLesz8MQoUVYGNFt23vlwfRpmkkPfi/I1be/sdm+iisVO2iqyBcQux/bKZnU4XbCpL+emXz5//IHJwKSxAEQbjyGJBNF4IgCIIQaURhCYIgCIOCITfeEGhTpiAIgiBcWgw5+dmAbGIVBEEQhIgiLkFBEARhUCAKSxAEQRgUiMISBEEQBgWDSGFlYCvfhe3WYNdjSbFM9EtbgG3XLmyLAudYsSXAtUWFvLolL8DdE8m8d5Zf2m2sLdmF7d7udxvvX8PaLP/AWIIgCEJfGUQKq4yO/5pIyg8sgS/fvJRVW3ZxcHue5jBsA8ZxJozRgbO0DYklJdWvvOhYEhICKJrUpfzkmfWU3K+9tpd2TMyZt6Db7XpdLLevLufVglmsLW/goyPd/x3ctjTEOwuCIAhuLomTLmyVTSTXJZKWr0lcV0FrRvfT1rvhslM4bRnbAMYsYOPLz2E+uRfXjRPRo8MQHwufOnB2ATgoT3+Il4C15Q1kjtOh+2YXbdU2asau4a5RXTBESevqAnQ62l73ymW8v5i3V0ZRY9cz+7vqAb7a+wHnIRszcndgTl2AcUoG1nntrP+FHfwOejcv/TmZX29malb/T2sXBEG4Ehig09ojQH46cW4Ftq6C+tiyHgZ3C7biB3G9soxHH3gfI0bMSdehw8yyNRmwZxPFxwDO0qzmWLNwEmuwYKt8icSjVTB2KW9MTqcgu5j6Je1MTXNQUruUjre8T2n7tZWnPkug/K0qoJDKw7HsmqwqSz9+WPAiyXWJzHjAQnrSdeg8V87S/HoVhnt/3t8aEgRBuKKIrMLqZhW5qHk2maztihWVqV5y2W2K8tHeb2qiNQPAQWl8OgWaUhaO0MPVMSxc5Ot6czW/xYEjAJ283x6F9aUakl+xco+tirYTAAYWrwGcb1H+endxjasLuJ09PPoazLtDR9SiBSw0XA1Dolj4gy6qNr1IzZ8A1vD2kQwSgOY3JlHuUWJXE7NoAQvVX12n3qfC3u77kNQHWVeQhE61wHRD2yl9vQpHuHV6GWKrrMXo7CDForS9pz+QQ8nhAlLc1qjHei6ksiUJHCYSTC5q7EpeT77sYupXW1Qjtnv/EQTh8iCCLsFCKlvm4dQoqNudyoCSW1LLCjb7DEqGPV5XW0CXoIbcklpWxXXQ5vKmRX3bROc7vnmMWZvYMu8qnAYjRoBuLkGg9U3SHtwMqYVUvpQB9iqiJkDD+VmkxIKOLrr+C8XV56ri0VtyKdfIsbg9WXnmmBc5eGABhvNuTaSj6282jxXoeadjbovNqr57Bm3T0nH41MmVha2yicwYVRllF1O/2sC7AZSMt9+YqGzJwGC38a6hQMm7x4A1qY64NKhsSaLWnX9dBa3znF43sSAIlw0XYNNFDrPMevSWAlpbmmht0cygw8JCklFHY1k6aenef++dAv7le2fbn3ZQ+Iu9NDYepbHxKM3o0X/xPgfqjnrSGls6YEwOJc9/H8NXXSTMSqLp/+wFvYMaewcd9rVMmDyJNfYOOhr3epRVN1KvI6p9L9mTJzFh8iTW/82Fs73vysdW2aTWTxOth4vJ9VwppLLFe62+xBsZObek1punpQJbOOVlF1OvKa9y3cDJ0BPNe1SFsr3dJ2CgVgarRdtRHLyrKndPXoB1SSRgItMtQzjrnoIgDEoi6BJ04HTpSVndROtqFHdOmmJRaV2DvebWDMwxDio2+F9w4Wz2TTHmrWG7uYoJd/4Uxqzk1behZsNi7FMO8JMha0lbUaXcODmPjqoNvDQqjx9SR2JOHl/ruqhZuwdneQ62VBOTkly8t6IsoEgpqbNoSzCgcx2lRk3TX60LeK9yMYGN618EhmP4JrQFuKUgLTGIG8tKWnzgwJTbspKDWhFBy9u+jKlB2iHSMvSadRVkmrwuPcXCCgNHGXFpErxTEC53ImdhZc9kEnYK4xOJi08kzuOSKaKqEVKWFPaY3RCbEyA1llUrZxL1tzfxzb0U4wj/ey2s+h+xNO5X5vi5zywl4fgOCrZD6Vt2SF3DllT11iObeXSVMlvvas/lnl80c7XLwZsn1rJ+v467tixFv99GwZ+6S6SLK2bL+jxsU2Jpa9zhSY/RB1FYZ9ppPqPHbJ6I2WyETx20B75TAHA51fW9QhZbwjDF8+toNs2jJHuA5RIE4aITOYW1vZoGLFhburuVtmVtpiYmI6jrqGCnHTwuQ/e1WJa99Dtyxzby0pO+rjbzvUkYh7vo2K9JvDeblOuOcmBDLAtX72LFd7tobjOyav2LbMxKQNcVS3pBISkBRE9flMTXdTtoW1DAiltjcLZ0YEgtYOOPtH+IHEvMMB3GcVG88X+/ZpLJwYHNquqZnEdijAvnsQCFv27lnnStO1PZVi8EIL+MGk8fSsJpd4XOg5W0sg7Fsg/gshQE4fIhcpsu1lXQmlSncc34bsLoLZlbarBZOihetZA1qmIyrinn4I8m0nXehfPQZrJyi1T3Wixr365g9scrmLGiihXbK1h4I4CLtsZ2XABdkHDHTDpfTiZri1Jebkkti89Uo7t1Ih3tMSSZXBzY/BDZvzqK+UcvsnHlAoztO7jvzrXUAbMLCkjY6cCyaw3GqhWk5VeRub0Gm0WPq6Oal2Y85HGPBd1I8rNd1GffjP6bHRywpZDdFzepIAjCFUiEdwkqW7/dNJcF3/kXmomYJx+l8UiYt4+ZiJmjNJ4IfktK6iza9ld51pCMlttIOLcXJxOJGmui8623aPTJEYt5MjQe8XPijYnFeKI94FpUaDn7kVcQBOEK5pI46UIQBEEQQjGIzhIUBEEQrmREYQmCIAiDAlFYgiAIwqBgyI03GC62DIIgCIIQkiEnP3OGvksQBEEQLjLiEhQEQRAGBaKwBEEQhEGBKCxBEARhUHDxFdbNBbxasYlMTVJu8QEObswIePuKkgO8WnCz5t4aKjfeNsBC9oOHN1G5JQ+AFVt2YVsUbkYLGysaLu13EwRBuIBENuJwgOOZfPBEkFWORUoapQNcdF4zk4c2LuXr6k7Qp/PD6V3UPfW1GmFYCSmvHJmUg8UcA4feVwvMwDIe2mx7I/gOSoDJSY22yARXjDWRkNCp/DfBhPFvYE7NY/Gi6aQkmTFe42DbtMWsB5g8i4UJw5V8+u+TMs5Fwy6db6Rll4Py/Uf7L5cgCMIgI8IKC4KGKM8upv4R78+kBT9hRZIaPuKrdromLGXFBOVnVwuY/+dDmNXyyl+vovGZcj66y4RuqI6u+xv4KMNOYVkUKTEx8HQDHz0N0EHNC7PJfkUpJzdgVN9C3wi1A0jmz17EkqBX42GtRI+elJ818PsOBw0f1FH+pI2XomexakEsvNUOSwvYuCiWLnd05POQsvI57wnzQ3To2sso3y+xnwRBuPIYAIWlI2rRAhb6JxuuBr72/Cy3LqY5dQEJmpBHXafep8LuPmg2jy3Fen63zKYESbxKR9fxHeTvaATSWbUmhnnfn0hb2TLS8u0ollEeum/2V/4isqYNVNj6LhpfSedOm/cw3dlbfsOyoS7Wv6XG1jrxJhOCBSNcV0FrUt+ffufCRYwZO5a3y9/gxMetvcw9kwcL5zKacxzevo7S5tA5Lm2ieOqBO0k+c5CFu8I4injqDMrHt4Z3rx8z5t7JqiQXbzx/kN+6ExMysGZPYTht7LX+mgO9LlUQrjwGQGHFMvvp55jd7Uk6dF12n6QfFrzI7UMcOLsAfSyG1g1U3DST+iXtTE2DhCmxmMET1ZevOyh//S3Awoo1sbia99LmMGHE7nv6eXYx9astKLqwgNaWAvyjHhtLamm16H3T11V4Qqy77P4uQV93Z/fr3Sn9xU8pXVfBQn0zj67aQMpqCxt/UMFHWZqb/tFOxaYdfjnz2FLxfd+T73en82CPTwvNlGnK2t+dC+/ig8OH+WN1uMNkPJlPzIW9T/JEVT+FuGTQEx0FLYfCU0AzYvSc/zKc+FzdMY2Igo/rvcoKoLmMQmsZs5c/w4RZcOCyqVdBGDgGxCX4xuTQLkEFF817NlF8DEj9KU9H9+Y5ndTZGpn12ko2Dq3ing2aS2oY+MAuQQATKYYy4uKt5JbUYl1SCNutkJ9OXH7g0Oy5JfMw2G3E9XJdyzxEB6Nm8deDxRSv/R3/0eh3Q9cX1L3jnyuWhFEuDqz9HY2AeenPmR3bq8f2SNS10Xxv1mymTJvGjld+S+ff/x4ih5ERw9v4KKxBdTZbK8fz/quQcc9oAM7Zi7jrKSWOMMuXs09NB8BRydw/GHjjXmi8biq3RH3CX+zR3GIZTvOrVpZvBTDxH3/I4ZYoupcHzF7+DLexjye2VodZA8CoKK6njcp69+9J/H4hbH25gYPuezRWlWlEFJ9/aeT3j9/JUOB83dvct6+THy/OIu1L5f9At98QhTE6mGKcyYTRbXy0NXyxBeFKZgAUlp7E9S+y0T852oAO/1M19CTMe4gVswB9DITwUum/u5KPjqwEQPevOjhRRMGOeVT+qJDcDdVAF11nwpHRQanqdtvW3oE1jNOptrV3YM0ooLXSpAlS2RNrePVIBmadDs7Y2ZZvxfT0AXLdFqXyRhhHNbP+Hbsn8KOXr+l4/S3KAcO9Pw/npXpN1LXRLP3Rj9n0vzf0fOOs8Yw+e4bwt7aMJmNuPYVpW3lv+XL2TRsNOFRlBWVpVl4G5jz9BI/wCSSMZ5hpNCNfLeIvc3O4xVBJoX06iwFFWS2GrVbm7gPmZvLG8u8wBwfvARCPIRoIq901nGrgvuf90s50chAjGx6P4wPVfadYVYrSiY+G9c+XcHDqDMrH64FOHF92ctcI5f/KfZ18dLBTU2gnT79cEliGBAPRZ8/wSS9FF4QrlQFRWEbzRPT+ybqYAAqrdxaW628bVGupkMrDisnRtmEDb9xagHmBUp7z9Ui8QwBU64t1FbS2NIGjLITiKuKp+4poXPobWpPa2WZvx6Z9X0BZixseJP/VxKhrgTFXR/JFeoF7neWTfTzxXJjWy1wDozjLX7aW8h4w58ZozjmVIfmBaaNpflVRVmAideJwTu1zAGnQWc+uraNZfM8nlN37Cal/mM7pg8DyNG6JGg75hezLBzjLX9Y9pyorgBZKn3uS0v6+6/Uj4Ms2mGrk+k49xlHw4/FGPj92EEZNYkJUJ7XFivU1I8bbuw82fMzyhVHMoI2DU6eSfKaehafCfGZzGaXN+fykMP8yWRcUhIFlABRWO++lh+sS1KEfN5vZMcANOu2ejF5gp+CehUAOJc90v6o3mPpSaHDy04k7Vkz9I7HkQgDLyE17gGjJGotS/W0g0CjVRdc3J7Ls6ec8Kc1Hgav6JXk3Ov9+hh2v/Db4Dc1lFFpryXwig8yE6vAG1IRohjkO8b/2KT8TDcM5ddgBmBh93VlOu8uY+x3MUZ/w7laY83Q0zfsUa8zqOMZyRrM16gzv74M5M6K7uQAHDj1PjYdKB0y53kj02DY+2AVMHcHQj+t5WlVEphFRtBxTXXynOvk8Kg4TUcyaDm+8HP6mDFNGPpmU8YS1JfKvIgiXIQOy6WJORQWV/sm6GPR0W8DB+aef8qi64aE+Fs/6ExR2L/rqGPVvkqLQ+V8bY8aox2fzxbasPSxuyaC1JQP/TReByC2pxWpxz56VzRrNZYmk5YOtsolMje5rLkvsQVkFI1wLay13Tl7bLdW4vttb95k/Vh3oxaaL8NFaVN2UlIfZbM2fyjA+QbG04PRBVTk5P4G532FU5xma1LuHGVSXYgBmL3+G26I/4DfPlQW5IzxmxOj5fEQc0ccO8jQj+P30qQz9uJ6V+G+4UNx+Zz5353RxplPPlMVTOVN+kB7Uvx/xfCcBHGWirAQhXAZAYbloazxKt3lm9ESMQVx+mVsOsDY1Fude1WX4s13UZ9+MvmOv14n4jy5045ay7mn19xk7ylJQLGvfPsCycV24jr7Jmz4lW0mL93fbWUmL1/zMTydO/e+2rOSgSqggLbHXf7eVu72GVbfG0LbfvVEjXAur29N5+3gO5n+5aH6z738k/cHh93u/rT0hGRMtYbqrtG4+gNGMVC0lcLD/KFjzC9mXf5a/vFrPqLnQxGhuVu9JvFe1xhLSGPbFMcXt99QuUv+Qw77KNLXMTyhL26q6FSNLfPSXrK8HpsLQKJfHWjKNiOLzY+51KT3RUS4+8Lj9Omk7E8WEL//IynBdgYCykeUMH4kbUBDC5htj4xL+O3LFTWT2IgNOz8kUGsZYSDdD4zv27srsCsGcehtRzXupOeFOmcjsO6JovpTrZNb9PDfhWO924F1JBNpdGA5Sr4LQayKssITLD98/GL72sUIyAi4LDpzlc0kydQbl84zQWc/63igr+YNhQegzorAEQRCEQcHFP61dEARBEMJAFJYgCIIwKBCFJQiCIAwKhtx4QxjnEgmCIAjCRWbIyc/8j0sSBEEQhEsPcQkKgiAIgwJRWIIgCMKgQBSWIAiCMCgQhSUIgiAMCkRhCYIgCIOCC6KwcktqqS/JuRCPEgRBEC5TxMISBEEQBgURU1i2yiYq1/WUNpPKliZaW5porVSDM2YXU99Sgc2TI4eSw93LEQRBEISIKSyHU43Iml1M/eFicsnBGOPCqUbX1VvMOJ9NJC6+jGbTPEqyge3LeNdhItmtoLJnMgk7u/IjJZUgCIJwuRBRl6AhNofcVANgQAmZ1EGbGpLeZd+shqd34NZtAAV1DhKSFIsrN9WMc8+yPoSeFwRBEC53IqawtrV3oDeYMBng3T2QvM6EASeOUBnzy6iJScJGDrMMjWJdCYIgCAGJnIV1zIkrJolkZx0Fx5wY5s0jvGN1i6hqjCG5ZCYGZ7VYV4IgCEJAIqewtrfj1Jsw4IDt1TSgR9/RHpYC2ra/EYPFjHN/UcTEEQRBEC4vvjE2LuG/L7YQrKugNamOuDTrxZZEEARBuEQZclGfvq6C1gwTuOwUThNlJQiCIATn0rCwBEEQBCEEctKFIAiCMCgQhSUIgiAMCobceEN4m88FQRAE4WIy5ORnzostgyAIgiCERFyCgiAIwqBAFJYgCIIwKBCFJQiCIAwKBpHCysBWvgvbrcGux5JimeiXtgDbrl3YFgXOsWJLgGuLCnl1S16AuyeSee8sv7TbWFuyC9u93e823r+GtVmxwYQVBEEQeskgUlhldPzXRFJ+YAl8+ealrNqyi4Pb8zB7Eg0Yx5kwRgfO0jYklpRUv/KiY0lICKBoUpfyk2fWU3K/9tpe2jExZ96CbrfrdbHcvrqcVwtmsba8gY+OdP93cNvSEO8sCIIguLkkTrqwVTaRXJdImja0iPvYplC47BROU3QxgGAAACAASURBVGNojVnAxpefw3xyL64bJ6JHhyE+Fj514OwCcFCe/hAvAWvLG8gcp0P3zS7aqm3UjF3DXaO6YIiS1tUF6HS0ve6Vy3h/MW+vjKLGrmf2d2OURO39gPOQjRm5OzCnLsA4JQPrvHbW/8IOel+xzUt/TubXm5maJQf+CoIghMPFPUuwJ/LTiXMrsHUV1MeW9TC4W7AVP4jrlWU8+sD7GDFiTroOHWaWrcmAPZsoPgZwlmY1x5qFk1iDBVvlSyQerYKxS3ljcjoF2cXUL2lnapqDktqldLzlfUrbr6089VkC5W9VAYVUHo5l1+TAASd/WPAiyXWJzHjAQnrSdeg8V87S/HoVhnt/3t8aEgRBuKKIrMLysYpc1DybrEYZVqyoTPWSy25TlI/2flMTrRkADkrj0ynQFLtwhB6ujmHhIl/Xm6v5LQ4cAejk/fYorC/VkPyKlXtsVbSdADCweA3gfIvy17uLa1xdwO3s4dHXYN4dOqIWLWCh4WoYEsXCH3RRtelFav4EsIa3j2SQADS/MYlyjxK7mphFC1io/uo69T4V9nbfh6Q+yLqCJHSqBaYb2k7p61WhA1textgqazE6O0ixKG3v6Q/kUHK4gBS3NeqxngupbEkCh4kEk4sau5LXky+7mPrVFtWI7d5/BEG4PIigSzCHksN58EuvknKTW1LLCjb7DEqGPV5XW0CXoF/+VXEdtLm8aVHfNtH5jm8eY9Ymtsy7CqfBiBGgm0sQaH2TtAc3Q2ohlS9lgL2KqAnQcH4WKbGgo4uu/0Jx9bmqePSWXMo1cixuT1aeOeZFDh5YgOG8WxPp6PqbzWMFet7pmNtis6rvnkHbtHQcPnVyZWGrbCIzRlVG2cXUrzbwbgAl4+03JipbMjDYbbxrKFDy7jFgTaojLg0qW5KodedfV0HrPKfXTSwIwmVDBDddFNHWoSdldROV67TpOcwy69FbCmhtaaK1RTODDgsLSUYdjWXppKV7/713CviX751tf9pB4S/20th4lMbGozSjR//F+xyoO+pJa2zpgDE5lDz/fQxfdZEwK4mm/7MX9A5q7B102NcyYfIk1tg76Gjc61FW3Ui9jqj2vWRPnsSEyZNY/zcXzva+Kx9bZZNaP020Hi4m13OlkMoW77X6khzPldySWm+elgps4ZSXXUy9pjxtW0Vahp5o3qMqlO3taM9a0cpgtWg7ioN3VeXuyQuwLokETGS6ZQhn3VMQhEFJRF2CBWmJFOAedKC5zG0B+boHe8WtGZhjHFRs8L/gwtnsm2LMW8N2cxUT7vwpjFnJq29DzYbF2Kcc4CdD1pK2okq5cXIeHVUbeGlUHj+kjsScPL7WdVGzdg/O8hxsqSYmJbl4b0VZQJFSUmfRlmBA5zpKjZqmv1oX8F7lYgIb178IDMfwTWgLcIu77rpjJS0+cKywbVnJQa2IoOVtX8bUIO0QaRl6zboKMk1el55iYYWBo0yCfwrCFcCAbGsvSEuk0O7CEJsDFFHVCClLCnvMo9zrTyyrVs4k6m9v4pt7KcYR/vdaWPU/Ymncr8zxc59ZSsLxHRRsh9K37JC6hi2p6q1HNvPoKmW23tWeyz2/aOZql4M3T6xl/X4dd21Zin6/jYI/dZdIF1fMlvV52KbE0ta4w5Meow+isM6003xGj9k8EbPZCJ86aA98pwDgcqrre4UstoRhiufX0WyaR0n2AMslCMJFJ4IKy9dtZLV0eFw427I2UxOTEdR1VLDTDh6XoftaLMte+h25Yxt56UlfV5v53iSMw1107Nck3ptNynVHObAhloWrd7Hiu100txlZtf5FNmYloOuKJb2gkJQAkqcvSuLruh20LShgxa0xOFs6MKQWsPFH2j9EjiVmmA7juCje+L9fM8nk4MBmVfVMziMxxoXzWIDCX7dyT7rWnalsqxcCkF9GDRasLU20tiThtLtC58FKWlkHKasDuywFQbh8uCT+DisQmVtqsFk6KF61kDWqYjKuKefgjybSdd6F89BmsnKLVPdaLGvfrmD2xyuYsaKKFdsrWHgjgIu2xnZcAF2QcMdMOl9OJmuLUl5uSS2Lz1Sju3UiHe0xJJlcHNj8ENm/Oor5Ry+yceUCjO07uO/OtdQBswsKSNjpwLJrDcaqFaTlV5G5vQabRY+ro5qXZjzkcY8F3Ujys13UZ9+M/psdHLClkN0XN6kgCMIVyCWrsGAi5slHaTwS5u1jJmLmKI0ngt+SkjqLtv1VnjUko+U2Es7txclEosaa6HzrLRp9csRingyNR/yceGNiMZ5oD7gWFVrOfuQVBEG4grmEFZYgCIIgeBlEZwkKgiAIVzKisARBEIRBgSgsQRAEYVAw5MYbDBdbBkEQBEEIyZCTnzlD3yUIgiAIFxlxCQqCIAiDAlFYgiAIwqBAFJYgCIIwKLj4CuvmAl6t2ESmJim3+AAHN2YEvH1FyQFeLbhZc28NlRtvG2Ah+8HDm6jckgfAii27sC0KN6OFjRUNl/a7CYIgXEAiG3GYQipblMi8AfFEkFWORUoapQNcdF4zk4c2LuXr6k7Qp/PD6V3UPfW1GmFYCSmvHJmUg8UcA4feVwvMwDIe2mx7I/gOSoDJSY22yARXjDWRkNCp/DfBhPFvYE7NY/Gi6aQkmTFe42DbtMWsB5g8i4UJw5V8+u+TMs5Fwy6db6Rll4Py/Uf7L5cgCMIgI8IKC4KGKM8upv4R78+kBT9hRZIaPuKrdromLGXFBOVnVwuY/+dDmNXyyl+vovGZcj66y4RuqI6u+xv4KMNOYVkUKTEx8HQDHz0N0EHNC7PJfkUpJzdgVN9C3wi1A0jmz17EkqBX42GtRI+elJ818PsOBw0f1FH+pI2XomexakEsvNUOSwvYuCiWLnd05POQsvI57wnzQ3To2sso338xYj/N5MHCuYzmHIe3r6O0OXSOS5sonnrgTpLPHGThrjBOdpw6g/LxreHd68eMuXeyKsnFG88f5LfuxIQMrNlTGE4be62/5kCvSxWEK48BUFg6ohYtYKF/suFq4GvPz3LrYppTF5CgCXnUdep9Kuzug2bz2FKs53fLbEqQxKt0dB3fQf6ORiCdVWtimPf9ibSVLSMt345iGeWh+2Z/5S8ia9pAha3vovGVdO60eQ/Tnb3lNywb6mL9W2psrRNvMiFYMMJ1FbQm9f3pdy5cxJixY3m7/A1OfNzai5zxZD4xF/Y+yRNVfX/+pYWe6ChoORSeApoRo+f8l+GEO+mOaUQUfFzvVVYAzWUUWsuYvfwZJsyCA5dNvQrCwDEACiuW2U8/x+xuT9Kh67L7JP2w4EVuH+LA2QXoYzG0bqDippnUL2lnahokTInFDJ6ovnzdQfnrbwEWVqyJxdW8lzaHCSN239PPs4upX21B0YUFtLYU4B/12FhSS6tF75u+rsITYt1l93cJ+ro7u1/vTukvfkrpugoW6pt5dNUGUlZb2PiDCj7K0tz0j3YqNu3wy5nHlorv+7hWm3en82CPTwvNlGnK2t+dC+/ig8OH+WN1uPN6IyOGt/FRWIPqbLZWjuf9VyHjntEAnLMXcddTSlhGli9nn5oOgKOSuX8w8Ma90HjdVG6J+oS/2KO5xTKc5letLN8KYOI//pDDLVF0Lw+YvfwZbmMfT2ytDvN9gFFRXE8blfXu35P4/ULY+nIDB933aKwq04goPv/SyO8fv5OhwPm6t7lvXyc/XpxF2pfK/4FuvyEKY3QwxTiTCaPb+Ghr+GILwpXMgLgE35gc2iWo4KJ5zyaKjwGpP+Xp6N48p5M6WyOzXlvJxqFV3LNBc0kNAx/YJQhgIsVQRly8ldySWqxLCmG7FfLTicsPHJo9t2QeBruNuF6ua5mH6GDULP56sJjitb/jPxr9buj6grp3/HPFkjDKxYG1v6MRMC/9ObNje/XYHom6NprvzZrNlGnT2PHKb+n8+997zjBrPKPPniH8lcLRZMytpzBtK+8tX86+aaMBh6qsoCzNysvAnKef4BE+gYTxDDONZuSrRfxlbg63GCoptE9nMaAoq8Ww1crcfcDcTN5Y/h3m4OA9AOIxRANnelkJpxq473m/tDOdHMTIhsfj+EB13ylWlaJ04qNh/fMlHJw6g/LxeqATx5ed3DVC+b9yXycfHezUFNrJ0y+XBJYhwUD02TN80kvRBeFKZQAUlp7E9S+y0T852oAO/1M19CTMe4gVswB9DITwUum/u5KPjqwEQPevOjhRRMGOeVT+qJDcDdVAF11hDVwOSlW327b2DqxhnE61rb0Da0YBrZUm4oK57HxYw6tHMjDrdHDGzrZ8K6anD5DrtiiVN8I4qpn179g9gR+9fE3H629RDhju/Xk4L9Vroq6NZumPfsym/70h8A3udZZP9vHEc2FaL3MNjOIsf9laynvAnBujOedUhuQHpo2m+VVFWYGJ1InDObXPAaRBZz27to5m8T2fUHbvJ6T+YTqnDwLL07glajjkF7IvH+Asf1n3nKqsAFoofe5JSvtaCW6uHwFftsFUI9d36jGOgh+PN/L5sYMwahITojqpLVasrxkxXj/2wYaPWb4wihm0cXDqVJLP1LPwVJjPbC6jtDmfnxTmXybrgoIwsAyIwjKaJ6L3T9bFBFBYvbOwXH/boFpLhVQeVkyOtg0beOPWAswLlPKcr0fiHQKgWl+sq6C1pQkcZSEUVxFP3VdE49Lf0JrUzjZ7Ozbt+wLKWtzwIPmvJkZdC4y5OpIv0guayyi01pL5RAaZCdXhDagJ0QxzHOJ/7VN+JhqGc+qwAzAx+rqznHaXMfc7mKM+4d2tMOfpaJr3KdaY1XGM5Yxma9QZ3t8Hc2ZEd3MBDhx6nhoPlQ6Ycr2R6LFtfLALmDqCoR/X87SqiEwjomg5prr4TnXyeVQcJqKYNR3eeDn8TRmmjHwyKeMJa0vkX0UQLkMGQGG18156uC5BHfpxs5kdA9yg0+7J6AV2Cu5ZCORQ8kz3q3qDqS+FBic/nbhjxdQ/EksuBLCM3LQHiJassSjV3wYCaYEuur45kWVPP+dJaT4KXNUvybvR+fcz7Hjlt6Fv7AVai6qbkvIwm635UxnGJyiWFpw+qCon5ycw9zuM6jxDk3r3MIPqUgzA7OXPcFv0B/zmubIgd4THjBg9n4+II/rYQZ5mBL+fPpWhH9ezEv8NF4rb78zn7pwuznTqmbJ4KmfKDxJ+bcbznQRwlImyEoRwGZBNF3MqKqj0T9bFoKfbAg7OP/2UR9UND/WxeNafoLB70VfHqH+TFIXO/9oYM0Y9PpsvtmXtYXFLBq0tGfhvughEbkktVovbNlQ2azSXJZKWD7bKJjI1uq+5LLEHZRWMcC2stdw5eW23VOP6bm/dZ/5YdSC8TRcJyZhoCdNdpXXzAYxmpGopgYP9R8GaX8i+/LP85dV6Rs2FJkZzs3pP4r2qNZaQxrAvjiluv6d2kfqHHPZVpqllfkJZ2lbVrRhZ4qO/ZH09MBWGRrk81pJpRBSfH3OvS+mJjnLxgcft10nbmSgmfPlHVobrCgSUjSxn+EjcgIIQNt8YG5fw35ErrpDKllm4Xj9EN8dI9ETSk5ysV/9wGMBWWYtxZzJvfvcAa1Njce79KTNWvAU/20V99s3oO/by6IyHKAdQ/w7Lwxk7hTNyKSaWtW8fYNm4LlzH3+TBO63eXYUXmdztNay6NQbnfiszHizDVtnk3RUJeNaw3HWyroLWpLoArsYC3j6eg/lfLprfXEVaft/2QPdpW/us+3luwrHe7cC7kgi0uzAcpF4FoddEWGFNZPYiA07PyRQaxlhIN0PjO/buyuwKwZx6G1HNe6k54U6ZyOw7omi+pOvE9w+Gr32skIyAXtaBs3wuSabOoHyeETrrWd8bZSV/MCwIfSbCCksQBEEQBoaLf/itIAiCIISBKCxBEARhUCAKSxAEQRgUiMISBEEQBgVDbrwhjHOJBEEQBOEiM+TkZ/7HJQmCIAjCpYe4BAVBEIRBgSgsQRAEYVAgCksQBEEYFIjCEgRBEAYForCE7mQXU9/SROW6iy3IxaSQysutDtZV0NpSge1iyyEIfSTCCkv5yFtbmnw+jNySWupLciL2lEiX1yPZxdQfLiY34jLkUHK4lpJs9+/AdRcKW6U7T3iD6wWtOwqp7OUAmVtS63mf1pYmWgPUfaS4YHWhBv1sbWmitTJA2JyQ9K4etX1iQN5PndC09qG/XihslZfZZEMABiQeloPS+AABHIUQWEmLt6IMTkm9yumO2RUxPDHJLg4uu02NLH0xcbdHBNBGq+5d0/ae7GJuj7FTGL+se7w2txyRwGWnUA2LY6tsIrOykIIeI3ALQv+5gC7BmV4LwmeWqbUsfGdFPrPtYDNtdfba82xKmaFWVjbR2lJLSUmF3+wzh5LD/jKoaast6PUWrAFnrEHeSTuj9pt9eme/BaToGTh6kCGY3NqZebc61Zbn1xaB2kkpK4METGT2y7pQ8bN0tdaRrdLbpt3byLdt60tyPBaC1aJHbylQr3mtXe37+PerYH2yZxn6glbuDBK0l3poC8Yb0He0+ykrbVm+fSG3pJbKEo3FpG0jH0squBVVUOeAGCUCt9Iuxd7+pZUvSJ/smwzKN13i31bqMzJNkJDhmy+3pDZA2ZeedSgE54IpLL3FjPPZROLiy2g2zVMHhxxKDmdAWSJx8co1MtSBY10FVnMjhfHKtcJGM1b/AS+7mPqMGGqeDcfCMGFw2ih16EkxOyksc6A3KIGdbJUFGPb4y1BE1rRE4p6143LZPXJoZ/4B3ym7mPoMKFXvjyuDTPWjzS2pJZMy9Tk2alyBJe03PcigyG2g1i1DTIZnUC5Ic9dBIqUOv/LmOQO3hV87xamzbqWsMppxeOUIcwbuVSLhKjm1TeOV9sKS4RmEbJUFTGq0ed5ralaRYkHGJ1Jod+Gyu695o1Fvy0ruXgcB3tW3TwaXoS/4yl2GJzBxsLZwD+wZJjBl+A3wal/WlqMhwWLg3Xj/b7OQytXu9O59yEfWJBOuxmqPkvT2r0RKOywsXkfIPumVQdsnQ8lgYhKblWvP2jHMKyY3P93Tds2ecUXx+GzL2kOzKcmrKFPNYC8Tb9Ag4oIpLJd9szogOHB6BmoTBr2DWo+ysVLr0GMYD7mxMT4fwbb9jbjUWRyog9pqMw0hwt57cfCuqmya92jdJYUk+8zG/GazvX2n8Qb0jjrvR5BfR7PegIkcZpmhZucFcJsElcEtt/sjLaKq0YUhtmdrIDfV7GNlWi1e09CWZPKrz/7jVSLhKzmPDNvb8Z7dUkiyydvu/SVUnwwsQ18ILnfQtlCVcFyZAxxlPgN1KLz9QdOP1yX5Wsf+UTs1MmRS5jORc2mUQEGaOpnsS58MJYPmm2b7MqZOC9UPrdQ6TCSrHpRZ5o6I9Q3hwjAAa1gXBpfdjtNiwTA+EqVduetuJoMeZ13oj/bSWFcS4AK2haMs+IRBs4YVaUwGPR6N35MMfaBgp536JYWQHYuhsYysiJUsXAgu8rZ2B06Xe8aDsmBscuE8BtvaO9CbZ3rXCJZY/Hzz1aTFl0FGf3cDKbOu23tac9DMBENyzIlL63YomUeCy4mDIto69ExKzVHT8wZuDSuoDP4UkqzWd09s298Y1MXlcLpImNfTTr4YjNlBL/YOdztkF7PCEk7lKf2rp7Z1u4XDIXSfjBS+34Wt0mv199QWESW/TuMejAC97JMN+4v6LUNAz8H2ahpikihJNeDcLxOwwcZFVlhFZP3SjsHtjlttwVmmuvjy0ynt0LgdYuwUdptpWUl7Vsnfn0XugrQynNp1E62ffPsy3nV43RIhn7N9GS/ZYzz3Wy0dlLrXdXbaQX3OCvYM3BpWDzKAdo0oA8rCcKn6lafdjLAtK9mnnXw3AVjZZYeU1RHYdKFth9UGGuzhVF4RWdN821bbfsqahnu9x7vpwr35xLtwr14Lq09GgiKy9jg8burkOs3aUw9tERz3xibNJpiQfy5gJa2sw9t2/d1I0qc+2XcZtN+a72aNIqoaY0gxO6m6iDthhb7xjbFxCf8dueKULdm1V6h7LTL0rg5tlU0k10V4Wzs5lBzOg1+Guz4ohMW6ClqT6iLq4rocyC2pZQWbL5jLeWC+GeFCMAAWltsake2ivUM7C+4d7pl4/1yj2j8vKGBS42ZRVpHCvZ2726YB4ULitpxvd9pEWQ1SImxhCYIgCMLAIGcJCoIgCIMCUViCIAjCoGDIjTcYLrYMgiAIghCSISc/69/f5AuCIAjChUBcgoIgCMKgQBSWIAiCMCgQhSUIgiAMCkRhCYIgCIMCUVhCd9TYSld2iHHl5I/Lqg7WVcgJNCD1MIiJsMLSHu/jG1G0/xFYvUS6vB7xi3QbORlyKDlcqzmJOnDdhUIbJTicwfWC1p0aFbY3A4NPRN+wDmntOxesLrSRdvt0AHDv6lHbJwbk/XyiAF+ax7DZKi+zyYYADEg8rCs3tlT/sJIWb8V9+G1vaC6L8EGe25cx9SKeI3hpxN5yt0cEyE8nLh/18NvIFBmU7GJuj7FTGB8gVpVbjkigiYdlq2wis7KQgsFyqG8k60G4oFxAl+BMrwXhM8vUWha+syKf2XawmbY6e+15NqXMUCsr1VARJRV+s88cSg77y6Cmrbb4RHj1nbEGeSftjNpv9umd/RYMXDysEDIEk1s7M+9Wp9ry/NoiUDspZWX4RoztT3gRP0tXax3ZKr1t2r2NfNu2viTHYyFYLXpNWAuvtat9H/9+FaxP9ixDX9DK7Xcgcg9twXhDgBhd2rJ8+0JuSS2VJRqLSdtGPpZUcCuqoM4BauRlpV2Kvf1LK1+QPtk3GZRvusS/rdRnZPpEEXfnC14P0INl6iN3beRihAm95oIpLL3FjPPZROLiyzRB2XIoOZwBZWo49PgyyFA7xLoKrOZGCtVQ6YWNZqz+A152MfUZMdQ8G46FYcLgtFHq0JNidlJY5vAE77NVFmDY4y9DEVnTEol71o7LZffIoZ35B3yn7GLqM6DUHeK9DDLVjza3pJZM3OHLbQMXD6sHGRS5DdS6ZYjJ8AzKBWmJntD0pQ6/8uY5A7eFXzvFuWN/pan1gsMrR5gzcL02NllYSk5t03ilvbQBDm2VBUxqtHnea2pWkSecfKHdhcvuvuYNpbItK7l7HQR4V98+GVyGvuArtyYeVrC2cA/sGSbwxPhyD8pqX9aWoyHBYuDdeP9vs5DK1e707n3IR9YkE67Gak1sK3f/SqS0w8LidYTsk14ZtH0ylAwmJrFZufasHcO8YnLz0z1t1+wZV9wen+D1kFtSy+1Om+fbbDAXeCeu85Qxxr+fCBeeC6awXHZ3uAoHTs9AbcKgd1DrUTZWah16DOMhNzbG5yPYtr8RlzqLA3VQW22m4dlwO5CDd1Vl07xH6y4pJNlnNhZ+eI+A7zTegN5R53WJ5tfRrDdgIodZZqjZeQHcJkFlcMtd5vmAqxpdgSOzashNNftYmVZNtF9bksmvPvuPV4mEr+Q8Mmxvx3t2SyHJJm+795dQfTKwDH0huNxB20JVwnFlDiWsvM9A3TPe/qDpx+uSfK1j/9AoGhkyKfOZyHnLUyYuafn0rU+GkkHzTbN9GVOn9bUf5jDLrLW2td4PJVJ4ympZE7sUGIA1rAuDy27HabFgGB+J0q7cdTeTQY+zLvSAfmmsKwlwAdvCURZ8wqBZw4o0JoMej8bvSYaI4qImyOS3IC2RAtwuwwFYMxbC5iJva3fgdJlIds9csou53eTCeQy2tXegN8/0rhEssfj55qtJiy+DjP7OfKzUOkzc3tOag2YmGJJjTlymJI1/fh4JLicOdaY2KTVHTc8buDWsoDL4U0iyWt89sW1/Y1AXl8PpImFeTzv5YjBGyufvbofsYlZYwqk8pX/11LZut3A4hO6TkcL3u7BVeq3+ntoiouTXadyDEaCXfbJhf1G/ZQjlOfBSRFUjpCzp2f1ckKa4kcMvV4g0F1lhFZH1SzsGtztutQVnmTrLyU+ntEPjdoixU9htpmUl7Vklf38WuQvSynBq1020fvLty3jX4XVLhHzO9mW8ZI/x3G+1dFDqXtfZaQf1OSvYM3BrWD3IANo1ogwoC8Ol6leedjPCtqxkn3by3QRgZZcdUlZHYNOFth1WG2iwh1N5RWRN821bbftty9pDs2e9x7uY7l589y7cq9fC6pORoIisPQ6Pmzq5TrPm0kNbBEcbzVqtw5B/LmAlrazD23b93UjSpz7Zdxm035p3LS94PWzL2kxNTIbnOd3zeOWOlItZ6D0RjjisbMmuvULda5Ghd3Voq2wiuS7SLoocSg7nwS9lgTmirKugNanuArm4Bg+5JbWsYLO4nIWQDICF5bZGLr0/Jry00c7+eod7Jt4/16h2JlnApMbNoqwihXtbdLdNA4Ig9IYIW1iCIAiCMDDIWYKCIAjCoEAUliAIgjAoGHLjDYaLLYMgCIIghGTIyc/69zf5giAIgnAhEJegIAiCMCgQhSUIgiAMCiJ2luDPfnVbpIoSBgm/eHjvxRZBEIQrCLGwBEEQhEGBKCxBiBjKaSG9O3FECSo4IKHsBeEy44KEF5k2/QWSeZeiQ/sDXksZ+W/ehHM1bK4u6bnAKU+SZxwFQNfp1wKWK1xsejgTcV2F7zFF/uHWfS65Q2kUUuk+tmoAQ1tcSgzMOZGCMHi5JOJh9VrpfPAMmz9wK0JhUNJDnCNPvKHsYupX5ynRn7dbSYu3KmmPXFhRw0eVsVcUkTVNDn0VhHC4gArLzJL5dxMN4VlRcY+QMxq+0I3n298COMWHu5/hQIinzJ65iZuGuX+582SxZP7NfHX0McpbvffFd7kVZSoLb7tbfQ6caXuInR8AZLFkfjxfnY7i26oV6L0WmGnTXyBZ1wnDRqE7d4xPdeP59re8smvl81XUWSyZn6LUj981XytUUw9xj5AzcTy6AHm0VqjCf/Kp+v7BZfCWUpzu0AAABpBJREFU+VWI9wwXY0ktrRY9PQXIC8r2ahoeCSNIZ3Yx9astuCNkua2y3JJarIY9XsWYXUz9agPvqlaf1prTBkVUTg9vxGmxhG3R5ZbUeqL/+gb4K6TycCzODgspJnzrQWNp+gRl1FqgpiZaM+BKDjIqCG4u2BqWbuRovjr6EJt313Bm2M0sjNNeu5u8+ZvIm/+CTzrDxnPNqYfYvPshak5HcdPMrJDPOVCt3L9590NsbkPNU8KHp+G661PVu7IYNewULepAPXvm3Z7nbN5dA0atHKO4jneVa0ePcc2oR5gW6l2HQcvRY3QNG881p17j039GoY9TFE9812vqc17jC/3dLJmi5Jk2/WauOf2aR3atIrtpZCcfut9Jq7Rbf0mRJ/01vtDfrsqdxRJjFJ8eVa59eA66Tr9LeWvPMkQeEymGPcTFJ1Jo9wuQZ8oIHc8peyaT9A5qQ7nE3OHh4xOJi7fRYM6jJNsd70oTNDDVDGoo9tySWm532jR5Cnzk0FsM1KpllnZYWBxiXWpbVrJyb/eIhKC3MEl9lk895KeraX6xvdT0Uoei/HoT7l4QLmcumIXlHjDhFF/905t++NBjHHb/mPIkeROfZHarOij/8xgfqrP8w59/QnLiSKaB9/4AdF8Ta9HkNzON/RyeEs81p2vUgT+LUcMgetgm8ozuTP/JV54CvIqN1l9S1BrOu9ZwADPxqvxjRgGkMkb/b+i+dTd58+/23HvGXQ9fdZJivJu8maP8rM9TfPXPFG6a/wJ6jYWIKrvWKoP/5NMeJetZht68Y3g4KFWtm23tHVjdp4DlpxPnVkLZxdSvrqXkmNf6SshwWxWKNRJ6oNasb6HmA5Ro0k1K5N78HGaZO3h3WhGQwyyzHr2+gNYWb+nNmhJdqmIDJdJs/3B4gv751IMgCL3ikljD8vBBC2eM8YGvDY9CR2fP+eMeIXkkfHr0IWVgn/Ikee7RvPWXtIx+gTFxEB0NLdXaNbPw3I39x+uW64a6LseUJ8mbv0njNt1P+V6323ITeRO1rr0Uoj33pbLwtts97/PVP/+Nb0/cRN5E4J/HqKlWyuhRhovB9moaHjH7JPm61EJjq8wgwbMmpgafVCnYaad+SSFkx2JoLMNro/fBRSkIwkXlktrWPm36zUT/s9N3xq8yO3oUXa7GHq0rhU5crQCpLBw1yufKgTOdXHf9I4yiRaOcSjh1bhTx01MZWPZzwgXfHh3CrfnBM2w+eowu3Ug/1+N+yvc+xIfn/o1rhntTu7pOKf+ZkuJZgyPOzHUco8btLtz7S7XewpAh7hFy5m8aQDehH+sySNF30NZPxeFyOjTlaS5sr6YhJomSVAPO/e7NDUVUNfq5KC9RDLGy3V0Q3Fx0C8tnk8Q/j1HjGVyBb40nZf4mUkCxOAJuQlDcW8pmiF/SMnoTN83fxE38J5+ePoVnRwLABy18NT8F2h7ykeFAdQ2j5mvcZP5yRIjDh95lzG13kzc/RU0JvBkDlM0dh6Hbxgr+eYwa1U164JNjxE9U5T53jE//GaVcaG3ki8S7vXWnfaceZLhQaDcohL2ZwG9jhbWlCatqVRXstHP7atW957BT44rRZCyiqjEPq7mRQo2e3pa1mVmHC2htyeidHEHw2Y5vaqI1I7QF51sPivxa69LnvWTThSBELuJwxI9minuEnESojaTiGIgyL0WmPEledItmLaz7LslIMFiOZpK/ZxKEy4OLbmFdEDxWimJNXNbKCpS1wPkpGitKsdgumXWrC4Tb6nHZbUwVZSUIg55L18ISLnkGi4UlCMLlQcQUliAIgiAMJJfULkFBEARBCMaQG2+Qv2IUBEEQLn2GnPzMebFlEARBEISQiEtQEARBGBSIwhIEQRAGBaKwBEEQhEGBKCxBEARhUNCjwvoq1sLfJ2bwL13UhZJHEARBEAIS0sL6fzo9Z023idISBEEQLio9Kqxr2u1c3XFUlJYgCIJw0QlpYWmV1lex0y+ETIIgCILQjbA2XXzL1ca/dFH8S6cPfbMgCIIgDAAhFdY/9bH8feJivuVq49qjZRdCJkEQBEHoRo8KS5SVIAiCcKnQo8L6OsYsykoQBEG4JJB4WIIgCMKgQE66EARBEAYForAEQRCEQYEoLEEQBGFQIApLEARBGBSIwhIEQRAGBaKwBEEQhEGBKCxBEARhUCAKSxAEQRgUiMISBEEQBgWisARBEIRBgSgsQRAEYVAgCksQBEEYFIjCEgRBEAYF/z9dVPfWInu7YgAAAABJRU5ErkJggg==;" parent="1" vertex="1">
                    <mxGeometry x="75" y="510" width="428" height="205" as="geometry"/>
                </mxCell>
            </root>
        </mxGraphModel>
    </diagram>
</mxfile>